SplineFontDB: 3.2
FontName: IthkuilBasic
FullName: Ithkuil Basic
FamilyName: IthkuilBasic
Weight: Regular
Copyright: Shankar Sivarajan\nBased on glyphs by Kevin McCurdy and Zachary Sakowitz. Numbers by Pan Kamil
UComments: "2023-2-19: Created with FontForge (http://fontforge.org)"
Version: 
ItalicAngle: 0
UnderlinePosition: -96
UnderlineWidth: 48
Ascent: 384
Descent: 128
InvalidEm: 0
LayerCount: 2
Layer: 0 0 "Back" 1
Layer: 1 0 "Fore" 0
XUID: [1021 73 1113128204 8431]
FSType: 0
OS2Version: 0
OS2_WeightWidthSlopeOnly: 0
OS2_UseTypoMetrics: 1
CreationTime: 1676795389
ModificationTime: 1693805779
PfmFamily: 17
TTFWeight: 400
TTFWidth: 5
LineGap: 48
VLineGap: 0
OS2TypoAscent: 0
OS2TypoAOffset: 1
OS2TypoDescent: 0
OS2TypoDOffset: 1
OS2TypoLinegap: 48
OS2WinAscent: 0
OS2WinAOffset: 1
OS2WinDescent: 0
OS2WinDOffset: 1
HheadAscent: 0
HheadAOffset: 1
HheadDescent: 0
HheadDOffset: 1
OS2Vendor: 'PfEd'
OS2CodePages: 00000000.00000000
OS2UnicodeRanges: 00000000.00000000.00000000.00000000
Lookup: 6 0 0 "OneQuote" { "OneQuote subtable"  } ['liga' ('grek' <'dflt' > 'latn' <'dflt' > 'DFLT' <'dflt' > ) ]
Lookup: 1 0 0 "Single Substitution lookup 1" { "Single Substitution lookup 1 subtable"  } []
Lookup: 4 0 1 "ExtraMoveDiacritic" { "ExtraMoveDiacritic subtable"  } ['liga' ('grek' <'dflt' > 'latn' <'dflt' > 'DFLT' <'dflt' > ) ]
Lookup: 4 0 1 "FlipCores" { "FlipCores subtable"  } ['liga' ('grek' <'dflt' > 'latn' <'dflt' > 'DFLT' <'dflt' > ) ]
Lookup: 4 0 1 "TertiaryLigature" { "TertiaryLigature subtable"  } ['liga' ('grek' <'dflt' > 'latn' <'dflt' > 'DFLT' <'dflt' > ) ]
Lookup: 4 0 1 "VowelLigature" { "VowelLigature subtable"  } ['liga' ('grek' <'dflt' > 'latn' <'dflt' > 'DFLT' <'dflt' > ) ]
Lookup: 4 0 1 "RegisterLigature" { "RegisterLigature subtable"  } ['liga' ('grek' <'dflt' > 'latn' <'dflt' > 'DFLT' <'dflt' > ) ]
Lookup: 6 0 0 "VowelAnchor" { "VowelAnchor contextual 0"  "VowelAnchor contextual 1"  } ['liga' ('grek' <'dflt' > 'latn' <'dflt' > 'DFLT' <'dflt' > ) ]

StartChar: RPV.VAR
Encoding: -1 -1 0
Width: 1024
VWidth: 1024
Flags: H
LayerCount: 2
Back
SplineSet
-202 543 m 4
 -202 596 -159 639 -106 639 c 4
 -53 639 -10 596 -10 543 c 4
 -10 490 -53 447 -106 447 c 4
 -159 447 -202 490 -202 543 c 4
-250 495 m 4
 -250 548 -207 591 -154 591 c 4
 -101 591 -58 548 -58 495 c 4
 -58 442 -101 399 -154 399 c 4
 -207 399 -250 442 -250 495 c 4
EndSplineSet
Fore
Validated: 1
EndChar

StartChar: two.hund
Encoding: 92 -1 1
Width: 320
GlyphClass: 4
Flags: HW
AnchorPoint: "Extension_mkmk" 264 297 mark 0
LayerCount: 2
Fore
SplineSet
276 309 m 1
 266 284 253 276 239 272 c 1
 239 324 l 1
 276 323 l 1
 276 309 l 1
119 343 m 2
 80 304 l 1
 97 453 276 415 276 323 c 0
 262 302 256 301 239 286 c 1
 239 385 113 421 119 343 c 2
EndSplineSet
EndChar

StartChar: one.ten
Encoding: 93 -1 2
Width: 320
GlyphClass: 4
Flags: HW
AnchorPoint: "Extension_mkmk" 99 48 mark 0
LayerCount: 2
Fore
SplineSet
80 35 m 2
 91 63 104 64 117 72 c 1
 117 21 l 1
 80 -16 l 1
 80 35 l 2
80 -16 m 1
 87 8 100 20 117 21 c 0
 161 11 180 -13 194 -37 c 2
 162 -69 l 1
 146 -39 120 -12 80 -16 c 1
EndSplineSet
EndChar

StartChar: two.ten
Encoding: 94 -1 3
Width: 320
Flags: HW
AnchorPoint: "Extension_mkmk" 97 49 mark 0
LayerCount: 2
Fore
SplineSet
80 35 m 2
 90 60 103 68 117 72 c 1
 117 21 l 1
 80 21 l 1
 80 35 l 2
236 1 m 2
 276 40 l 1
 259 -109 80 -71 80 21 c 0
 94 42 100 44 117 59 c 1
 117 -40 242 -77 236 1 c 2
EndSplineSet
EndChar

StartChar: three.ten
Encoding: 95 -1 4
Width: 320
Flags: HW
AnchorPoint: "Extension_mkmk" 160 48 mark 0
LayerCount: 2
Fore
SplineSet
141 31 m 0
 149 52 162 63 178 68 c 1
 178 -27 114 -25 114 -25 c 1
 114 -25 109 -30 106 -16 c 1
 141 -17 143 -8 141 31 c 0
160 -95 m 1
 80 -42 l 1
 106 -16 l 1
 187 -66 l 1
 160 -95 l 1
EndSplineSet
EndChar

StartChar: four.ten
Encoding: 96 -1 5
Width: 320
Flags: HW
AnchorPoint: "Extension_mkmk" 128 48 mark 0
LayerCount: 2
Fore
SplineSet
112 35 m 0
 118 64 146 74 148 72 c 0
 148 30 173 23 197 15 c 1
 156 -9 l 1
 156 -9 112 12 112 35 c 0
197 15 m 1
 163 -6 105 -44 80 -51 c 1
 119 -21 128 -12 180 21 c 2
 197 15 l 1
EndSplineSet
EndChar

StartChar: five.ten
Encoding: 97 -1 6
Width: 320
Flags: HW
AnchorPoint: "Extension_mkmk" 200 48 mark 0
LayerCount: 2
Fore
SplineSet
179 35 m 2
 191 55 204 63 216 72 c 1
 216 29 l 1
 191 4 l 1
 80 4 l 1
 105 29 l 1
 179 29 l 1
 179 35 l 2
196 -85 m 1
 157 -29 143 -20 80 4 c 1
 105 29 l 2
 151 8 176 -7 223 -57 c 2
 196 -85 l 1
EndSplineSet
EndChar

StartChar: six.ten
Encoding: 98 -1 7
Width: 320
Flags: HW
AnchorPoint: "Extension_mkmk" 108 48 mark 0
LayerCount: 2
Fore
SplineSet
90 35 m 2
 101 63 114 64 127 72 c 1
 127 31 l 1
 90 5 l 1
 90 35 l 2
127 31 m 2
 230 31 l 1
 199 5 l 1
 90 5 l 1
 100 17 111 27 127 31 c 2
80 -88 m 1
 80 -19 169 1 230 31 c 1
 199 5 l 2
 185 -3 126 -4 126 -50 c 2
 80 -88 l 1
EndSplineSet
EndChar

StartChar: seven.ten
Encoding: 99 -1 8
Width: 320
Flags: HW
AnchorPoint: "Extension_mkmk" 164 48 mark 0
LayerCount: 2
Fore
SplineSet
148 35 m 2
 159 63 172 64 185 72 c 1
 185 21 l 1
 148 0 l 1
 148 35 l 2
148 0 m 1
 148 0 l 1
 159 9 170 18 185 21 c 0
 324 18 223 -101 80 -33 c 1
 104 -9 l 1
 131 -46 285 -45 210 -10 c 0
 200 -5 169 0 148 0 c 1
EndSplineSet
EndChar

StartChar: eight.ten
Encoding: 100 -1 9
Width: 320
Flags: HW
AnchorPoint: "Extension_mkmk" 168 48 mark 0
LayerCount: 2
Fore
SplineSet
150 35 m 2
 161 63 173 64 186 72 c 1
 186 15 l 1
 150 15 l 1
 150 35 l 2
186 15 m 1
 155 -16 l 2
 141 -14 115 -8 104 -25 c 0
 91 -44 185 -58 225 -36 c 1
 203 -108 -34 -77 150 15 c 0
 167 24 175 17 186 15 c 2
 186 15 l 1
EndSplineSet
EndChar

StartChar: nine.ten
Encoding: 101 -1 10
Width: 320
Flags: HW
AnchorPoint: "Extension_mkmk" 99 52 mark 0
LayerCount: 2
Fore
SplineSet
80 35 m 2
 91 63 104 64 117 72 c 1
 117 15 l 1
 80 -8 l 1
 80 35 l 2
80 -8 m 1
 163 97 243 8 127 -83 c 1
 137 -64 145 -52 152 -33 c 0
 165 3 139 33 80 -8 c 1
EndSplineSet
EndChar

StartChar: one.hund
Encoding: 102 -1 11
Width: 320
Flags: HW
HStem: 275 84G<158 164> 326 37<150 171>
VStem: 158 37<305 326>
AnchorPoint: "Extension_mkmk" 182 299 mark 0
LayerCount: 2
Fore
SplineSet
194 312 m 2x60
 183 284 171 283 158 275 c 1xa0
 158 326 l 1
 194 363 l 1
 194 312 l 2x60
194 363 m 1x60
 187 339 175 327 158 326 c 0
 114 336 94 360 80 384 c 2
 112 416 l 1
 128 386 154 359 194 363 c 1x60
EndSplineSet
EndChar

StartChar: three.hund
Encoding: 103 -1 12
Width: 320
Flags: HW
AnchorPoint: "Extension_mkmk" 112 297 mark 0
LayerCount: 2
Fore
SplineSet
126 310 m 0
 118 289 105 278 89 273 c 1
 89 368 153 367 153 367 c 1
 153 367 158 372 161 358 c 1
 126 359 124 349 126 310 c 0
107 436 m 1
 187 383 l 1
 161 358 l 1
 80 407 l 1
 107 436 l 1
EndSplineSet
EndChar

StartChar: four.hund
Encoding: 104 -1 13
Width: 320
Flags: HW
AnchorPoint: "Extension_mkmk" 152 297 mark 0
LayerCount: 2
Fore
SplineSet
165 310 m 0
 159 281 130 271 128 273 c 0
 128 315 104 322 80 330 c 1
 121 354 l 1
 121 354 165 333 165 310 c 0
80 330 m 1
 114 351 172 389 197 396 c 1
 158 366 149 357 97 324 c 2
 80 330 l 1
EndSplineSet
EndChar

StartChar: five.hund
Encoding: 105 -1 14
Width: 320
Flags: HW
AnchorPoint: "Extension_mkmk" 112 301 mark 0
LayerCount: 2
Fore
SplineSet
124 312 m 2
 112 292 99 284 87 275 c 1
 87 318 l 1
 112 343 l 1
 223 343 l 1
 198 318 l 1
 124 318 l 1
 124 312 l 2
107 432 m 1
 146 376 160 367 223 343 c 1
 198 318 l 2
 152 339 127 354 80 404 c 2
 107 432 l 1
EndSplineSet
EndChar

StartChar: six.hund
Encoding: 106 -1 15
Width: 320
Flags: HW
AnchorPoint: "Extension_mkmk" 208 297 mark 0
LayerCount: 2
Fore
SplineSet
219 309 m 2
 208 281 196 280 183 272 c 1
 183 313 l 1
 219 339 l 1
 219 309 l 2
183 313 m 2
 80 313 l 1
 111 339 l 1
 219 339 l 1
 209 327 199 317 183 313 c 2
230 432 m 1
 230 363 141 343 80 313 c 1
 111 339 l 2
 125 347 184 348 184 394 c 2
 230 432 l 1
EndSplineSet
EndChar

StartChar: seven.hund
Encoding: 107 -1 16
Width: 320
Flags: HW
AnchorPoint: "Extension_mkmk" 171 299 mark 0
LayerCount: 2
Fore
SplineSet
183 311 m 2
 172 283 159 282 146 274 c 1
 146 325 l 1
 183 346 l 1
 183 311 l 2
183 346 m 1
 183 346 l 1
 172 337 161 328 146 325 c 0
 7 328 108 447 251 379 c 1
 228 355 l 1
 201 392 46 391 121 356 c 0
 131 351 162 346 183 346 c 1
EndSplineSet
EndChar

StartChar: eight.hund
Encoding: 108 -1 17
Width: 320
Flags: HW
AnchorPoint: "Extension_mkmk" 145 292 mark 0
LayerCount: 2
Fore
SplineSet
156 301 m 2
 145 273 132 272 119 264 c 1
 119 321 l 1
 156 321 l 1
 156 301 l 2
119 321 m 1
 150 352 l 2
 164 350 190 344 201 361 c 0
 214 380 120 394 80 372 c 1
 102 444 340 413 156 321 c 0
 139 312 130 319 119 321 c 2
 119 321 l 1
EndSplineSet
EndChar

StartChar: nine.hund
Encoding: 109 -1 18
Width: 320
Flags: HW
AnchorPoint: "Extension_mkmk" 175 298 mark 0
LayerCount: 2
Fore
SplineSet
185 310 m 2
 174 282 161 281 148 273 c 1
 148 330 l 1
 185 354 l 1
 185 310 l 2
185 354 m 1
 102 249 22 337 138 428 c 1
 128 409 121 397 114 378 c 0
 101 342 126 313 185 354 c 1
EndSplineSet
EndChar

StartChar: b
Encoding: 28 98 19
Width: 320
Flags: W
HStem: 0 21G<159 179> 240 40<94 239>
VStem: 159 40<40 135>
AnchorPoint: "Diacritic_right" 260 140 basechar 0
AnchorPoint: "Diacritic_left" 60 140 basechar 0
AnchorPoint: "Diacritic_up" 160 360 basechar 0
AnchorPoint: "Diacritic_down" 160 -60 basechar 0
AnchorPoint: "Extension_up" 259 260 basechar 0
AnchorPoint: "Extension_down" 179 20 basechar 0
LayerCount: 2
Fore
SplineSet
279 280 m 1
 239 240 l 1
 94 240 l 1
 160 146 l 1
 163 148 l 1
 170 156 l 2
 178 164 186 172 194 180 c 2
 199 185 l 1
 199 40 l 1
 159 0 l 1
 159 135 l 1
 134 110 l 1
 41 242 l 1
 79 280 l 1
 279 280 l 1
EndSplineSet
Substitution2: "Single Substitution lookup 19 subtable" b.ext.up
Substitution2: "Single Substitution lookup 18 subtable" b.ext.down
EndChar

StartChar: c
Encoding: 29 99 20
Width: 320
Flags: HW
AnchorPoint: "Diacritic_right" 200 140 basechar 0
AnchorPoint: "Diacritic_left" 0 140 basechar 0
AnchorPoint: "Extension_up" 80 260 basechar 0
AnchorPoint: "Extension_down" 240 20 basechar 0
AnchorPoint: "Diacritic_down" 160 -60 basechar 0
AnchorPoint: "Diacritic_up" 160 360 basechar 0
LayerCount: 2
Fore
SplineSet
100 280 m 1
 100 40 l 1
 260 40 l 1
 220 0 l 1
 60 0 l 1
 60 240 l 1
 100 280 l 1
EndSplineSet
Substitution2: "Single Substitution lookup 19 subtable" c.ext.up
Substitution2: "Single Substitution lookup 18 subtable" c.ext.down
EndChar

StartChar: d
Encoding: 30 100 21
Width: 320
Flags: HW
AnchorPoint: "Diacritic_left" 0 140 basechar 0
AnchorPoint: "Diacritic_right" 200 140 basechar 0
AnchorPoint: "Extension_down" 120 20 basechar 0
AnchorPoint: "Extension_up" 240 260 basechar 0
AnchorPoint: "Diacritic_down" 160 -60 basechar 0
AnchorPoint: "Diacritic_up" 160 360 basechar 0
LayerCount: 2
Fore
SplineSet
100 280 m 1
 260 280 l 1
 220 240 l 1
 100 240 l 1
 100 145 l 1
 140 185 l 1
 140 40 l 1
 100 0 l 1
 100 135 l 1
 60 95 l 1
 60 240 l 1
 100 280 l 1
EndSplineSet
Substitution2: "Single Substitution lookup 19 subtable" d.ext.up
Substitution2: "Single Substitution lookup 18 subtable" d.ext.down
EndChar

StartChar: f
Encoding: 32 102 22
Width: 320
Flags: HW
AnchorPoint: "Diacritic_right" 260 140 basechar 0
AnchorPoint: "Diacritic_left" 0 140 basechar 0
AnchorPoint: "Extension_down" 180 20 basechar 0
AnchorPoint: "Extension_up" 260 260 basechar 0
AnchorPoint: "Diacritic_up" 160 360 basechar 0
AnchorPoint: "Diacritic_down" 160 -60 basechar 0
LayerCount: 2
Fore
SplineSet
240 240 m 1
 80 240 l 1
 80 160 l 1
 200 160 l 1
 200 40 l 1
 160 0 l 1
 160 120 l 1
 40 120 l 1
 40 240 l 1
 80 280 l 1
 280 280 l 1
 240 240 l 1
EndSplineSet
Substitution2: "Single Substitution lookup 19 subtable" f.ext.up
Substitution2: "Single Substitution lookup 18 subtable" f.ext.down
EndChar

StartChar: g
Encoding: 33 103 23
Width: 320
VWidth: 268
Flags: HW
HStem: 0 84G<191 286> 240 40<63 271>
AnchorPoint: "Diacritic_left" 20 140 basechar 0
AnchorPoint: "Diacritic_right" 280 140 basechar 0
AnchorPoint: "Extension_up" 291 260 basechar 0
AnchorPoint: "Extension_down" 276 20 basechar 0
AnchorPoint: "Diacritic_up" 160 360 basechar 0
AnchorPoint: "Diacritic_down" 160 -60 basechar 0
LayerCount: 2
Fore
SplineSet
271 240 m 1
 63 240 l 1
 155 124 l 1
 185 154 l 1
 286 30 l 1
 256 0 l 1
 160 119 l 1
 130 90 l 1
 9 240 l 1
 48 280 l 1
 311 280 l 1
 271 240 l 1
EndSplineSet
Substitution2: "Single Substitution lookup 19 subtable" g.ext.up
Substitution2: "Single Substitution lookup 18 subtable" g.ext.down
EndChar

StartChar: h
Encoding: 34 104 24
Width: 320
VWidth: 268
Flags: HW
AnchorPoint: "Diacritic_right" 300 140 basechar 0
AnchorPoint: "Diacritic_left" 20 140 basechar 0
AnchorPoint: "Extension_up" 90 260 basechar 0
AnchorPoint: "Extension_down" 230 20 basechar 0
AnchorPoint: "Diacritic_up" 160 360 basechar 0
AnchorPoint: "Diacritic_down" 160 -60 basechar 0
LayerCount: 2
Fore
SplineSet
110 280 m 1
 110 140 l 1
 205 140 l 1
 250 185 l 1
 250 40 l 1
 210 0 l 1
 210 135 l 1
 175 100 l 1
 70 100 l 1
 70 240 l 1
 110 280 l 1
EndSplineSet
Substitution2: "Single Substitution lookup 19 subtable" h.ext.up
Substitution2: "Single Substitution lookup 18 subtable" h.ext.down
EndChar

StartChar: j
Encoding: 36 106 25
Width: 320
VWidth: 268
Flags: HW
AnchorPoint: "Diacritic_right" 220 140 basechar 0
AnchorPoint: "Diacritic_left" 20 140 basechar 0
AnchorPoint: "Extension_up" 260 260 basechar 0
AnchorPoint: "Extension_down" 240 20 basechar 0
AnchorPoint: "Diacritic_up" 160 360 basechar 0
AnchorPoint: "Diacritic_down" 160 -60 basechar 0
LayerCount: 2
Fore
SplineSet
120 280 m 1
 280 280 l 1
 240 240 l 1
 120 240 l 1
 120 70 l 1
 90 40 l 1
 260 40 l 1
 220 0 l 1
 40 0 l 1
 80 40 l 1
 80 240 l 1
 120 280 l 1
EndSplineSet
Substitution2: "Single Substitution lookup 19 subtable" j.ext.up
Substitution2: "Single Substitution lookup 18 subtable" j.ext.down
EndChar

StartChar: k
Encoding: 37 107 26
Width: 320
VWidth: 268
Flags: HW
AnchorPoint: "Diacritic_right" 220 140 basechar 0
AnchorPoint: "Diacritic_left" 20 140 basechar 0
AnchorPoint: "Extension_up" 291 260 basechar 0
AnchorPoint: "Extension_down" 224 20 basechar 0
AnchorPoint: "Diacritic_up" 160 360 basechar 0
AnchorPoint: "Diacritic_down" 160 -60 basechar 0
LayerCount: 2
Fore
SplineSet
48 280 m 1
 311 280 l 1
 271 240 l 1
 63 240 l 1
 234 30 l 1
 204 0 l 1
 198 7 l 1
 198 7 l 1
 9 240 l 1
 48 280 l 1
EndSplineSet
Substitution2: "Single Substitution lookup 19 subtable" k.ext.up
Substitution2: "Single Substitution lookup 18 subtable" k.ext.down
EndChar

StartChar: l
Encoding: 38 108 27
Width: 320
VWidth: 268
Flags: HW
AnchorPoint: "Diacritic_right" 260 140 basechar 0
AnchorPoint: "Diacritic_left" 20 140 basechar 0
AnchorPoint: "Extension_down" 240 20 basechar 0
AnchorPoint: "Extension_up" 100 260 basechar 0
AnchorPoint: "Diacritic_up" 160 360 basechar 0
AnchorPoint: "Diacritic_down" 160 -60 basechar 0
LayerCount: 2
Fore
SplineSet
120 280 m 1
 120 140 l 1
 209 140 l 1
 110 40 l 1
 260 40 l 1
 220 0 l 1
 60 0 l 1
 160 100 l 1
 80 100 l 1
 80 240 l 1
 120 280 l 1
EndSplineSet
Substitution2: "Single Substitution lookup 19 subtable" l.ext.up
Substitution2: "Single Substitution lookup 18 subtable" l.ext.down
EndChar

StartChar: m
Encoding: 39 109 28
Width: 320
VWidth: 268
Flags: HW
AnchorPoint: "Diacritic_right" 220 140 basechar 0
AnchorPoint: "Diacritic_left" 20 140 basechar 0
AnchorPoint: "Extension_down" 225 20 basechar 0
AnchorPoint: "Extension_up" 105 260 basechar 0
AnchorPoint: "Diacritic_up" 160 360 basechar 0
AnchorPoint: "Diacritic_down" 160 -60 basechar 0
LayerCount: 2
Fore
SplineSet
125 280 m 1
 125 140 l 1
 235 30 l 1
 205 0 l 1
 85 120 l 1
 85 240 l 1
 125 280 l 1
EndSplineSet
Substitution2: "Single Substitution lookup 19 subtable" m.ext.up
Substitution2: "Single Substitution lookup 18 subtable" m.ext.down
EndChar

StartChar: n
Encoding: 40 110 29
Width: 320
VWidth: 268
Flags: HW
AnchorPoint: "Diacritic_right" 240 140 basechar 0
AnchorPoint: "Diacritic_left" 20 140 basechar 0
AnchorPoint: "Extension_down" 225 20 basechar 0
AnchorPoint: "Extension_up" 105 260 basechar 0
AnchorPoint: "Diacritic_up" 160 360 basechar 0
AnchorPoint: "Diacritic_down" 160 -60 basechar 0
LayerCount: 2
Fore
SplineSet
125 280 m 2
 125 129 l 1
 149 154 l 1
 235 30 l 1
 205 0 l 1
 123 118 l 1
 85 80 l 1
 85 240 l 1
 125 280 l 2
EndSplineSet
Substitution2: "Single Substitution lookup 19 subtable" n.ext.up
Substitution2: "Single Substitution lookup 18 subtable" n.ext.down
EndChar

StartChar: p
Encoding: 42 112 30
Width: 320
VWidth: 268
Flags: HW
AnchorPoint: "Diacritic_right" 240 140 basechar 0
AnchorPoint: "Diacritic_left" 40 140 basechar 0
AnchorPoint: "Extension_down" 160 20 basechar 0
AnchorPoint: "Extension_up" 260 260 basechar 0
AnchorPoint: "Diacritic_down" 160 -60 basechar 0
AnchorPoint: "Diacritic_up" 160 360 basechar 0
LayerCount: 2
Fore
SplineSet
100 240 m 1
 180 160 l 1
 180 40 l 1
 140 0 l 1
 140 140 l 1
 40 240 l 1
 80 280 l 1
 280 280 l 1
 240 240 l 1
 100 240 l 1
EndSplineSet
Substitution2: "Single Substitution lookup 19 subtable" p.ext.up
Substitution2: "Single Substitution lookup 18 subtable" p.ext.down
EndChar

StartChar: r
Encoding: 43 114 31
Width: 320
VWidth: 268
Flags: HW
AnchorPoint: "Diacritic_left" 80 140 basechar 0
AnchorPoint: "Diacritic_right" 280 140 basechar 0
AnchorPoint: "Extension_down" 240 20 basechar 0
AnchorPoint: "Extension_up" 70 260 basechar 0
AnchorPoint: "Diacritic_down" 160 -60 basechar 0
AnchorPoint: "Diacritic_up" 160 360 basechar 0
LayerCount: 2
Fore
SplineSet
90 280 m 1
 220 150 l 1
 110 40 l 1
 260 40 l 1
 220 0 l 1
 60 0 l 1
 185 125 l 1
 60 250 l 1
 90 280 l 1
EndSplineSet
Substitution2: "Single Substitution lookup 19 subtable" r.ext.up
Substitution2: "Single Substitution lookup 18 subtable" r.ext.down
EndChar

StartChar: s
Encoding: 44 115 32
Width: 320
VWidth: 268
Flags: HW
AnchorPoint: "Diacritic_right" 300 140 basechar 0
AnchorPoint: "Diacritic_left" 20 140 basechar 0
AnchorPoint: "Extension_up" 250 260 basechar 0
AnchorPoint: "Extension_down" 190 20 basechar 0
AnchorPoint: "Diacritic_down" 160 -60 basechar 0
AnchorPoint: "Diacritic_up" 160 360 basechar 0
LayerCount: 2
Fore
SplineSet
270 280 m 2
 270 160 l 1
 230 120 l 1
 110 120 l 1
 200 30 l 1
 170 0 l 1
 50 120 l 1
 90 160 l 1
 230 160 l 1
 230 240 l 1
 270 280 l 2
EndSplineSet
Substitution2: "Single Substitution lookup 19 subtable" s.ext.up
Substitution2: "Single Substitution lookup 18 subtable" s.ext.down
EndChar

StartChar: t
Encoding: 45 116 33
Width: 320
VWidth: 268
Flags: HW
AnchorPoint: "Diacritic_left" 0 140 basechar 0
AnchorPoint: "Diacritic_right" 200 140 basechar 0
AnchorPoint: "Extension_up" 240 260 basechar 0
AnchorPoint: "Extension_down" 80 20 basechar 0
AnchorPoint: "Diacritic_down" 160 -60 basechar 0
AnchorPoint: "Diacritic_up" 160 360 basechar 0
LayerCount: 2
Fore
SplineSet
100 280 m 1
 260 280 l 1
 220 240 l 1
 100 240 l 1
 100 40 l 1
 60 0 l 1
 60 240 l 1
 100 280 l 1
EndSplineSet
Substitution2: "Single Substitution lookup 19 subtable" t.ext.up
Substitution2: "Single Substitution lookup 18 subtable" t.ext.down
EndChar

StartChar: v
Encoding: 47 118 34
Width: 320
VWidth: 268
Flags: HW
HStem: 0 84G<140 180> 140 40<111 140> 240 40<80 240>
VStem: 40 40<150 240> 140 40<40 140>
AnchorPoint: "Diacritic_right" 240 140 basechar 0
AnchorPoint: "Diacritic_left" 0 140 basechar 0
AnchorPoint: "Extension_up" 260 260 basechar 0
AnchorPoint: "Extension_down" 160 20 basechar 0
AnchorPoint: "Diacritic_down" 160 -60 basechar 0
AnchorPoint: "Diacritic_up" 160 360 basechar 0
LayerCount: 2
Fore
SplineSet
240 240 m 1
 80 240 l 1
 80 150 l 1
 111 180 l 1
 180 180 l 1
 180 40 l 1
 140 0 l 1
 140 140 l 1
 80 140 l 1
 40 100 l 1
 40 240 l 1
 80 280 l 1
 280 280 l 1
 240 240 l 1
EndSplineSet
Substitution2: "Single Substitution lookup 19 subtable" v.ext.up
Substitution2: "Single Substitution lookup 18 subtable" v.ext.down
EndChar

StartChar: x
Encoding: 49 120 35
Width: 320
VWidth: 268
Flags: W
HStem: 0 21G<169.185 209> 240 40<69 271>
AnchorPoint: "Diacritic_left" 0 140 basechar 0
AnchorPoint: "Diacritic_right" 240 140 basechar 0
AnchorPoint: "Extension_up" 291 260 basechar 0
AnchorPoint: "Extension_down" 209 20 basechar 0
AnchorPoint: "Diacritic_down" 160 -60 basechar 0
AnchorPoint: "Diacritic_up" 160 360 basechar 0
LayerCount: 2
Fore
SplineSet
311 280 m 1
 271 240 l 1
 69 240 l 1
 146 163 l 1
 116 133 l 1
 219 30 l 1
 189 0 l 1
 82 108 l 1
 112 138 l 1
 9 240 l 1
 48 280 l 1
 311 280 l 1
EndSplineSet
Substitution2: "Single Substitution lookup 19 subtable" x.ext.up
Substitution2: "Single Substitution lookup 18 subtable" x.ext.down
EndChar

StartChar: z
Encoding: 51 122 36
Width: 320
VWidth: 268
Flags: HW
AnchorPoint: "Diacritic_right" 300 140 basechar 0
AnchorPoint: "Diacritic_left" 20 140 basechar 0
AnchorPoint: "Extension_up" 120 260 basechar 0
AnchorPoint: "Extension_down" 183 20 basechar 0
AnchorPoint: "Diacritic_down" 160 -60 basechar 0
AnchorPoint: "Diacritic_up" 160 360 basechar 0
LayerCount: 2
Fore
SplineSet
220 122 m 1
 100 122 l 1
 192 29 l 1
 162 -1 l 1
 60 102 l 1
 120 162 l 1
 200 162 l 1
 111 251 l 1
 141 281 l 1
 260 162 l 1
 220 122 l 1
EndSplineSet
Substitution2: "Single Substitution lookup 19 subtable" z.ext.up
Substitution2: "Single Substitution lookup 18 subtable" z.ext.down
EndChar

StartChar: zcaron
Encoding: 72 382 37
Width: 320
VWidth: -84
Flags: HW
AnchorPoint: "Diacritic_left" 20 140 basechar 0
AnchorPoint: "Diacritic_right" 300 140 basechar 0
AnchorPoint: "Extension_up" 108 260 basechar 0
AnchorPoint: "Extension_down" 240 20 basechar 0
AnchorPoint: "Diacritic_down" 160 -60 basechar 0
AnchorPoint: "Diacritic_up" 160 360 basechar 0
LayerCount: 2
Fore
SplineSet
128 280 m 1
 254 154 l 1
 220 120 l 1
 100 120 l 1
 100 40 l 1
 260 40 l 1
 220 0 l 1
 60 0 l 1
 60 89 l 1
 130 160 l 1
 188 160 l 1
 98 250 l 1
 128 280 l 1
EndSplineSet
Substitution2: "Single Substitution lookup 19 subtable" zcaron.ext.up
Substitution2: "Single Substitution lookup 18 subtable" zcaron.ext.down
EndChar

StartChar: zdotaccent
Encoding: 71 380 38
Width: 320
VWidth: -84
Flags: HW
AnchorPoint: "Diacritic_left" 0 140 basechar 0
AnchorPoint: "Diacritic_right" 240 140 basechar 0
AnchorPoint: "Extension_up" 110 260 basechar 0
AnchorPoint: "Extension_down" 250 20 basechar 0
AnchorPoint: "Diacritic_down" 160 -60 basechar 0
AnchorPoint: "Diacritic_up" 160 360 basechar 0
LayerCount: 2
Fore
SplineSet
130 280 m 1
 130 70 l 1
 100 40 l 1
 270 40 l 1
 230 0 l 1
 50 0 l 1
 90 40 l 1
 90 240 l 1
 130 280 l 1
EndSplineSet
Substitution2: "Single Substitution lookup 19 subtable" zdotaccent.ext.up
Substitution2: "Single Substitution lookup 18 subtable" zdotaccent.ext.down
EndChar

StartChar: tcedilla
Encoding: 70 355 39
Width: 320
VWidth: -84
Flags: HW
AnchorPoint: "Diacritic_right" 220 140 basechar 0
AnchorPoint: "Diacritic_left" -20 140 basechar 0
AnchorPoint: "Extension_down" 192 20 basechar 0
AnchorPoint: "Extension_up" 260 260 basechar 0
AnchorPoint: "Diacritic_down" 160 -60 basechar 0
AnchorPoint: "Diacritic_up" 160 360 basechar 0
LayerCount: 2
Fore
SplineSet
280 280 m 1
 240 240 l 1
 80 240 l 1
 80 152 l 1
 202 30 l 1
 172 0 l 1
 40 132 l 1
 40 240 l 1
 80 280 l 1
 280 280 l 1
EndSplineSet
Substitution2: "Single Substitution lookup 19 subtable" tcedilla.ext.up
Substitution2: "Single Substitution lookup 18 subtable" tcedilla.ext.down
EndChar

StartChar: scaron
Encoding: 69 353 40
Width: 320
VWidth: -84
Flags: HW
AnchorPoint: "Diacritic_right" 300 140 basechar 0
AnchorPoint: "Diacritic_left" 20 140 basechar 0
AnchorPoint: "Extension_down" 220 20 basechar 0
AnchorPoint: "Extension_up" 220 260 basechar 0
AnchorPoint: "Diacritic_down" 160 -60 basechar 0
AnchorPoint: "Diacritic_up" 160 360 basechar 0
LayerCount: 2
Fore
SplineSet
240 280 m 1
 240 160 l 1
 200 120 l 1
 120 120 l 1
 120 40 l 1
 240 40 l 1
 200 0 l 1
 80 0 l 1
 80 120 l 1
 120 160 l 1
 200 160 l 1
 200 240 l 1
 240 280 l 1
EndSplineSet
Substitution2: "Single Substitution lookup 19 subtable" scaron.ext.up
Substitution2: "Single Substitution lookup 18 subtable" scaron.ext.down
EndChar

StartChar: rcaron
Encoding: 68 345 41
Width: 320
VWidth: -84
Flags: HW
AnchorPoint: "Diacritic_left" 40 140 basechar 0
AnchorPoint: "Diacritic_right" 240 140 basechar 0
AnchorPoint: "Extension_down" 236 20 basechar 0
AnchorPoint: "Extension_up" 74 260 basechar 0
AnchorPoint: "Diacritic_down" 160 -60 basechar 0
AnchorPoint: "Diacritic_up" 160 360 basechar 0
LayerCount: 2
Fore
SplineSet
94 280 m 1
 94 280 l 1
 190 184 l 1
 155 150 l 1
 156 40 l 1
 256 40 l 1
 216 0 l 1
 116 0 l 1
 116 120 l 1
 155 159 l 1
 64 250 l 1
 94 280 l 1
EndSplineSet
Substitution2: "Single Substitution lookup 19 subtable" rcaron.ext.up
Substitution2: "Single Substitution lookup 18 subtable" rcaron.ext.down
EndChar

StartChar: ncaron
Encoding: 66 328 42
Width: 320
VWidth: -84
Flags: HW
AnchorPoint: "Diacritic_right" 260 140 basechar 0
AnchorPoint: "Diacritic_left" 20 140 basechar 0
AnchorPoint: "Extension_down" 218 20 basechar 0
AnchorPoint: "Extension_up" 145 260 basechar 0
AnchorPoint: "Diacritic_down" 160 -60 basechar 0
AnchorPoint: "Diacritic_up" 160 360 basechar 0
LayerCount: 2
Fore
SplineSet
125 240 m 1
 165 280 l 1
 165 171 l 1
 126 132 l 1
 228 30 l 1
 198 0 l 1
 92 106 l 1
 125 140 l 1
 125 240 l 1
EndSplineSet
Substitution2: "Single Substitution lookup 19 subtable" ncaron.ext.up
Substitution2: "Single Substitution lookup 18 subtable" ncaron.ext.down
EndChar

StartChar: lcedilla
Encoding: 65 316 43
Width: 320
VWidth: -84
Flags: HW
HStem: 0 84G<135 245> 120 40<115 146> 200 80G<75 115> 200 80G<75 115>
VStem: 75 40<160 240>
AnchorPoint: "Diacritic_left" 20 140 basechar 0
AnchorPoint: "Diacritic_right" 260 140 basechar 0
AnchorPoint: "Extension_down" 235 20 basechar 0
AnchorPoint: "Extension_up" 95 260 basechar 0
AnchorPoint: "Diacritic_down" 160 -60 basechar 0
AnchorPoint: "Diacritic_up" 160 360 basechar 0
LayerCount: 2
Fore
SplineSet
115 280 m 1xe8
 115 160 l 1
 195 160 l 1
 155 120 l 1
 245 30 l 1
 215 0 l 1
 120 94 l 1
 146 120 l 1
 75 120 l 1
 75 240 l 1
 115 280 l 1xe8
EndSplineSet
Substitution2: "Single Substitution lookup 19 subtable" lcedilla.ext.up
Substitution2: "Single Substitution lookup 18 subtable" lcedilla.ext.down
EndChar

StartChar: ccedilla
Encoding: 57 231 44
Width: 320
VWidth: -84
Flags: HW
AnchorPoint: "Diacritic_right" 280 140 basechar 0
AnchorPoint: "Diacritic_left" -20 140 basechar 0
AnchorPoint: "Extension_down" 138 20 basechar 0
AnchorPoint: "Extension_up" 287 260 basechar 0
AnchorPoint: "Diacritic_down" 160 -60 basechar 0
AnchorPoint: "Diacritic_up" 160 360 basechar 0
LayerCount: 2
Fore
SplineSet
107 280 m 2
 307 280 l 1
 267 240 l 1
 127 240 l 1
 207 160 l 1
 177 130 l 1
 48 130 l 1
 148 30 l 1
 118 0 l 1
 13 105 l 1
 77 170 l 1
 137 170 l 1
 67 240 l 1
 107 280 l 2
EndSplineSet
Substitution2: "Single Substitution lookup 19 subtable" ccedilla.ext.up
Substitution2: "Single Substitution lookup 18 subtable" ccedilla.ext.down
EndChar

StartChar: ccaron
Encoding: 64 269 45
Width: 320
VWidth: -84
Flags: HW
AnchorPoint: "Diacritic_right" 220 140 basechar 0
AnchorPoint: "Diacritic_left" 0 140 basechar 0
AnchorPoint: "Extension_down" 240 20 basechar 0
AnchorPoint: "Extension_up" 240 260 basechar 0
AnchorPoint: "Diacritic_down" 160 -60 basechar 0
AnchorPoint: "Diacritic_up" 160 360 basechar 0
LayerCount: 2
Fore
SplineSet
100 280 m 1
 260 280 l 1
 220 240 l 1
 100 240 l 1
 100 40 l 1
 260 40 l 1
 220 0 l 1
 60 0 l 1
 60 240 l 1
 100 280 l 1
EndSplineSet
Substitution2: "Single Substitution lookup 19 subtable" ccaron.ext.up
Substitution2: "Single Substitution lookup 18 subtable" ccaron.ext.down
EndChar

StartChar: Z
Encoding: 23 90 46
Width: 320
VWidth: -84
Flags: HW
AnchorPoint: "Diacritic_left" 60 140 basechar 0
AnchorPoint: "Diacritic_right" 260 140 basechar 0
AnchorPoint: "Extension_down" 245 20 basechar 0
AnchorPoint: "Extension_up" 75 260 basechar 0
AnchorPoint: "Diacritic_down" 160 -60 basechar 0
AnchorPoint: "Diacritic_up" 160 360 basechar 0
LayerCount: 2
Fore
SplineSet
305 280 m 1
 65 40 l 1
 265 40 l 1
 225 0 l 1
 15 0 l 1
 255 240 l 1
 55 240 l 1
 95 280 l 1
 305 280 l 1
EndSplineSet
Ligature2: "FlipCores subtable" Z quotesingle
LCarets2: 1 0
EndChar

StartChar: bar
Encoding: 53 124 47
Width: 320
VWidth: -84
Flags: HW
AnchorPoint: "Diacritic_right" 260 140 basechar 0
AnchorPoint: "Diacritic_left" 60 140 basechar 0
AnchorPoint: "Extension_up" 160 260 basechar 0
AnchorPoint: "Extension_down" 160 20 basechar 0
AnchorPoint: "Diacritic_down" 160 -60 basechar 0
AnchorPoint: "Diacritic_up" 160 360 basechar 0
LayerCount: 2
Fore
SplineSet
180 280 m 1
 180 40 l 1
 140 0 l 1
 140 240 l 1
 180 280 l 1
EndSplineSet
LCarets2: 1 0
Ligature2: "FlipCores subtable" bar quotesingle
EndChar

StartChar: braceleft
Encoding: 52 123 48
Width: 320
VWidth: -84
Flags: HW
AnchorPoint: "Diacritic_left" 40 140 basechar 0
AnchorPoint: "Diacritic_right" 280 140 basechar 0
AnchorPoint: "Extension_up" 180 260 basechar 0
AnchorPoint: "Extension_down" 140 20 basechar 0
AnchorPoint: "Diacritic_down" 160 -60 basechar 0
AnchorPoint: "Diacritic_up" 160 360 basechar 0
LayerCount: 2
Fore
SplineSet
200 280 m 1
 200 175 l 1
 160 135 l 1
 160 40 l 1
 120 0 l 1
 120 105 l 1
 160 145 l 1
 160 240 l 1
 200 280 l 1
EndSplineSet
Ligature2: "FlipCores subtable" braceright quotesingle
LCarets2: 1 0
EndChar

StartChar: braceright
Encoding: 54 125 49
Width: 320
VWidth: -84
Flags: HW
AnchorPoint: "Diacritic_right" 280 140 basechar 0
AnchorPoint: "Diacritic_left" 40 140 basechar 0
AnchorPoint: "Extension_up" 140 260 basechar 0
AnchorPoint: "Extension_down" 180 20 basechar 0
AnchorPoint: "Diacritic_down" 160 -60 basechar 0
AnchorPoint: "Diacritic_up" 160 360 basechar 0
LayerCount: 2
Fore
SplineSet
200 185 m 1
 200 40 l 1
 160 0 l 1
 160 135 l 1
 120 95 l 1
 120 240 l 1
 160 280 l 1
 160 145 l 1
 200 185 l 1
EndSplineSet
Ligature2: "FlipCores subtable" braceleft quotesingle
LCarets2: 1 0
EndChar

StartChar: Sigma
Encoding: 77 931 50
Width: 320
VWidth: -84
Flags: HW
AnchorPoint: "Diacritic_left" 60 120 basechar 0
AnchorPoint: "Extension_up" 260 260 basechar 0
AnchorPoint: "Extension_down" 240 20 basechar 0
AnchorPoint: "Diacritic_right" 220 200 basechar 0
AnchorPoint: "Diacritic_down" 160 -60 basechar 0
AnchorPoint: "Diacritic_up" 160 360 basechar 0
LayerCount: 2
Fore
SplineSet
55 215 m 1
 120 280 l 1
 280 280 l 1
 240 240 l 1
 91 240 l 1
 190 141 l 1
 90 40 l 1
 260 40 l 1
 220 0 l 1
 40 0 l 1
 155 115 l 1
 55 215 l 1
EndSplineSet
EndChar

StartChar: zero
Encoding: 5 48 52
Width: 320
Flags: HW
HStem: 22 84G<80 89> 232 80G<212 249>
VStem: 80 37<59 102> 212 37<232 275>
AnchorPoint: "Diacritic_down" 160 -60 basechar 0
AnchorPoint: "Diacritic_up" 160 360 basechar 0
AnchorPoint: "Diacritic_left" 80 260 basechar 0
AnchorPoint: "Extension_down" 98 40 basechar 0
AnchorPoint: "Extension_up" 237 300 basechar 0
LayerCount: 2
Fore
SplineSet
117 59 m 0
 101 43 99 41 80 22 c 1
 80 66 80 85 95 108 c 0
 110 129 123 140 144 156 c 0
 167 175 187 192 200 221 c 0
 207 236 212 245 212 275 c 2
 249 312 l 1
 249 263 245 209 193 182 c 0
 167 166 151 158 137 134 c 0
 123 112 117 83 117 59 c 0
EndSplineSet
Substitution2: "Single Substitution lookup 16 subtable" zero.thou
Substitution2: "Single Substitution lookup 15 subtable" zero.hund
Substitution2: "Single Substitution lookup 14 subtable" zero.ten
EndChar

StartChar: one
Encoding: 6 49 53
Width: 320
Flags: HW
HStem: 22 84G<80 117> 232 80G<210 247>
VStem: 210 37<70 275>
AnchorPoint: "Extension_up" 235 300 basechar 0
AnchorPoint: "Diacritic_down" 160 -60 basechar 0
AnchorPoint: "Diacritic_up" 160 360 basechar 0
AnchorPoint: "Diacritic_left" 80 260 basechar 0
AnchorPoint: "Extension_down" 98 40 basechar 0
LayerCount: 2
Fore
SplineSet
210 275 m 1
 247 312 l 1
 247 70 l 1
 210 33 l 1
 210 275 l 1
80 22 m 1
 80 60 135 135 247 70 c 1
 210 33 l 1
 193 61 117 117 117 59 c 2
 80 22 l 1
EndSplineSet
Substitution2: "Single Substitution lookup 16 subtable" one.thou
Substitution2: "Single Substitution lookup 15 subtable" one.hund
Substitution2: "Single Substitution lookup 14 subtable" one.ten
EndChar

StartChar: two
Encoding: 7 50 54
Width: 320
Flags: HW
AnchorPoint: "Extension_up" 219 300 basechar 0
AnchorPoint: "Diacritic_down" 160 -60 basechar 0
AnchorPoint: "Diacritic_up" 160 360 basechar 0
AnchorPoint: "Diacritic_left" 80 260 basechar 0
AnchorPoint: "Extension_down" 98 40 basechar 0
LayerCount: 2
Fore
SplineSet
80 22 m 1
 80 22 l 1
 81 77 140 126 214 80 c 1
 214 37 l 1
 214 37 158 86 135 83 c 0
 117 80 117 66 117 59 c 2
 80 22 l 1
231 312 m 1
 231 257 212 240 192 217 c 0
 172 194 163 184 166 165 c 0
 172 124 251 74 251 74 c 1
 214 37 l 1
 142 109 113 116 129 156 c 0
 144 190 194 188 194 275 c 1
 231 312 l 1
EndSplineSet
Substitution2: "Single Substitution lookup 16 subtable" two.thou
Substitution2: "Single Substitution lookup 15 subtable" two.hund
Substitution2: "Single Substitution lookup 14 subtable" two.ten
EndChar

StartChar: three
Encoding: 8 51 55
Width: 320
Flags: HW
HStem: 22 84G<80 117> 113 80G<97 170> 232 80G<203 240>
VStem: 80 37<59 73> 203 37<251 275>
AnchorPoint: "Extension_up" 228 300 basechar 0
AnchorPoint: "Diacritic_down" 160 -60 basechar 0
AnchorPoint: "Diacritic_up" 160 360 basechar 0
AnchorPoint: "Diacritic_left" 80 260 basechar 0
AnchorPoint: "Extension_down" 98 40 basechar 0
LayerCount: 2
Fore
SplineSet
117 59 m 2
 80 22 l 1
 80 85 114 129 204 86 c 0
 204 48 203 38 203 38 c 1
 148 89 117 122 117 59 c 2
97 156 m 1
 114 173 117 176 134 193 c 0
 203 193 203 229 203 275 c 2
 240 312 l 1
 240 242 212 225 194 207 c 0
 167 180 137 156 97 156 c 1
97 156 m 1
 134 193 l 1
 206 170 240 123 240 75 c 2
 203 38 l 1
 187 81 205 131 97 156 c 1
EndSplineSet
Substitution2: "Single Substitution lookup 16 subtable" three.thou
Substitution2: "Single Substitution lookup 15 subtable" three.hund
Substitution2: "Single Substitution lookup 14 subtable" three.ten
EndChar

StartChar: four
Encoding: 9 52 56
Width: 320
Flags: HW
AnchorPoint: "Extension_up" 212 300 basechar 0
AnchorPoint: "Diacritic_down" 160 -60 basechar 0
AnchorPoint: "Diacritic_up" 160 360 basechar 0
AnchorPoint: "Diacritic_left" 80 260 basechar 0
AnchorPoint: "Extension_down" 98 40 basechar 0
LayerCount: 2
Fore
SplineSet
117 197 m 1
 185 197 187 222 187 275 c 2
 223 312 l 1
 223 194 116 161 80 161 c 1
 80 161 117 185 117 197 c 1
80 160 m 1
 117 197 l 1
 117 59 l 1
 80 22 l 1
 80 160 l 1
EndSplineSet
Substitution2: "Single Substitution lookup 16 subtable" four.thou
Substitution2: "Single Substitution lookup 15 subtable" four.hund
Substitution2: "Single Substitution lookup 14 subtable" four.ten
EndChar

StartChar: five
Encoding: 10 53 57
Width: 320
Flags: HW
AnchorPoint: "Extension_up" 202 300 basechar 0
AnchorPoint: "Diacritic_down" 160 -60 basechar 0
AnchorPoint: "Diacritic_up" 160 360 basechar 0
AnchorPoint: "Diacritic_left" 80 260 basechar 0
AnchorPoint: "Extension_down" 98 40 basechar 0
LayerCount: 2
Fore
SplineSet
80 142 m 1
 117 179 l 1
 117 59 l 1
 80 22 l 1
 80 142 l 1
177 275 m 1
 214 312 l 1
 214 72 l 1
 177 35 l 1
 177 275 l 1
117 179 m 1
 130 131 117 116 214 72 c 1
 177 35 l 2
 134 68 95 103 80 142 c 2
 117 179 l 1
EndSplineSet
Substitution2: "Single Substitution lookup 16 subtable" five.thou
Substitution2: "Single Substitution lookup 15 subtable" five.hund
Substitution2: "Single Substitution lookup 14 subtable" five.ten
EndChar

StartChar: six
Encoding: 11 54 58
Width: 320
Flags: HW
HStem: 22 84G<80 117> 115 80G<157 254> 174 84G<172 179> 232 80G<212 249>
VStem: 212 37<251 275>
AnchorPoint: "Extension_up" 237 300 basechar 0
AnchorPoint: "Diacritic_down" 160 -60 basechar 0
AnchorPoint: "Diacritic_up" 160 360 basechar 0
AnchorPoint: "Diacritic_left" 60 260 basechar 0
AnchorPoint: "Extension_down" 98 40 basechar 0
LayerCount: 2
Fore
SplineSet
80 22 m 1x88
 80 111 l 1
 117 148 l 1
 117 59 l 1
 80 22 l 1x88
212 275 m 2
 249 312 l 1x98
 249 222 200 203 157 174 c 1xa8
 188 204 212 208 212 275 c 2
80 111 m 2
 117 148 l 1
 144 98 162 57 180 46 c 0
 234 13 249 114 157 174 c 1
 181 195 l 1xc8
 326 119 240 11 162 37 c 0
 123 50 109 74 80 111 c 2
EndSplineSet
Substitution2: "Single Substitution lookup 16 subtable" six.thou
Substitution2: "Single Substitution lookup 15 subtable" six.hund
Substitution2: "Single Substitution lookup 14 subtable" six.ten
EndChar

StartChar: seven
Encoding: 12 55 59
Width: 320
Flags: HW
AnchorPoint: "Extension_up" 223 300 basechar 0
AnchorPoint: "Diacritic_down" 160 -60 basechar 0
AnchorPoint: "Diacritic_up" 160 360 basechar 0
AnchorPoint: "Diacritic_left" 80 260 basechar 0
AnchorPoint: "Extension_down" 98 40 basechar 0
LayerCount: 2
Fore
SplineSet
80 22 m 1
 80 157 126 283 235 117 c 1
 198 80 l 1
 114 200 117 233 117 59 c 1
 80 22 l 1
198 275 m 1
 235 312 l 1
 235 117 l 1
 198 80 l 1
 198 275 l 1
EndSplineSet
Substitution2: "Single Substitution lookup 16 subtable" seven.thou
Substitution2: "Single Substitution lookup 15 subtable" seven.hund
Substitution2: "Single Substitution lookup 14 subtable" seven.ten
EndChar

StartChar: eight
Encoding: 13 56 60
Width: 320
Flags: HW
AnchorPoint: "Extension_up" 257 300 basechar 0
AnchorPoint: "Diacritic_down" 160 -60 basechar 0
AnchorPoint: "Diacritic_up" 160 360 basechar 0
AnchorPoint: "Diacritic_left" 140 260 basechar 0
AnchorPoint: "Extension_down" 96 40 basechar 0
LayerCount: 2
Fore
SplineSet
232 146 m 1
 72 146 l 1
 109 182 l 1
 268 182 l 1
 232 146 l 1
268 312 m 1
 268 208 185 190 91 165 c 1
 91 165 99 172 109 182 c 0
 179 201 231 197 231 275 c 2
 268 312 l 1
78 22 m 1
 78 126 154 137 248 162 c 1
 248 162 241 154 231 144 c 0
 161 125 115 137 115 59 c 2
 78 22 l 1
EndSplineSet
Substitution2: "Single Substitution lookup 16 subtable" eight.thou
Substitution2: "Single Substitution lookup 15 subtable" eight.hund
Substitution2: "Single Substitution lookup 14 subtable" eight.ten
EndChar

StartChar: nine
Encoding: 14 57 61
Width: 320
Flags: HW
HStem: 22 84G<80 117> 232 80G<215 251>
VStem: 80 37<59 96> 215 37<195 275>
AnchorPoint: "Extension_up" 239 300 basechar 0
AnchorPoint: "Diacritic_down" 160 -60 basechar 0
AnchorPoint: "Diacritic_up" 160 360 basechar 0
AnchorPoint: "Diacritic_left" 100 260 basechar 0
AnchorPoint: "Extension_down" 98 40 basechar 0
LayerCount: 2
Fore
SplineSet
215 275 m 1
 251 312 l 1
 251 82 260 54 197 31 c 0
 143 11 79 105 193 157 c 1
 161 102 143 39 190 39 c 0
 214 39 215 133 215 275 c 1
 215 275 l 1
167 131 m 0
 127 131 117 136 117 59 c 2
 80 22 l 1
 80 112 112 157 193 157 c 1
 180 144 182 146 167 131 c 0
EndSplineSet
Substitution2: "Single Substitution lookup 16 subtable" nine.thou
Substitution2: "Single Substitution lookup 15 subtable" nine.hund
Substitution2: "Single Substitution lookup 14 subtable" nine.ten
EndChar

StartChar: b.flip
Encoding: 110 -1 62
Width: 320
Flags: W
HStem: 0 40<81 226> 260 20G<141 161> 260 20G<141 161>
VStem: 121 40<145 240>
AnchorPoint: "Diacritic_right" 280 140 basechar 0
AnchorPoint: "Diacritic_left" 60 140 basechar 0
AnchorPoint: "Extension_up" 141 260 basechar 0
AnchorPoint: "Extension_down" 61 20 basechar 0
AnchorPoint: "Diacritic_down" 160 -60 basechar 0
AnchorPoint: "Diacritic_up" 160 360 basechar 0
LayerCount: 2
Fore
SplineSet
41 0 m 1xd0
 81 40 l 1
 226 40 l 1
 160 134 l 1
 157 132 l 1
 150 124 l 2
 142 116 134 108 126 100 c 2
 121 95 l 1
 121 240 l 1
 161 280 l 1
 161 145 l 1
 186 170 l 1
 279 38 l 1
 241 0 l 1
 41 0 l 1xd0
EndSplineSet
Ligature2: "FlipCores subtable" b quotesingle
LCarets2: 1 0
EndChar

StartChar: c.flip
Encoding: 111 -1 63
Width: 320
Flags: W
HStem: 0 21G<220 240> 240 40<100 220>
VStem: 220 40<40 240>
AnchorPoint: "Diacritic_right" 320 140 basechar 0
AnchorPoint: "Diacritic_left" 100 140 basechar 0
AnchorPoint: "Extension_up" 80 260 basechar 0
AnchorPoint: "Extension_down" 240 20 basechar 0
AnchorPoint: "Diacritic_down" 160 -60 basechar 0
AnchorPoint: "Diacritic_up" 160 360 basechar 0
LayerCount: 2
Fore
SplineSet
220 0 m 1
 220 240 l 1
 60 240 l 1
 100 280 l 1
 260 280 l 1
 260 40 l 1
 220 0 l 1
EndSplineSet
Ligature2: "FlipCores subtable" c quotesingle
LCarets2: 1 0
EndChar

StartChar: d.flip
Encoding: 112 -1 64
Width: 320
Flags: W
HStem: 0 40<100 220> 260 20G<200 220> 260 20G<200 220>
VStem: 180 40<145 240> 220 40<40 135>
AnchorPoint: "Diacritic_right" 320 140 basechar 0
AnchorPoint: "Diacritic_left" 100 140 basechar 0
AnchorPoint: "Extension_up" 200 260 basechar 0
AnchorPoint: "Extension_down" 80 20 basechar 0
AnchorPoint: "Diacritic_down" 160 -60 basechar 0
AnchorPoint: "Diacritic_up" 160 360 basechar 0
LayerCount: 2
Fore
SplineSet
220 0 m 1xc8
 60 0 l 1
 100 40 l 1
 220 40 l 1
 220 135 l 1xc8
 180 95 l 1
 180 240 l 1xd0
 220 280 l 1xc8
 220 145 l 1xd0
 260 185 l 1
 260 40 l 1
 220 0 l 1xc8
EndSplineSet
Ligature2: "FlipCores subtable" d quotesingle
LCarets2: 1 0
EndChar

StartChar: f.flip
Encoding: 113 -1 65
Width: 320
Flags: W
HStem: 0 40<80 240> 120 40<160 240> 260 20G<140 160> 260 20G<140 160>
VStem: 120 40<160 240> 240 40<40 120>
AnchorPoint: "Diacritic_right" 320 140 basechar 0
AnchorPoint: "Diacritic_left" 60 140 basechar 0
AnchorPoint: "Extension_up" 140 260 basechar 0
AnchorPoint: "Extension_down" 60 20 basechar 0
AnchorPoint: "Diacritic_down" 160 -60 basechar 0
AnchorPoint: "Diacritic_up" 160 360 basechar 0
LayerCount: 2
Fore
SplineSet
80 40 m 1xec
 240 40 l 1
 240 120 l 1
 120 120 l 1
 120 240 l 1
 160 280 l 1
 160 160 l 1
 280 160 l 1
 280 40 l 1
 240 0 l 1
 40 0 l 1
 80 40 l 1xec
EndSplineSet
Ligature2: "FlipCores subtable" f quotesingle
LCarets2: 1 0
EndChar

StartChar: g.flip
Encoding: 114 -1 66
Width: 320
VWidth: 268
Flags: W
HStem: 0 40<49 257> 260 20G<44 80.1345> 260 20G<44 80.1345>
AnchorPoint: "Diacritic_right" 300 140 basechar 0
AnchorPoint: "Diacritic_left" 40 140 basechar 0
AnchorPoint: "Extension_up" 44 260 basechar 0
AnchorPoint: "Extension_down" 29 20 basechar 0
AnchorPoint: "Diacritic_down" 160 -60 basechar 0
AnchorPoint: "Diacritic_up" 160 360 basechar 0
LayerCount: 2
Fore
SplineSet
49 40 m 1xc0
 257 40 l 1
 165 156 l 1
 135 126 l 1
 34 250 l 1
 64 280 l 1
 160 161 l 1
 190 190 l 1
 311 40 l 1
 272 0 l 1
 9 0 l 1
 49 40 l 1xc0
EndSplineSet
Ligature2: "FlipCores subtable" g quotesingle
LCarets2: 1 0
EndChar

StartChar: h.flip
Encoding: 115 -1 67
Width: 320
VWidth: 268
Flags: W
HStem: 0 21G<210 230> 140 40<145 210> 260 20G<90 110> 260 20G<90 110>
VStem: 70 40<145 240> 210 40<40 140>
AnchorPoint: "Diacritic_right" 300 140 basechar 0
AnchorPoint: "Diacritic_left" 20 140 basechar 0
AnchorPoint: "Extension_up" 90 260 basechar 0
AnchorPoint: "Extension_down" 230 20 basechar 0
AnchorPoint: "Diacritic_down" 160 -60 basechar 0
AnchorPoint: "Diacritic_up" 160 360 basechar 0
LayerCount: 2
Fore
SplineSet
210 0 m 1xec
 210 140 l 1
 115 140 l 1
 70 95 l 1
 70 240 l 1
 110 280 l 1
 110 145 l 1
 145 180 l 1
 250 180 l 1
 250 40 l 1
 210 0 l 1xec
EndSplineSet
Ligature2: "FlipCores subtable" h quotesingle
LCarets2: 1 0
EndChar

StartChar: j.flip
Encoding: 116 -1 68
Width: 320
VWidth: 268
Flags: W
HStem: 0 40<80 200> 240 40<100 230>
VStem: 200 40<40 210>
AnchorPoint: "Diacritic_right" 320 140 basechar 0
AnchorPoint: "Diacritic_left" 120 140 basechar 0
AnchorPoint: "Extension_up" 80 260 basechar 0
AnchorPoint: "Extension_down" 60 20 basechar 0
AnchorPoint: "Diacritic_down" 160 -60 basechar 0
AnchorPoint: "Diacritic_up" 160 360 basechar 0
LayerCount: 2
Fore
SplineSet
200 0 m 1
 40 0 l 1
 80 40 l 1
 200 40 l 1
 200 210 l 1
 230 240 l 1
 60 240 l 1
 100 280 l 1
 280 280 l 1
 240 240 l 1
 240 40 l 1
 200 0 l 1
EndSplineSet
Ligature2: "FlipCores subtable" j quotesingle
LCarets2: 1 0
EndChar

StartChar: k.flip
Encoding: 117 -1 69
Width: 320
VWidth: 268
Flags: W
HStem: 0 40<49 257> 260 20G<96 122> 260 20G<96 122>
AnchorPoint: "Diacritic_right" 320 140 basechar 0
AnchorPoint: "Diacritic_left" 80 140 basechar 0
AnchorPoint: "Extension_up" 96 260 basechar 0
AnchorPoint: "Extension_down" 29 20 basechar 0
AnchorPoint: "Diacritic_down" 160 -60 basechar 0
AnchorPoint: "Diacritic_up" 160 360 basechar 0
LayerCount: 2
Fore
SplineSet
272 0 m 1xc0
 9 0 l 1
 49 40 l 1
 257 40 l 1
 86 250 l 1
 116 280 l 1
 122 273 l 1
 311 40 l 1
 272 0 l 1xc0
EndSplineSet
Ligature2: "FlipCores subtable" k quotesingle
LCarets2: 1 0
EndChar

StartChar: l.flip
Encoding: 118 -1 70
Width: 320
VWidth: 268
Flags: W
HStem: 0 21G<200 220> 140 40<160 200> 240 40<100 210>
VStem: 200 40<40 140>
AnchorPoint: "Diacritic_right" 300 140 basechar 0
AnchorPoint: "Diacritic_left" 20 140 basechar 0
AnchorPoint: "Extension_up" 80 260 basechar 0
AnchorPoint: "Extension_down" 220 20 basechar 0
AnchorPoint: "Diacritic_down" 160 -60 basechar 0
AnchorPoint: "Diacritic_up" 160 360 basechar 0
LayerCount: 2
Fore
SplineSet
200 0 m 1
 200 140 l 1
 111 140 l 1
 210 240 l 1
 60 240 l 1
 100 280 l 1
 260 280 l 1
 160 180 l 1
 240 180 l 1
 240 40 l 1
 200 0 l 1
EndSplineSet
Ligature2: "FlipCores subtable" l quotesingle
LCarets2: 1 0
EndChar

StartChar: m.flip
Encoding: 119 -1 71
Width: 320
VWidth: 268
Flags: W
HStem: 0 21G<195 215> 260 20G<95 135> 260 20G<95 135>
VStem: 195 40<40 140>
AnchorPoint: "Diacritic_right" 300 140 basechar 0
AnchorPoint: "Diacritic_left" 60 140 basechar 0
AnchorPoint: "Extension_up" 95 260 basechar 0
AnchorPoint: "Extension_down" 215 20 basechar 0
AnchorPoint: "Diacritic_down" 160 -60 basechar 0
AnchorPoint: "Diacritic_up" 160 360 basechar 0
LayerCount: 2
Fore
SplineSet
195 0 m 1xd0
 195 140 l 1
 85 250 l 1
 115 280 l 1
 235 160 l 1
 235 40 l 1
 195 0 l 1xd0
EndSplineSet
Ligature2: "FlipCores subtable" m quotesingle
LCarets2: 1 0
EndChar

StartChar: n.flip
Encoding: 120 -1 72
Width: 320
VWidth: 268
Flags: W
HStem: 0 21G<195 215> 260 20G<95 128.898> 260 20G<95 128.898>
VStem: 195 40<40 151>
AnchorPoint: "Diacritic_right" 300 140 basechar 0
AnchorPoint: "Diacritic_left" 60 140 basechar 0
AnchorPoint: "Extension_up" 95 260 basechar 0
AnchorPoint: "Extension_down" 215 20 basechar 0
AnchorPoint: "Diacritic_down" 160 -60 basechar 0
AnchorPoint: "Diacritic_up" 160 360 basechar 0
LayerCount: 2
Fore
SplineSet
195 0 m 2xd0
 195 151 l 1
 171 126 l 1
 85 250 l 1
 115 280 l 1
 197 162 l 1
 235 200 l 1
 235 40 l 1
 195 0 l 2xd0
EndSplineSet
Ligature2: "FlipCores subtable" n quotesingle
LCarets2: 1 0
EndChar

StartChar: p.flip
Encoding: 121 -1 73
Width: 320
VWidth: 268
Flags: W
HStem: 0 40<80 220> 260 20G<160 180> 260 20G<160 180>
VStem: 140 40<140 240>
AnchorPoint: "Diacritic_right" 300 140 basechar 0
AnchorPoint: "Diacritic_left" 60 140 basechar 0
AnchorPoint: "Extension_up" 160 260 basechar 0
AnchorPoint: "Extension_down" 60 20 basechar 0
AnchorPoint: "Diacritic_down" 160 -60 basechar 0
AnchorPoint: "Diacritic_up" 160 360 basechar 0
LayerCount: 2
Fore
SplineSet
220 40 m 1xd0
 140 120 l 1
 140 240 l 1
 180 280 l 1
 180 140 l 1
 280 40 l 1
 240 0 l 1
 40 0 l 1
 80 40 l 1
 220 40 l 1xd0
EndSplineSet
Ligature2: "FlipCores subtable" p quotesingle
LCarets2: 1 0
EndChar

StartChar: r.flip
Encoding: 122 -1 74
Width: 320
VWidth: 268
Flags: W
HStem: 0 21G<210 250> 240 40<100 210>
AnchorPoint: "Diacritic_right" 260 140 basechar 0
AnchorPoint: "Diacritic_left" 20 140 basechar 0
AnchorPoint: "Extension_up" 80 260 basechar 0
AnchorPoint: "Extension_down" 250 20 basechar 0
AnchorPoint: "Diacritic_down" 160 -60 basechar 0
AnchorPoint: "Diacritic_up" 160 360 basechar 0
LayerCount: 2
Fore
SplineSet
230 0 m 1
 100 130 l 1
 210 240 l 1
 60 240 l 1
 100 280 l 1
 260 280 l 1
 135 155 l 1
 260 30 l 1
 230 0 l 1
EndSplineSet
Ligature2: "FlipCores subtable" r quotesingle
LCarets2: 1 0
EndChar

StartChar: s.flip
Encoding: 123 -1 75
Width: 320
VWidth: 268
Flags: W
HStem: 0 21G<50 70> 120 40<90 210> 260 20G<130 170> 260 20G<130 170>
VStem: 50 40<40 120>
AnchorPoint: "Diacritic_right" 300 140 basechar 0
AnchorPoint: "Diacritic_left" 20 140 basechar 0
AnchorPoint: "Extension_up" 130 260 basechar 0
AnchorPoint: "Extension_down" 70 20 basechar 0
AnchorPoint: "Diacritic_down" 160 -60 basechar 0
AnchorPoint: "Diacritic_up" 160 360 basechar 0
LayerCount: 2
Fore
SplineSet
50 0 m 2xe8
 50 120 l 1
 90 160 l 1
 210 160 l 1
 120 250 l 1
 150 280 l 1
 270 160 l 1
 230 120 l 1
 90 120 l 1
 90 40 l 1
 50 0 l 2xe8
EndSplineSet
Ligature2: "FlipCores subtable" s quotesingle
LCarets2: 1 0
EndChar

StartChar: t.flip
Encoding: 124 -1 76
Width: 320
VWidth: 268
Flags: W
HStem: 0 40<100 220> 260 20G<240 260> 260 20G<240 260>
VStem: 220 40<40 240>
AnchorPoint: "Diacritic_right" 320 140 basechar 0
AnchorPoint: "Diacritic_left" 100 140 basechar 0
AnchorPoint: "Extension_up" 240 260 basechar 0
AnchorPoint: "Extension_down" 80 20 basechar 0
AnchorPoint: "Diacritic_down" 160 -60 basechar 0
AnchorPoint: "Diacritic_up" 160 360 basechar 0
LayerCount: 2
Fore
SplineSet
220 0 m 1xd0
 60 0 l 1
 100 40 l 1
 220 40 l 1
 220 240 l 1
 260 280 l 1
 260 40 l 1
 220 0 l 1xd0
EndSplineSet
Ligature2: "FlipCores subtable" t quotesingle
LCarets2: 1 0
EndChar

StartChar: v.flip
Encoding: 125 -1 77
Width: 320
VWidth: 268
Flags: W
HStem: 0 40<80 240> 100 40<180 209> 260 20G<160 180> 260 20G<160 180>
VStem: 140 40<140 240> 240 40<40 130>
AnchorPoint: "Diacritic_right" 320 140 basechar 0
AnchorPoint: "Diacritic_left" 60 140 basechar 0
AnchorPoint: "Extension_up" 160 260 basechar 0
AnchorPoint: "Extension_down" 60 20 basechar 0
AnchorPoint: "Diacritic_down" 160 -60 basechar 0
AnchorPoint: "Diacritic_up" 160 360 basechar 0
LayerCount: 2
Fore
SplineSet
80 40 m 1xec
 240 40 l 1
 240 130 l 1
 209 100 l 1
 140 100 l 1
 140 240 l 1
 180 280 l 1
 180 140 l 1
 240 140 l 1
 280 180 l 1
 280 40 l 1
 240 0 l 1
 40 0 l 1
 80 40 l 1xec
EndSplineSet
Ligature2: "FlipCores subtable" v quotesingle
LCarets2: 1 0
EndChar

StartChar: x.flip
Encoding: 126 -1 78
Width: 320
VWidth: 268
Flags: W
HStem: 0 40<49 251> 260 20G<111 150.815> 260 20G<111 150.815>
AnchorPoint: "Diacritic_right" 320 140 basechar 0
AnchorPoint: "Diacritic_left" 60 140 basechar 0
AnchorPoint: "Extension_up" 111 260 basechar 0
AnchorPoint: "Extension_down" 29 20 basechar 0
AnchorPoint: "Diacritic_down" 160 -60 basechar 0
AnchorPoint: "Diacritic_up" 160 360 basechar 0
LayerCount: 2
Fore
SplineSet
9 0 m 1xc0
 49 40 l 1
 251 40 l 1
 174 117 l 1
 204 147 l 1
 101 250 l 1
 131 280 l 1
 238 172 l 1
 208 142 l 1
 311 40 l 1
 272 0 l 1
 9 0 l 1xc0
EndSplineSet
Ligature2: "FlipCores subtable" x quotesingle
LCarets2: 1 0
EndChar

StartChar: z.flip
Encoding: 127 -1 79
Width: 320
VWidth: 268
Flags: W
HStem: -1 21G<159 199> 118 40<120 200> 261 20G<138 177.806> 261 20G<138 177.806>
AnchorPoint: "Diacritic_right" 300 140 basechar 0
AnchorPoint: "Diacritic_left" 20 140 basechar 0
AnchorPoint: "Extension_up" 137 260 basechar 0
AnchorPoint: "Extension_down" 200 20 basechar 0
AnchorPoint: "Diacritic_down" 160 -60 basechar 0
AnchorPoint: "Diacritic_up" 160 360 basechar 0
LayerCount: 2
Fore
SplineSet
100 158 m 1xe0
 220 158 l 1
 128 251 l 1
 158 281 l 1
 260 178 l 1
 200 118 l 1
 120 118 l 1
 209 29 l 1
 179 -1 l 1
 60 118 l 1
 100 158 l 1xe0
EndSplineSet
Ligature2: "FlipCores subtable" z quotesingle
LCarets2: 1 0
EndChar

StartChar: ccedilla.flip
Encoding: 128 -1 80
Width: 320
VWidth: -84
Flags: W
HStem: 0 40<53 193> 110 40<183 243> 260 20G<182 222> 260 20G<182 222>
AnchorPoint: "Diacritic_right" 340 140 basechar 0
AnchorPoint: "Diacritic_left" 40 140 basechar 0
AnchorPoint: "Extension_up" 182 260 basechar 0
AnchorPoint: "Extension_down" 33 20 basechar 0
AnchorPoint: "Diacritic_down" 160 -60 basechar 0
AnchorPoint: "Diacritic_up" 160 360 basechar 0
LayerCount: 2
Fore
SplineSet
213 0 m 2xe0
 13 0 l 1
 53 40 l 1
 193 40 l 1
 113 120 l 1
 143 150 l 1
 272 150 l 1
 172 250 l 1
 202 280 l 1
 307 175 l 1
 243 110 l 1
 183 110 l 1
 253 40 l 1
 213 0 l 2xe0
EndSplineSet
Ligature2: "FlipCores subtable" ccedilla quotesingle
LCarets2: 1 0
EndChar

StartChar: ccaron.flip
Encoding: 129 -1 81
Width: 320
VWidth: -84
Flags: W
HStem: 0 40<100 220> 240 40<100 220>
VStem: 220 40<40 240>
AnchorPoint: "Diacritic_right" 320 140 basechar 0
AnchorPoint: "Diacritic_left" 100 140 basechar 0
AnchorPoint: "Extension_up" 80 260 basechar 0
AnchorPoint: "Extension_down" 80 20 basechar 0
AnchorPoint: "Diacritic_down" 160 -60 basechar 0
AnchorPoint: "Diacritic_up" 160 360 basechar 0
LayerCount: 2
Fore
SplineSet
220 0 m 1
 60 0 l 1
 100 40 l 1
 220 40 l 1
 220 240 l 1
 60 240 l 1
 100 280 l 1
 260 280 l 1
 260 40 l 1
 220 0 l 1
EndSplineSet
Ligature2: "FlipCores subtable" ccaron quotesingle
LCarets2: 1 0
EndChar

StartChar: lcedilla.flip
Encoding: 130 -1 82
Width: 320
VWidth: -84
Flags: W
HStem: 0 21G<205 225> 120 40<174 205> 260 20G<85 125.213> 260 20G<85 125.213>
VStem: 205 40<40 120>
AnchorPoint: "Diacritic_right" 320 140 basechar 0
AnchorPoint: "Diacritic_left" 40 140 basechar 0
AnchorPoint: "Extension_up" 85 260 basechar 0
AnchorPoint: "Extension_down" 225 20 basechar 0
AnchorPoint: "Diacritic_down" 160 -60 basechar 0
AnchorPoint: "Diacritic_up" 160 360 basechar 0
LayerCount: 2
Fore
SplineSet
205 0 m 1xe8
 205 120 l 1
 125 120 l 1
 165 160 l 1
 75 250 l 1
 105 280 l 1
 200 186 l 1
 174 160 l 1
 245 160 l 1
 245 40 l 1
 205 0 l 1xe8
EndSplineSet
Ligature2: "FlipCores subtable" lcedilla quotesingle
LCarets2: 1 0
EndChar

StartChar: ncaron.flip
Encoding: 131 -1 83
Width: 320
VWidth: -84
Flags: W
HStem: 0 21G<155 175> 260 20G<102 142> 260 20G<102 142>
VStem: 155 40<40 109>
AnchorPoint: "Diacritic_right" 280 140 basechar 0
AnchorPoint: "Diacritic_left" 80 140 basechar 0
AnchorPoint: "Extension_up" 102 260 basechar 0
AnchorPoint: "Extension_down" 175 20 basechar 0
AnchorPoint: "Diacritic_down" 160 -60 basechar 0
AnchorPoint: "Diacritic_up" 160 360 basechar 0
LayerCount: 2
Fore
SplineSet
195 40 m 1xd0
 155 0 l 1
 155 109 l 1
 194 148 l 1
 92 250 l 1
 122 280 l 1
 228 174 l 1
 195 140 l 1
 195 40 l 1xd0
EndSplineSet
Ligature2: "FlipCores subtable" ncaron quotesingle
LCarets2: 1 0
EndChar

StartChar: rcaron.flip
Encoding: 132 -1 84
Width: 320
VWidth: -84
Flags: W
HStem: 0 21G<206 246> 240 40<104 164>
VStem: 164 40<160 240>
AnchorPoint: "Diacritic_right" 280 140 basechar 0
AnchorPoint: "Diacritic_left" 60 140 basechar 0
AnchorPoint: "Extension_up" 84 260 basechar 0
AnchorPoint: "Extension_down" 246 20 basechar 0
AnchorPoint: "Diacritic_down" 160 -60 basechar 0
AnchorPoint: "Diacritic_up" 160 360 basechar 0
LayerCount: 2
Fore
SplineSet
226 0 m 1
 130 96 l 1
 164 130 l 1
 164 240 l 1
 64 240 l 1
 104 280 l 1
 204 280 l 1
 204 160 l 1
 165 121 l 1
 256 30 l 1
 226 0 l 1
EndSplineSet
Ligature2: "FlipCores subtable" rcaron quotesingle
LCarets2: 1 0
EndChar

StartChar: scaron.flip
Encoding: 133 -1 85
Width: 320
VWidth: -84
Flags: W
HStem: 0 21G<80 100> 120 40<120 200> 240 40<120 200>
VStem: 80 40<40 120> 200 40<160 240>
AnchorPoint: "Diacritic_left" 0 140 basechar 0
AnchorPoint: "Diacritic_right" 300 140 basechar 0
AnchorPoint: "Extension_up" 100 260 basechar 0
AnchorPoint: "Extension_down" 100 20 basechar 0
AnchorPoint: "Diacritic_down" 160 -60 basechar 0
AnchorPoint: "Diacritic_up" 160 360 basechar 0
LayerCount: 2
Fore
SplineSet
80 0 m 1
 80 120 l 1
 120 160 l 1
 200 160 l 1
 200 240 l 1
 80 240 l 1
 120 280 l 1
 240 280 l 1
 240 160 l 1
 200 120 l 1
 120 120 l 1
 120 40 l 1
 80 0 l 1
EndSplineSet
Ligature2: "FlipCores subtable" scaron quotesingle
LCarets2: 1 0
EndChar

StartChar: tcedilla.flip
Encoding: 134 -1 86
Width: 320
VWidth: -84
Flags: W
HStem: 0 40<80 240> 260 20G<128 168> 260 20G<128 168>
VStem: 240 40<40 128>
AnchorPoint: "Diacritic_right" 320 140 basechar 0
AnchorPoint: "Diacritic_left" 100 140 basechar 0
AnchorPoint: "Extension_up" 128 260 basechar 0
AnchorPoint: "Extension_down" 60 20 basechar 0
AnchorPoint: "Diacritic_down" 160 -60 basechar 0
AnchorPoint: "Diacritic_up" 160 360 basechar 0
LayerCount: 2
Fore
SplineSet
40 0 m 1xd0
 80 40 l 1
 240 40 l 1
 240 128 l 1
 118 250 l 1
 148 280 l 1
 280 148 l 1
 280 40 l 1
 240 0 l 1
 40 0 l 1xd0
EndSplineSet
Ligature2: "FlipCores subtable" tcedilla quotesingle
LCarets2: 1 0
EndChar

StartChar: zdotaccent.flip
Encoding: 135 -1 87
Width: 320
VWidth: -84
Flags: W
HStem: 0 21G<190 210> 240 40<90 220>
VStem: 190 40<40 210>
AnchorPoint: "Diacritic_right" 300 140 basechar 0
AnchorPoint: "Diacritic_left" 80 140 basechar 0
AnchorPoint: "Extension_up" 70 260 basechar 0
AnchorPoint: "Extension_down" 210 20 basechar 0
AnchorPoint: "Diacritic_down" 160 -60 basechar 0
AnchorPoint: "Diacritic_up" 160 360 basechar 0
LayerCount: 2
Fore
SplineSet
190 0 m 1
 190 210 l 1
 220 240 l 1
 50 240 l 1
 90 280 l 1
 270 280 l 1
 230 240 l 1
 230 40 l 1
 190 0 l 1
EndSplineSet
Ligature2: "FlipCores subtable" zdotaccent quotesingle
LCarets2: 1 0
EndChar

StartChar: zcaron.flip
Encoding: 136 -1 88
Width: 320
VWidth: -84
Flags: W
HStem: 0 21G<172 212> 120 40<132 190> 240 40<100 220>
VStem: 220 40<191 240>
AnchorPoint: "Diacritic_left" 20 140 basechar 0
AnchorPoint: "Diacritic_right" 300 140 basechar 0
AnchorPoint: "Extension_up" 80 260 basechar 0
AnchorPoint: "Extension_down" 212 20 basechar 0
AnchorPoint: "Diacritic_down" 160 -60 basechar 0
AnchorPoint: "Diacritic_up" 160 360 basechar 0
LayerCount: 2
Fore
SplineSet
192 0 m 1
 66 126 l 1
 100 160 l 1
 220 160 l 1
 220 240 l 1
 60 240 l 1
 100 280 l 1
 260 280 l 1
 260 191 l 1
 190 120 l 1
 132 120 l 1
 222 30 l 1
 192 0 l 1
EndSplineSet
Ligature2: "FlipCores subtable" zcaron quotesingle
LCarets2: 1 0
EndChar

StartChar: Sigma.flip
Encoding: 137 -1 89
Width: 320
VWidth: -84
Flags: W
HStem: 0 40<80 200> 240 40<100 230>
AnchorPoint: "Diacritic_right" 260 120 basechar 0
AnchorPoint: "Extension_down" 60 20 basechar 0
AnchorPoint: "Extension_up" 80 260 basechar 0
AnchorPoint: "Diacritic_left" 100 200 basechar 0
AnchorPoint: "Diacritic_down" 160 -60 basechar 0
AnchorPoint: "Diacritic_up" 160 360 basechar 0
LayerCount: 2
Fore
SplineSet
265 65 m 1
 200 0 l 1
 40 0 l 1
 80 40 l 1
 229 40 l 1
 130 139 l 1
 230 240 l 1
 60 240 l 1
 100 280 l 1
 280 280 l 1
 165 165 l 1
 265 65 l 1
EndSplineSet
Ligature2: "FlipCores subtable" Sigma quotesingle
LCarets2: 1 0
EndChar

StartChar: ddotbelow.flip
Encoding: 138 -1 90
Width: 320
VWidth: -84
Flags: W
HStem: 0 40<80 240> 260 20G<139.645 173.068> 260 20G<139.645 173.068>
VStem: 240 40<40 151>
AnchorPoint: "Diacritic_left" 120 140 basechar 0
AnchorPoint: "Diacritic_right" 340 140 basechar 0
AnchorPoint: "Extension_up" 140 260 basechar 0
AnchorPoint: "Extension_down" 60 20 basechar 0
AnchorPoint: "Diacritic_down" 160 -60 basechar 0
AnchorPoint: "Diacritic_up" 160 360 basechar 0
LayerCount: 2
Fore
SplineSet
40 0 m 1xd0
 80 40 l 1
 240 40 l 1
 240 151 l 1
 215 126 l 1
 129 249 l 1
 159 280 l 1
 242 162 l 1
 280 200 l 1
 280 40 l 1
 240 0 l 1
 40 0 l 1xd0
EndSplineSet
Ligature2: "FlipCores subtable" ddotbelow quotesingle
LCarets2: 1 0
EndChar

StartChar: a
Encoding: 27 97 91
Width: 320
Flags: HW
AnchorPoint: "Diacritic_mkmk" 170 160 mark 0
LayerCount: 2
Fore
SplineSet
140 160 m 1
 170 190 l 1
 200 160 l 1
 170 130 l 1
 140 160 l 1
EndSplineSet
EndChar

StartChar: e
Encoding: 31 101 92
Width: 320
Flags: HW
AnchorPoint: "Diacritic_mkmk" 166 160 mark 0
LayerCount: 2
Fore
SplineSet
196 140 m 1
 86 140 l 1
 126 180 l 1
 246 180 l 1
 166 100 l 1
 161 105 l 1
 196 140 l 1
EndSplineSet
EndChar

StartChar: i
Encoding: 35 105 93
Width: 320
Flags: HW
AnchorPoint: "Diacritic_mkmk" 160 160 mark 0
LayerCount: 2
Fore
SplineSet
108 184 m 5
 138 214 l 5
 218 134 l 5
 188 104 l 5
 108 184 l 5
EndSplineSet
EndChar

StartChar: o
Encoding: 41 111 94
Width: 320
Flags: W
HStem: 180 30<127 148.597>
VStem: 97 103
AnchorPoint: "Diacritic_mkmk" 152 140 mark 0
LayerCount: 2
Fore
SplineSet
200 164 m 0
 202 150 199 136 190 120 c 0
 181 103 166 88 146 74 c 1
 141 79 l 1
 171 102 181 124 171 146 c 0
 161 168 137 179 97 180 c 1
 127 210 l 1
 148 210 165 207 178 198 c 0
 190 190 198 178 200 164 c 0
EndSplineSet
EndChar

StartChar: u
Encoding: 46 117 95
Width: 320
Flags: HW
AnchorPoint: "Diacritic_mkmk" 164 154 mark 0
LayerCount: 2
Fore
SplineSet
144 184 m 1
 184 224 l 1
 184 134 l 1
 219 169 l 1
 224 164 l 1
 144 84 l 1
 144 184 l 1
EndSplineSet
EndChar

StartChar: adieresis
Encoding: 56 228 96
Width: 320
Flags: HW
AnchorPoint: "Diacritic_mkmk" 168 160 mark 0
LayerCount: 2
Fore
SplineSet
208 140 m 1
 88 140 l 1
 128 180 l 1
 248 180 l 1
 208 140 l 1
EndSplineSet
EndChar

StartChar: edieresis
Encoding: 58 235 97
Width: 320
Flags: HW
AnchorPoint: "Diacritic_mkmk" 166 160 mark 0
LayerCount: 2
Fore
SplineSet
136 180 m 1
 246 180 l 1
 206 140 l 1
 86 140 l 1
 166 220 l 1
 171 215 l 1
 136 180 l 1
EndSplineSet
EndChar

StartChar: idieresis
Encoding: 59 239 98
Width: 320
Flags: HW
AnchorPoint: "Diacritic_mkmk" 164 160 mark 0
LayerCount: 2
Fore
SplineSet
184 228 m 5
 184 128 l 5
 144 88 l 5
 144 188 l 5
 184 228 l 5
EndSplineSet
EndChar

StartChar: odieresis
Encoding: 62 246 99
Width: 320
Flags: HW
AnchorPoint: "Diacritic_mkmk" 183 162 mark 0
LayerCount: 2
Fore
SplineSet
120 128 m 0
 118 142 121 156 130 172 c 0
 139 189 154 204 174 218 c 1
 179 213 l 1
 149 190 139 168 149 146 c 0
 159 124 183 113 223 112 c 1
 193 82 l 1
 172 82 155 85 142 94 c 0
 130 102 122 114 120 128 c 0
EndSplineSet
EndChar

StartChar: udieresis
Encoding: 63 252 100
Width: 320
Flags: HW
AnchorPoint: "Diacritic_mkmk" 168 162 mark 0
LayerCount: 2
Fore
SplineSet
188 132 m 1
 148 92 l 1
 148 182 l 1
 113 147 l 1
 108 152 l 1
 188 232 l 1
 188 132 l 1
EndSplineSet
EndChar

StartChar: ohungarumlaut
Encoding: 67 337 101
Width: 320
Flags: HW
AnchorPoint: "Diacritic_mkmk" 183 162 mark 0
LayerCount: 2
Fore
SplineSet
130 173 m 0
 139 190 154 205 174 219 c 1
 179 214 l 1
 149 191 139 168 149 146 c 0
 159 124 183 113 223 112 c 1
 153 42 l 1
 148 47 l 1
 184 82 l 1
 167 83 152 88 141 95 c 0
 129 103 122 115 120 129 c 0
 118 143 121 157 130 173 c 0
EndSplineSet
EndChar

StartChar: ograve
Encoding: 60 242 103
Width: 320
Flags: HW
AnchorPoint: "Diacritic_mkmk" 178 178 mark 0
LayerCount: 2
Fore
SplineSet
240 184 m 1
 215 142 186 118 153 111 c 0
 121 104 95 117 78 149 c 1
 108 179 l 1
 134 152 157 139 178 140 c 0
 199 141 218 158 235 189 c 1
 240 184 l 1
EndSplineSet
EndChar

StartChar: oacute
Encoding: 61 243 104
Width: 320
Flags: HW
AnchorPoint: "Diacritic_mkmk" 172 169 mark 0
LayerCount: 2
Fore
SplineSet
80 104 m 1
 105 146 134 170 167 177 c 0
 199 184 225 171 242 139 c 1
 212 109 l 1
 186 136 163 149 142 148 c 0
 121 147 102 130 85 99 c 1
 80 104 l 1
EndSplineSet
EndChar

StartChar: a_ograve
Encoding: 139 -1 105
Width: 320
Flags: HW
AnchorPoint: "Diacritic_mkmk" 178 178 mark 0
LayerCount: 2
Fore
SplineSet
240 184 m 1
 215 142 186 118 153 111 c 0
 121 104 95 117 78 149 c 1
 108 179 l 1
 134 152 157 139 178 140 c 0
 199 141 218 158 235 189 c 1
 240 184 l 1
202 189 m 1
 172 159 l 1
 142 189 l 1
 172 219 l 1
 202 189 l 1
EndSplineSet
Ligature2: "VowelLigature subtable" ograve a
Ligature2: "VowelLigature subtable" a ograve
LCarets2: 1 0
EndChar

StartChar: a_oacute
Encoding: 140 -1 106
Width: 320
Flags: HW
AnchorPoint: "Diacritic_mkmk" 172 169 mark 0
LayerCount: 2
Fore
SplineSet
80 104 m 1
 105 146 134 170 167 177 c 0
 199 184 225 171 242 139 c 1
 212 109 l 1
 186 136 163 149 142 148 c 0
 121 147 102 130 85 99 c 1
 80 104 l 1
118 99 m 1
 148 129 l 1
 178 99 l 1
 148 69 l 1
 118 99 l 1
EndSplineSet
Ligature2: "VowelLigature subtable" oacute a
Ligature2: "VowelLigature subtable" a oacute
LCarets2: 1 0
EndChar

StartChar: one.thou
Encoding: 141 -1 107
Width: 320
Flags: HW
AnchorPoint: "Diacritic_mkmk" 200 237 mark 0
LayerCount: 2
Fore
SplineSet
110 198 m 1
 140 237 l 1
 260 237 l 1
 230 198 l 1
 110 198 l 1
EndSplineSet
EndChar

StartChar: two.thou
Encoding: 142 -1 108
Width: 320
Flags: HW
AnchorPoint: "Diacritic_mkmk" 182 204 mark 0
LayerCount: 2
Fore
SplineSet
123 225 m 1
 150 252 l 1
 170 122 221 195 234 234 c 1
 239 196 166 111 123 225 c 1
EndSplineSet
EndChar

StartChar: three.thou
Encoding: 143 -1 109
Width: 320
Flags: HW
AnchorPoint: "Diacritic_mkmk" 187 217 mark 0
LayerCount: 2
Fore
SplineSet
130 234 m 1
 150 252 l 1
 220 186 l 1
 200 168 l 1
 130 234 l 1
EndSplineSet
EndChar

StartChar: four.thou
Encoding: 144 -1 110
Width: 320
Flags: HW
AnchorPoint: "Diacritic_mkmk" 205 220 mark 0
LayerCount: 2
Fore
SplineSet
220 234 m 1
 150 168 l 1
 130 186 l 1
 200 252 l 1
 220 234 l 1
EndSplineSet
EndChar

StartChar: five.thou
Encoding: 145 -1 111
Width: 320
Flags: HW
AnchorPoint: "Diacritic_mkmk" 185 217 mark 0
LayerCount: 2
Fore
SplineSet
102 227 m 1
 136 256 l 1
 276 256 l 1
 242 227 l 1
 102 227 l 1
127 248 m 1
 244 186 l 1
 218 161 l 1
 102 227 l 1
 127 248 l 1
EndSplineSet
EndChar

StartChar: six.thou
Encoding: 146 -1 112
Width: 320
Flags: HW
AnchorPoint: "Diacritic_mkmk" 171 220 mark 0
LayerCount: 2
Fore
SplineSet
110 220 m 1
 140 259 l 1
 260 259 l 1
 230 220 l 1
 110 220 l 1
139 153 m 1
 172 192 215 225 260 259 c 1
 230 220 l 2
 192 192 214 204 139 153 c 1
EndSplineSet
EndChar

StartChar: seven.thou
Encoding: 147 -1 113
Width: 320
Flags: HW
AnchorPoint: "Diacritic_mkmk" 182 204 mark 0
LayerCount: 2
Fore
SplineSet
159 261 m 1
 273 218 188 145 150 150 c 1
 189 163 262 214 132 234 c 1
 159 261 l 1
EndSplineSet
EndChar

StartChar: eight.thou
Encoding: 148 -1 114
Width: 320
Flags: HW
AnchorPoint: "Diacritic_mkmk" 182 204 mark 0
LayerCount: 2
Fore
SplineSet
189 149 m 1
 75 192 160 266 198 261 c 1
 159 248 87 197 217 177 c 1
 189 149 l 1
EndSplineSet
EndChar

StartChar: nine.thou
Encoding: 149 -1 115
Width: 320
Flags: HW
AnchorPoint: "Diacritic_mkmk" 182 204 mark 0
LayerCount: 2
Fore
SplineSet
235 195 m 1
 207 167 l 1
 187 297 136 225 123 186 c 1
 118 224 192 309 235 195 c 1
EndSplineSet
EndChar

StartChar: backslash.flip
Encoding: 152 -1 123
Width: 320
Flags: W
HStem: 0 21G<241.6 280> 260 20G<40 78.4> 260 20G<40 78.4>
AnchorPoint: "Diacritic_down" 160 -60 basechar 0
AnchorPoint: "Diacritic_up" 160 360 basechar 0
AnchorPoint: "Extension_down" 276 20 basechar 0
AnchorPoint: "Extension_up" 40 260 basechar 0
AnchorPoint: "Diacritic_right" 260 240 basechar 0
AnchorPoint: "Diacritic_left" 60 80 basechar 0
LayerCount: 2
Fore
SplineSet
60 280 m 1xc0
 290 30 l 1
 260 0 l 1
 30 250 l 1
 60 280 l 1xc0
EndSplineSet
Ligature2: "FlipCores subtable" backslash quotesingle
LCarets2: 1 0
EndChar

StartChar: backslash
Encoding: 24 92 129
Width: 320
Flags: W
HStem: 0 21G<241.6 280> 260 20G<40 78.4> 260 20G<40 78.4>
AnchorPoint: "Diacritic_down" 160 -60 basechar 0
AnchorPoint: "Diacritic_up" 160 360 basechar 0
AnchorPoint: "Extension_down" 276 20 basechar 0
AnchorPoint: "Extension_up" 40 260 basechar 0
AnchorPoint: "Diacritic_right" 260 240 basechar 0
AnchorPoint: "Diacritic_left" 60 80 basechar 0
LayerCount: 2
Fore
SplineSet
60 280 m 1xc0
 290 30 l 1
 260 0 l 1
 30 250 l 1
 60 280 l 1xc0
EndSplineSet
EndChar

StartChar: colon
Encoding: 15 58 131
Width: 320
Flags: W
HStem: 0 21G<205 245> 260 20G<75 115> 260 20G<75 115>
AnchorPoint: "Diacritic_down" 160 -60 basechar 0
AnchorPoint: "Diacritic_up" 160 360 basechar 0
AnchorPoint: "Extension_up" 75 260 basechar 0
AnchorPoint: "Extension_down" 245 20 basechar 0
AnchorPoint: "Diacritic_left" 40 80 basechar 0
AnchorPoint: "Diacritic_right" 280 240 basechar 0
LayerCount: 2
Fore
SplineSet
195 120 m 1xc0
 65 250 l 1
 95 280 l 1
 225 150 l 1
 195 120 l 1xc0
125 160 m 1
 255 30 l 1
 225 0 l 1
 95 130 l 1
 125 160 l 1
EndSplineSet
EndChar

StartChar: parenleft
Encoding: 3 40 136
Width: 320
Flags: W
HStem: 0 21G<254.348 290> 260 20G<30 65.7664> 260 20G<30 65.7664>
AnchorPoint: "Diacritic_down" 160 -60 basechar 0
AnchorPoint: "Diacritic_up" 160 360 basechar 0
AnchorPoint: "Extension_up" 30 260 basechar 0
AnchorPoint: "Extension_down" 290 20 basechar 0
AnchorPoint: "Diacritic_left" 60 80 basechar 0
AnchorPoint: "Diacritic_right" 260 240 basechar 0
LayerCount: 2
Fore
SplineSet
132 108 m 2xc0
 20 250 l 1
 50 280 l 1
 158 143 l 1
 189 174 l 1
 300 30 l 1
 270 0 l 1
 162 138 l 1
 132 108 l 2xc0
EndSplineSet
Ligature2: "FlipCores subtable" parenright quotesingle
LCarets2: 1 0
EndChar

StartChar: parenright
Encoding: 4 41 137
Width: 320
Flags: W
HStem: 0 21G<220 260> 260 20G<60 100> 260 20G<60 100>
AnchorPoint: "Diacritic_down" 160 -60 basechar 0
AnchorPoint: "Diacritic_up" 160 360 basechar 0
AnchorPoint: "Extension_up" 60 260 basechar 0
AnchorPoint: "Extension_down" 260 20 basechar 0
AnchorPoint: "Diacritic_left" 60 80 basechar 0
AnchorPoint: "Diacritic_right" 260 240 basechar 0
LayerCount: 2
Fore
SplineSet
240 0 m 1xc0
 128 112 l 1
 158 142 l 1
 50 250 l 1
 80 280 l 1
 192 168 l 1
 162 138 l 1
 270 30 l 1
 240 0 l 1xc0
EndSplineSet
Ligature2: "FlipCores subtable" parenleft quotesingle
LCarets2: 1 0
EndChar

StartChar: adieresis_i
Encoding: 156 -1 138
Width: 320
Flags: HW
AnchorPoint: "Diacritic_mkmk" 165 207 mark 0
LayerCount: 2
Fore
SplineSet
140 232 m 1
 170 262 l 1
 250 182 l 1
 210 142 l 1
 90 142 l 1
 130 182 l 1
 190 182 l 1
 140 232 l 1
EndSplineSet
Ligature2: "VowelLigature subtable" i adieresis
Ligature2: "VowelLigature subtable" adieresis i
LCarets2: 1 0
EndChar

StartChar: ellipses.vert
Encoding: 85 8942 140
Width: 320
Flags: HW
AnchorPoint: "Tertiary_mkmk" 160 264 mark 0
LayerCount: 2
Fore
SplineSet
180 224 m 1
 140 184 l 1
 140 304 l 1
 180 344 l 1
 180 224 l 1
EndSplineSet
LCarets2: 3 0 0 0
Ligature2: "TertiaryLigature subtable" ellipses.vert a idieresis a
EndChar

StartChar: equivalence
Encoding: 84 8801 147
Width: 320
Flags: HW
AnchorPoint: "Diacritic_down" 160 -60 basechar 0
AnchorPoint: "Diacritic_up" 160 360 basechar 0
AnchorPoint: "Tertiary_down" 160 20 basechar 0
AnchorPoint: "Tertiary_up" 160 260 basechar 0
LayerCount: 2
Fore
SplineSet
80 160 m 1
 280 160 l 1
 240 120 l 1
 40 120 l 1
 80 160 l 1
EndSplineSet
LCarets2: 2 0 0
Ligature2: "TertiaryLigature subtable" equivalence a a
EndChar

StartChar: ithk_valence.CNG
Encoding: 159 -1 148
Width: 320
Flags: HW
AnchorPoint: "Tertiary_up" 160 260 basechar 0
AnchorPoint: "Tertiary_down" 160 20 basechar 0
AnchorPoint: "Diacritic_up" 160 360 basechar 0
AnchorPoint: "Diacritic_down" 160 -60 basechar 0
LayerCount: 2
Fore
SplineSet
240 120 m 1
 40 120 l 1
 80 160 l 1
 270 160 l 1
 301 190 l 1
 318 137 344 120 378 139 c 1
 358 117 338 108 317 111 c 0
 296 114 281 128 275 155 c 1
 240 120 l 1
EndSplineSet
Ligature2: "TertiaryLigature subtable" equivalence a v
LCarets2: 2 0 0
EndChar

StartChar: ithk_valence.CPL
Encoding: 160 -1 149
Width: 320
Flags: HW
AnchorPoint: "Tertiary_up" 160 260 basechar 0
AnchorPoint: "Tertiary_down" 160 20 basechar 0
AnchorPoint: "Diacritic_up" 160 360 basechar 0
AnchorPoint: "Diacritic_down" 160 -60 basechar 0
LayerCount: 2
Fore
SplineSet
80 160 m 1
 280 160 l 1
 240 120 l 1
 50 120 l 1
 15 85 l 1
 10 90 l 1
 80 160 l 1
EndSplineSet
Ligature2: "TertiaryLigature subtable" equivalence s a
LCarets2: 2 0 0
EndChar

StartChar: ithk_valence.CRO
Encoding: 161 -1 150
Width: 320
Flags: HW
AnchorPoint: "Tertiary_up" 160 260 basechar 0
AnchorPoint: "Tertiary_down" 160 20 basechar 0
AnchorPoint: "Diacritic_up" 160 360 basechar 0
AnchorPoint: "Diacritic_down" 160 -60 basechar 0
LayerCount: 2
Fore
SplineSet
90 160 m 1
 280 160 l 1
 240 120 l 1
 40 120 l 1
 110 190 l 1
 115 185 l 1
 90 160 l 1
EndSplineSet
Ligature2: "TertiaryLigature subtable" equivalence z a
LCarets2: 2 0 0
EndChar

StartChar: ithk_valence.DEM
Encoding: 162 -1 151
Width: 320
Flags: HW
AnchorPoint: "Tertiary_up" 160 260 basechar 0
AnchorPoint: "Tertiary_down" 160 20 basechar 0
AnchorPoint: "Diacritic_up" 160 360 basechar 0
AnchorPoint: "Diacritic_down" 160 -60 basechar 0
LayerCount: 2
Fore
SplineSet
80 160 m 1
 270 160 l 1
 301 190 l 1
 327 185 339 171 339 149 c 0
 339 126 326 105 297 85 c 1
 309 105 314 121 311 132 c 0
 308 144 296 152 275 155 c 1
 266 147 l 2
 257 138 249 129 240 120 c 2
 40 120 l 1
 80 160 l 1
EndSplineSet
Ligature2: "TertiaryLigature subtable" equivalence a f
LCarets2: 2 0 0
EndChar

StartChar: ithk_valence.DUP
Encoding: 163 -1 152
Width: 320
Flags: HW
AnchorPoint: "Tertiary_up" 160 260 basechar 0
AnchorPoint: "Tertiary_down" 160 20 basechar 0
AnchorPoint: "Diacritic_up" 160 360 basechar 0
AnchorPoint: "Diacritic_down" 160 -60 basechar 0
LayerCount: 2
Fore
SplineSet
80 160 m 1
 270 160 l 1
 305 195 l 1
 310 190 l 1
 240 120 l 1
 40 120 l 1
 80 160 l 1
EndSplineSet
Ligature2: "TertiaryLigature subtable" equivalence a s
LCarets2: 2 0 0
EndChar

StartChar: ithk_valence.PRL
Encoding: 164 -1 153
Width: 320
Flags: HW
AnchorPoint: "Tertiary_up" 160 260 basechar 0
AnchorPoint: "Tertiary_down" 160 20 basechar 0
AnchorPoint: "Diacritic_up" 160 360 basechar 0
AnchorPoint: "Diacritic_down" 160 -60 basechar 0
LayerCount: 2
Fore
SplineSet
80 160 m 1
 280 160 l 1
 210 90 l 1
 205 95 l 1
 230 120 l 1
 40 120 l 1
 80 160 l 1
EndSplineSet
Ligature2: "TertiaryLigature subtable" equivalence a z
LCarets2: 2 0 0
EndChar

StartChar: ithk_valence.PTI
Encoding: 165 -1 154
Width: 320
Flags: HW
AnchorPoint: "Tertiary_up" 160 260 basechar 0
AnchorPoint: "Tertiary_down" 160 20 basechar 0
AnchorPoint: "Diacritic_up" 160 360 basechar 0
AnchorPoint: "Diacritic_down" 160 -60 basechar 0
LayerCount: 2
Fore
SplineSet
10 90 m 1
 80 160 l 1
 270 160 l 1
 301 190 l 1
 327 185 339 171 339 149 c 0
 339 126 326 105 297 85 c 1
 309 105 314 121 311 132 c 0
 308 144 296 152 275 155 c 1
 240 120 l 1
 50 120 l 1
 15 85 l 1
 10 90 l 1
EndSplineSet
Ligature2: "TertiaryLigature subtable" equivalence s f
LCarets2: 2 0 0
EndChar

StartChar: ithk_valence.RCP
Encoding: 166 -1 155
Width: 320
Flags: HW
AnchorPoint: "Tertiary_up" 160 260 basechar 0
AnchorPoint: "Tertiary_down" 160 20 basechar 0
AnchorPoint: "Diacritic_up" 160 360 basechar 0
AnchorPoint: "Diacritic_down" 160 -60 basechar 0
LayerCount: 2
Fore
SplineSet
90 160 m 1
 280 160 l 1
 210 90 l 1
 206 95 l 1
 231 120 l 1
 40 120 l 1
 110 190 l 1
 115 185 l 1
 90 160 l 1
EndSplineSet
Ligature2: "TertiaryLigature subtable" equivalence z z
LCarets2: 2 0 0
EndChar

StartChar: ithk_phase.FLC
Encoding: 167 -1 156
Width: 320
Flags: HW
AnchorPoint: "Tertiary_mkmk" 160 264 mark 0
LayerCount: 2
Fore
SplineSet
180 352 m 1
 180 269 l 1
 217 222 l 1
 187 192 l 1
 140 252 l 1
 140 312 l 1
 180 352 l 1
EndSplineSet
Ligature2: "TertiaryLigature subtable" ellipses.vert a idieresis p
LCarets2: 3 0 0 0
EndChar

StartChar: ithk_phase.FRE
Encoding: 168 -1 157
Width: 320
Flags: HW
AnchorPoint: "Tertiary_mkmk" 160 264 mark 0
LayerCount: 2
Fore
SplineSet
180 230 m 2
 205 255 l 1
 210 250 l 1
 140 180 l 1
 140 263 l 1
 103 310 l 1
 133 340 l 1
 180 280 l 1
 180 230 l 2
EndSplineSet
LCarets2: 3 0 0 0
Ligature2: "TertiaryLigature subtable" ellipses.vert p idieresis s
EndChar

StartChar: ithk_phase.FRG
Encoding: 169 -1 158
Width: 320
Flags: HW
AnchorPoint: "Tertiary_mkmk" 160 264 mark 0
LayerCount: 2
Fore
SplineSet
180 340 m 1
 180 257 l 1
 217 210 l 1
 187 180 l 1
 140 240 l 1
 140 290 l 1
 115 265 l 1
 110 270 l 1
 180 340 l 1
EndSplineSet
LCarets2: 3 0 0 0
Ligature2: "TertiaryLigature subtable" ellipses.vert s idieresis p
EndChar

StartChar: ithk_phase.ITM
Encoding: 170 -1 159
Width: 320
Flags: HW
AnchorPoint: "Tertiary_mkmk" 160 264 mark 0
LayerCount: 2
Fore
SplineSet
112 270 m 1
 182 340 l 1
 182 230 l 1
 207 255 l 1
 212 250 l 1
 142 180 l 1
 142 290 l 1
 117 265 l 1
 112 270 l 1
EndSplineSet
LCarets2: 3 0 0 0
Ligature2: "TertiaryLigature subtable" ellipses.vert s idieresis s
EndChar

StartChar: ithk_phase.ITR
Encoding: 171 -1 160
Width: 320
Flags: HW
AnchorPoint: "Tertiary_mkmk" 160 264 mark 0
LayerCount: 2
Fore
SplineSet
112 270 m 1
 182 340 l 1
 182 220 l 1
 142 180 l 1
 142 290 l 1
 117 265 l 1
 112 270 l 1
EndSplineSet
LCarets2: 3 0 0 0
Ligature2: "TertiaryLigature subtable" ellipses.vert s idieresis a
EndChar

StartChar: ithk_phase.RCT
Encoding: 172 -1 161
Width: 320
Flags: HW
AnchorPoint: "Tertiary_mkmk" 160 264 mark 0
LayerCount: 2
Fore
SplineSet
140 302 m 1
 180 342 l 1
 180 222 l 1
 115 157 l 1
 110 162 l 1
 140 192 l 1
 140 302 l 1
EndSplineSet
LCarets2: 3 0 0 0
Ligature2: "TertiaryLigature subtable" ellipses.vert a idieresis z
EndChar

StartChar: ithk_phase.REP
Encoding: 173 -1 162
Width: 320
Flags: HW
AnchorPoint: "Tertiary_mkmk" 160 264 mark 0
LayerCount: 2
Fore
SplineSet
208 250 m 1
 138 180 l 1
 138 300 l 1
 178 340 l 1
 178 230 l 1
 203 255 l 1
 208 250 l 1
EndSplineSet
LCarets2: 3 0 0 0
Ligature2: "TertiaryLigature subtable" ellipses.vert a idieresis s
EndChar

StartChar: ithk_phase.VAC
Encoding: 174 -1 163
Width: 320
Flags: HW
AnchorPoint: "Tertiary_mkmk" 160 264 mark 0
LayerCount: 2
Fore
SplineSet
140 180 m 1
 140 263 l 1
 103 310 l 1
 133 340 l 1
 180 280 l 1
 180 220 l 1
 140 180 l 1
EndSplineSet
Ligature2: "TertiaryLigature subtable" ellipses.vert p idieresis a
LCarets2: 3 0 0 0
EndChar

StartChar: ithk_effect.oneben
Encoding: 175 -1 164
Width: 320
Flags: HW
AnchorPoint: "Tertiary_mkmk" 159 270 mark 0
LayerCount: 2
Fore
SplineSet
120 320 m 1
 206 210 l 1
 177 180 l 1
 90 290 l 1
 120 320 l 1
EndSplineSet
LCarets2: 3 0 0 0
Ligature2: "TertiaryLigature subtable" ellipses.vert a i a
EndChar

StartChar: ithk_effect.onedet
Encoding: 176 -1 165
Width: 320
Flags: HW
AnchorPoint: "Tertiary_mkmk" 159 270 mark 0
LayerCount: 2
Fore
SplineSet
120 320 m 1
 198 220 l 1
 257 220 l 1
 217 180 l 1
 177 180 l 1
 90 290 l 1
 120 320 l 1
EndSplineSet
Ligature2: "TertiaryLigature subtable" ellipses.vert a i m
LCarets2: 3 0 0 0
EndChar

StartChar: ithk_effect.twoben
Encoding: 177 -1 166
Width: 320
Flags: HW
AnchorPoint: "Tertiary_mkmk" 159 270 mark 0
LayerCount: 2
Fore
SplineSet
60 260 m 1
 120 320 l 1
 206 210 l 1
 177 180 l 1
 94 285 l 1
 65 255 l 1
 60 260 l 1
EndSplineSet
Ligature2: "TertiaryLigature subtable" ellipses.vert s i a
LCarets2: 3 0 0 0
EndChar

StartChar: ithk_effect.twodet
Encoding: 178 -1 167
Width: 320
Flags: HW
AnchorPoint: "Tertiary_mkmk" 159 270 mark 0
LayerCount: 2
Fore
SplineSet
40 280 m 1
 80 320 l 1
 120 320 l 1
 206 210 l 1
 177 180 l 1
 98 280 l 1
 40 280 l 1
EndSplineSet
LCarets2: 3 0 0 0
Ligature2: "TertiaryLigature subtable" ellipses.vert m i a
EndChar

StartChar: ithk_effect.threeben
Encoding: 179 -1 168
Width: 320
Flags: HW
AnchorPoint: "Tertiary_mkmk" 157 270 mark 0
LayerCount: 2
Fore
SplineSet
200 215 m 1
 229 245 l 1
 234 240 l 1
 174 180 l 1
 88 290 l 1
 118 320 l 1
 200 215 l 1
EndSplineSet
Ligature2: "TertiaryLigature subtable" ellipses.vert a i s
LCarets2: 3 0 0 0
EndChar

StartChar: ithk_effect.threedet
Encoding: 180 -1 169
Width: 320
Flags: HW
AnchorPoint: "Tertiary_mkmk" 158 270 mark 0
LayerCount: 2
Fore
SplineSet
64 255 m 1
 59 260 l 1
 119 320 l 1
 198 220 l 1
 256 220 l 1
 216 180 l 1
 176 180 l 1
 93 285 l 1
 64 255 l 1
EndSplineSet
LCarets2: 3 0 0 0
Ligature2: "TertiaryLigature subtable" ellipses.vert s i m
EndChar

StartChar: ithk_effect.slfben
Encoding: 181 -1 170
Width: 320
Flags: HW
AnchorPoint: "Tertiary_mkmk" 158 270 mark 0
LayerCount: 2
Fore
SplineSet
64 255 m 1
 59 260 l 1
 119 320 l 1
 201 215 l 1
 231 245 l 1
 236 240 l 1
 176 180 l 1
 93 285 l 1
 64 255 l 1
EndSplineSet
LCarets2: 3 0 0 0
Ligature2: "TertiaryLigature subtable" ellipses.vert s i s
EndChar

StartChar: ithk_effect.slfdet
Encoding: 182 -1 171
Width: 320
Flags: HW
AnchorPoint: "Tertiary_mkmk" 159 270 mark 0
LayerCount: 2
Fore
SplineSet
120 320 m 1
 206 210 l 1
 147 150 l 1
 142 155 l 1
 172 185 l 2
 172 186 171 186 171 187 c 2
 90 290 l 1
 120 320 l 1
EndSplineSet
Ligature2: "TertiaryLigature subtable" ellipses.vert a i z
LCarets2: 3 0 0 0
EndChar

StartChar: ithk_effect.unk
Encoding: 183 -1 172
Width: 320
Flags: HW
AnchorPoint: "Tertiary_mkmk" 158 270 mark 0
LayerCount: 2
Fore
SplineSet
124 313 m 2
 205 210 l 1
 175 180 l 1
 88 290 l 1
 148 350 l 1
 153 345 l 1
 123 315 l 2
 123 314 124 314 124 313 c 2
EndSplineSet
Ligature2: "TertiaryLigature subtable" ellipses.vert z i a
LCarets2: 3 0 0 0
EndChar

StartChar: ddotbelow
Encoding: 78 7693 177
Width: 320
VWidth: -84
Flags: W
HStem: 0 21G<146.932 180.355> 240 40<80 240>
VStem: 40 40<129 240>
AnchorPoint: "Diacritic_right" 220 140 basechar 0
AnchorPoint: "Diacritic_left" -20 140 basechar 0
AnchorPoint: "Extension_up" 260 260 basechar 0
AnchorPoint: "Extension_down" 180 20 basechar 0
AnchorPoint: "Diacritic_down" 160 -60 basechar 0
AnchorPoint: "Diacritic_up" 160 360 basechar 0
LayerCount: 2
Fore
SplineSet
280 280 m 1
 240 240 l 1
 80 240 l 1
 80 129 l 1
 105 154 l 1
 191 31 l 1
 161 0 l 1
 78 118 l 1
 40 80 l 1
 40 240 l 1
 80 280 l 1
 280 280 l 1
EndSplineSet
Substitution2: "Single Substitution lookup 19 subtable" ddotbelow.ext.up
Substitution2: "Single Substitution lookup 18 subtable" ddotbelow.ext.down
EndChar

StartChar: ithk_aspect.ATP
Encoding: 184 -1 178
Width: 320
Flags: HW
AnchorPoint: "Tertiary_mkmk" 164 240 mark 0
LayerCount: 2
Fore
SplineSet
104 260 m 1
 264 260 l 1
 189 185 l 1
 184 190 l 1
 214 220 l 1
 64 220 l 1
 63 286 93 318 152 317 c 1
 157 312 l 1
 122 304 104 287 104 260 c 1
EndSplineSet
LCarets2: 3 0 0 0
Ligature2: "TertiaryLigature subtable" ellipses.vert f adieresis z
EndChar

StartChar: ithk_aspect.CCL
Encoding: 185 -1 179
Width: 320
Flags: HW
AnchorPoint: "Tertiary_mkmk" 164 240 mark 0
LayerCount: 2
Fore
SplineSet
224 220 m 1
 64 220 l 1
 104 260 l 1
 57 307 l 1
 85 335 l 1
 137 284 l 1
 113 260 l 1
 264 260 l 1
 224 220 l 1
EndSplineSet
LCarets2: 3 0 0 0
Ligature2: "TertiaryLigature subtable" ellipses.vert g adieresis a
EndChar

StartChar: ithk_aspect.CLM
Encoding: 186 -1 180
Width: 320
Flags: HW
AnchorPoint: "Tertiary_mkmk" 164 240 mark 0
LayerCount: 2
Fore
SplineSet
104 260 m 1
 264 260 l 1
 224 220 l 1
 271 173 l 1
 243 145 l 1
 191 196 l 1
 215 220 l 1
 64 220 l 1
 104 260 l 1
EndSplineSet
LCarets2: 3 0 0 0
Ligature2: "TertiaryLigature subtable" ellipses.vert a adieresis g
EndChar

StartChar: ithk_aspect.CNT
Encoding: 187 -1 181
Width: 320
Flags: HW
AnchorPoint: "Tertiary_mkmk" 164 240 mark 0
LayerCount: 2
Fore
SplineSet
64 220 m 1
 104 260 l 1
 254 260 l 1
 289 295 l 1
 294 290 l 1
 224 220 l 1
 144 220 l 1
 176 198 171 168 129 130 c 1
 124 135 l 1
 149 168 129 196 64 220 c 1
EndSplineSet
LCarets2: 3 0 0 0
Ligature2: "TertiaryLigature subtable" ellipses.vert ddotbelow adieresis s
EndChar

StartChar: ithk_aspect.CSS
Encoding: 188 -1 182
Width: 320
Flags: HW
AnchorPoint: "Tertiary_mkmk" 166 240 mark 0
LayerCount: 2
Fore
SplineSet
196 190 m 1
 148 148 105 158 65 220 c 1
 105 260 l 1
 265 260 l 1
 225 220 l 1
 125 220 l 1
 125 200 133 188 148 183 c 0
 162 179 176 183 191 195 c 1
 196 190 l 1
EndSplineSet
LCarets2: 3 0 0 0
Ligature2: "TertiaryLigature subtable" ellipses.vert tcedilla adieresis a
EndChar

StartChar: ithk_aspect.CUL
Encoding: 189 -1 183
Width: 320
Flags: HW
AnchorPoint: "Tertiary_mkmk" 163 240 mark 0
LayerCount: 2
Fore
SplineSet
112 260 m 1
 262 260 l 1
 222 220 l 1
 62 220 l 1
 102 260 l 1
 102 320 l 1
 142 360 l 1
 142 291 l 1
 112 260 l 1
 112 260 l 1
EndSplineSet
Ligature2: "TertiaryLigature subtable" ellipses.vert approxequal adieresis a
LCarets2: 3 0 0 0
EndChar

StartChar: ithk_aspect.DCL
Encoding: 190 -1 184
Width: 320
Flags: HW
AnchorPoint: "Tertiary_mkmk" 164 240 mark 0
LayerCount: 2
Fore
SplineSet
224 220 m 1
 64 220 l 1
 104 260 l 1
 44 260 l 1
 84 300 l 1
 154 300 l 1
 114 260 l 1
 264 260 l 1
 224 220 l 1
EndSplineSet
LCarets2: 3 0 0 0
Ligature2: "TertiaryLigature subtable" ellipses.vert k adieresis a
EndChar

StartChar: ithk_aspect.DLT
Encoding: 191 -1 185
Width: 320
Flags: HW
AnchorPoint: "Tertiary_mkmk" 166 240 mark 0
LayerCount: 2
Fore
SplineSet
216 220 m 1
 66 220 l 1
 106 260 l 1
 266 260 l 1
 226 220 l 1
 226 160 l 1
 186 120 l 1
 186 189 l 1
 216 220 l 1
 216 220 l 1
EndSplineSet
LCarets2: 3 0 0 0
Ligature2: "TertiaryLigature subtable" ellipses.vert a adieresis approxequal
EndChar

StartChar: ithk_aspect.EPD
Encoding: 192 -1 186
Width: 320
Flags: HW
AnchorPoint: "Tertiary_mkmk" 164 240 mark 0
LayerCount: 2
Fore
SplineSet
104 260 m 1
 264 260 l 1
 224 220 l 1
 271 195 280 166 251 135 c 1
 257 168 236 188 189 195 c 1
 215 220 l 1
 64 220 l 1
 104 260 l 1
EndSplineSet
LCarets2: 3 0 0 0
Ligature2: "TertiaryLigature subtable" ellipses.vert a adieresis rcaron
EndChar

StartChar: ithk_aspect.EXP
Encoding: 193 -1 187
Width: 320
Flags: HW
AnchorPoint: "Tertiary_mkmk" 164 240 mark 0
LayerCount: 2
Fore
SplineSet
64 220 m 1
 104 260 l 1
 264 260 l 1
 265 194 235 162 176 163 c 1
 171 168 l 1
 206 176 224 193 224 220 c 1
 124 220 l 1
 144 200 l 1
 114 170 l 1
 64 220 l 1
EndSplineSet
LCarets2: 3 0 0 0
Ligature2: "TertiaryLigature subtable" ellipses.vert i adieresis f
EndChar

StartChar: ithk_aspect.HAB
Encoding: 194 -1 188
Width: 320
Flags: HW
AnchorPoint: "Tertiary_mkmk" 165 240 mark 0
LayerCount: 2
Fore
SplineSet
204 345 m 1
 179 312 199 284 264 260 c 1
 224 220 l 1
 64 220 l 1
 104 260 l 1
 184 260 l 1
 152 282 157 312 199 350 c 1
 204 345 l 1
EndSplineSet
LCarets2: 3 0 0 0
Ligature2: "TertiaryLigature subtable" ellipses.vert a adieresis ddotbelow
EndChar

StartChar: ithk_aspect.ICS
Encoding: 195 -1 189
Width: 320
Flags: HW
AnchorPoint: "Tertiary_mkmk" 165 240 mark 0
LayerCount: 2
Fore
SplineSet
172 168 m 1
 207 176 225 193 225 220 c 1
 65 220 l 1
 105 260 l 1
 265 260 l 1
 266 194 236 162 177 163 c 1
 172 168 l 1
EndSplineSet
LCarets2: 3 0 0 0
Ligature2: "TertiaryLigature subtable" ellipses.vert a adieresis f
EndChar

StartChar: ithk_aspect.IMD
Encoding: 196 -1 190
Width: 320
Flags: HW
AnchorPoint: "Tertiary_mkmk" 164 240 mark 0
LayerCount: 2
Fore
SplineSet
224 220 m 1
 74 220 l 1
 34 180 l 1
 34 270 l 1
 74 309 l 1
 74 230 l 1
 104 260 l 1
 264 260 l 1
 224 220 l 1
EndSplineSet
LCarets2: 3 0 0 0
Ligature2: "TertiaryLigature subtable" ellipses.vert scaron adieresis a
EndChar

StartChar: ithk_aspect.IMM
Encoding: 197 -1 191
Width: 320
Flags: HW
AnchorPoint: "Tertiary_mkmk" 164 240 mark 0
LayerCount: 2
Fore
SplineSet
132 290 m 1
 180 332 223 322 263 260 c 1
 223 220 l 1
 73 220 l 1
 38 185 l 1
 33 190 l 1
 103 260 l 1
 203 260 l 1
 203 280 195 292 180 297 c 0
 166 301 152 297 137 285 c 1
 132 290 l 1
EndSplineSet
LCarets2: 3 0 0 0
Ligature2: "TertiaryLigature subtable" ellipses.vert s adieresis tcedilla
EndChar

StartChar: ithk_aspect.IRP
Encoding: 198 -1 192
Width: 320
Flags: HW
AnchorPoint: "Tertiary_mkmk" 164 240 mark 0
LayerCount: 2
Fore
SplineSet
224 220 m 1
 64 220 l 1
 139 295 l 1
 144 290 l 1
 114 260 l 1
 264 260 l 1
 265 194 235 162 176 163 c 1
 171 168 l 1
 206 176 224 193 224 220 c 1
EndSplineSet
LCarets2: 3 0 0 0
Ligature2: "TertiaryLigature subtable" ellipses.vert z adieresis ddotbelow
EndChar

StartChar: ithk_aspect.ITC
Encoding: 199 -1 193
Width: 320
Flags: HW
AnchorPoint: "Tertiary_mkmk" 164 240 mark 0
LayerCount: 2
Fore
SplineSet
224 220 m 1
 64 220 l 1
 104 260 l 1
 57 285 48 314 77 345 c 1
 71 312 92 292 139 285 c 1
 113 260 l 1
 264 260 l 1
 224 220 l 1
EndSplineSet
LCarets2: 3 0 0 0
Ligature2: "TertiaryLigature subtable" ellipses.vert rcaron adieresis a
EndChar

StartChar: ithk_aspect.LIM
Encoding: 200 -1 194
Width: 320
Flags: HW
AnchorPoint: "Tertiary_mkmk" 164 240 mark 0
LayerCount: 2
Fore
SplineSet
104 260 m 2
 254 260 l 1
 254 310 l 1
 294 350 l 1
 294 290 l 1
 224 220 l 1
 64 220 l 1
 104 260 l 2
EndSplineSet
LCarets2: 3 0 0 0
Ligature2: "TertiaryLigature subtable" ellipses.vert a adieresis t
EndChar

StartChar: ithk_aspect.MTV
Encoding: 201 -1 195
Width: 320
Flags: HW
AnchorPoint: "Tertiary_mkmk" 163 240 mark 0
LayerCount: 2
Fore
SplineSet
112 260 m 1
 263 260 l 1
 223 220 l 1
 63 220 l 1
 103 260 l 1
 96 289 70 311 27 325 c 1
 85 326 122 312 137 285 c 1
 112 260 l 1
EndSplineSet
LCarets2: 3 0 0 0
Ligature2: "TertiaryLigature subtable" ellipses.vert x adieresis a
EndChar

StartChar: ithk_aspect.PAU
Encoding: 202 -1 196
Width: 320
Flags: HW
AnchorPoint: "Tertiary_mkmk" 164 240 mark 0
LayerCount: 2
Fore
SplineSet
124 135 m 1
 149 168 129 196 64 220 c 1
 104 260 l 1
 264 260 l 1
 224 220 l 1
 144 220 l 1
 176 198 171 168 129 130 c 1
 124 135 l 1
EndSplineSet
LCarets2: 3 0 0 0
Ligature2: "TertiaryLigature subtable" ellipses.vert ddotbelow adieresis a
EndChar

StartChar: ithk_aspect.PCL
Encoding: 203 -1 197
Width: 320
Flags: HW
AnchorPoint: "Tertiary_mkmk" 165 240 mark 0
LayerCount: 2
Fore
SplineSet
196 190 m 1
 148 148 105 158 65 220 c 1
 105 260 l 1
 255 260 l 1
 290 295 l 1
 295 290 l 1
 225 220 l 1
 125 220 l 1
 125 200 133 188 148 183 c 0
 162 179 176 183 191 195 c 1
 196 190 l 1
EndSplineSet
LCarets2: 3 0 0 0
Ligature2: "TertiaryLigature subtable" ellipses.vert tcedilla adieresis s
EndChar

StartChar: ithk_aspect.PCS
Encoding: 204 -1 198
Width: 320
Flags: HW
AnchorPoint: "Tertiary_mkmk" 164 240 mark 0
LayerCount: 2
Fore
SplineSet
264 260 m 1
 224 220 l 1
 74 220 l 1
 39 185 l 1
 34 190 l 1
 104 260 l 1
 184 260 l 1
 152 282 157 312 199 350 c 1
 204 345 l 1
 179 312 199 284 264 260 c 1
EndSplineSet
LCarets2: 3 0 0 0
Ligature2: "TertiaryLigature subtable" ellipses.vert s adieresis ddotbelow
EndChar

StartChar: ithk_aspect.PMP
Encoding: 205 -1 199
Width: 320
Flags: HW
AnchorPoint: "Tertiary_mkmk" 164 240 mark 0
LayerCount: 2
Fore
SplineSet
104 260 m 1
 264 260 l 1
 224 220 l 1
 284 220 l 1
 244 180 l 1
 174 180 l 1
 214 220 l 1
 64 220 l 1
 104 260 l 1
EndSplineSet
LCarets2: 3 0 0 0
Ligature2: "TertiaryLigature subtable" ellipses.vert a adieresis k
EndChar

StartChar: ithk_aspect.PPR
Encoding: 206 -1 200
Width: 320
Flags: HW
AnchorPoint: "Tertiary_mkmk" 164 240 mark 0
LayerCount: 2
Fore
SplineSet
104 260 m 1
 264 260 l 1
 264 200 l 1
 224 160 l 1
 224 220 l 1
 64 220 l 1
 104 260 l 1
EndSplineSet
LCarets2: 3 0 0 0
Ligature2: "TertiaryLigature subtable" ellipses.vert a adieresis equal
EndChar

StartChar: ithk_aspect.PRG
Encoding: 207 -1 201
Width: 320
Flags: HW
AnchorPoint: "Tertiary_mkmk" 164 240 mark 0
LayerCount: 2
Fore
SplineSet
184 340 m 2
 264 260 l 1
 224 220 l 1
 74 220 l 1
 39 185 l 1
 34 190 l 1
 104 260 l 1
 204 260 l 1
 154 310 l 1
 184 340 l 2
EndSplineSet
LCarets2: 3 0 0 0
Ligature2: "TertiaryLigature subtable" ellipses.vert s adieresis i
EndChar

StartChar: ithk_aspect.PRS
Encoding: 208 -1 202
Width: 320
Flags: HW
AnchorPoint: "Tertiary_mkmk" 164 240 mark 0
LayerCount: 2
Fore
SplineSet
132 290 m 1
 180 332 223 322 263 260 c 1
 223 220 l 1
 63 220 l 1
 103 260 l 1
 203 260 l 1
 203 280 195 292 180 297 c 0
 166 301 152 297 137 285 c 1
 132 290 l 1
EndSplineSet
LCarets2: 3 0 0 0
Ligature2: "TertiaryLigature subtable" ellipses.vert a adieresis tcedilla
EndChar

StartChar: ithk_aspect.PTC
Encoding: 209 -1 203
Width: 320
Flags: HW
AnchorPoint: "Tertiary_mkmk" 166 240 mark 0
LayerCount: 2
Fore
SplineSet
216 220 m 1
 65 220 l 1
 105 260 l 1
 265 260 l 1
 225 220 l 1
 232 191 258 169 301 155 c 1
 243 154 206 168 191 195 c 1
 216 220 l 1
EndSplineSet
LCarets2: 3 0 0 0
Ligature2: "TertiaryLigature subtable" ellipses.vert a adieresis x
EndChar

StartChar: ithk_aspect.REG
Encoding: 210 -1 204
Width: 320
Flags: HW
AnchorPoint: "Tertiary_mkmk" 164 240 mark 0
LayerCount: 2
Fore
SplineSet
156 312 m 1
 121 304 103 287 103 260 c 1
 263 260 l 1
 223 220 l 1
 63 220 l 1
 62 286 92 318 151 317 c 1
 156 312 l 1
EndSplineSet
LCarets2: 3 0 0 0
Ligature2: "TertiaryLigature subtable" ellipses.vert f adieresis a
EndChar

StartChar: ithk_aspect.RGR
Encoding: 211 -1 205
Width: 320
Flags: HW
AnchorPoint: "Tertiary_mkmk" 164 240 mark 0
LayerCount: 2
Fore
SplineSet
144 140 m 2
 64 220 l 1
 104 260 l 1
 254 260 l 1
 289 295 l 1
 294 290 l 1
 224 220 l 1
 124 220 l 1
 174 170 l 1
 144 140 l 2
EndSplineSet
LCarets2: 3 0 0 0
Ligature2: "TertiaryLigature subtable" ellipses.vert i adieresis s
EndChar

StartChar: ithk_aspect.RSM
Encoding: 212 -1 206
Width: 320
Flags: HW
AnchorPoint: "Tertiary_mkmk" 166 240 mark 0
LayerCount: 2
Fore
SplineSet
176 170 m 1
 146 140 l 1
 66 220 l 1
 106 260 l 1
 266 260 l 1
 226 220 l 1
 126 220 l 1
 176 170 l 1
EndSplineSet
LCarets2: 3 0 0 0
Ligature2: "TertiaryLigature subtable" ellipses.vert i adieresis a
EndChar

StartChar: ithk_aspect.RTR
Encoding: 213 -1 207
Width: 320
Flags: HW
AnchorPoint: "Tertiary_mkmk" 163 240 mark 0
LayerCount: 2
Fore
SplineSet
152 310 m 1
 182 340 l 1
 262 260 l 1
 222 220 l 1
 62 220 l 1
 102 260 l 1
 202 260 l 1
 152 310 l 1
EndSplineSet
LCarets2: 3 0 0 0
Ligature2: "TertiaryLigature subtable" ellipses.vert a adieresis i
EndChar

StartChar: ithk_aspect.SMM
Encoding: 214 -1 208
Width: 320
Flags: HW
AnchorPoint: "Tertiary_mkmk" 165 240 mark 0
LayerCount: 2
Fore
SplineSet
264 260 m 1
 224 220 l 1
 64 220 l 1
 63 286 93 318 152 317 c 1
 157 312 l 1
 122 304 104 287 104 260 c 1
 204 260 l 1
 184 280 l 1
 214 310 l 1
 264 260 l 1
EndSplineSet
LCarets2: 3 0 0 0
Ligature2: "TertiaryLigature subtable" ellipses.vert f adieresis i
EndChar

StartChar: ithk_aspect.SQN
Encoding: 215 -1 209
Width: 320
Flags: HW
AnchorPoint: "Tertiary_mkmk" 165 240 mark 0
LayerCount: 2
Fore
SplineSet
224 220 m 1
 64 220 l 1
 64 280 l 1
 104 320 l 1
 104 260 l 1
 264 260 l 1
 224 220 l 1
EndSplineSet
LCarets2: 3 0 0 0
Ligature2: "TertiaryLigature subtable" ellipses.vert equal adieresis a
EndChar

StartChar: ithk_aspect.TMP
Encoding: 216 -1 210
Width: 320
Flags: HW
AnchorPoint: "Tertiary_mkmk" 165 240 mark 0
LayerCount: 2
Fore
SplineSet
104 260 m 1
 254 260 l 1
 294 300 l 1
 294 210 l 1
 254 171 l 1
 254 250 l 1
 224 220 l 1
 64 220 l 1
 104 260 l 1
EndSplineSet
LCarets2: 3 0 0 0
Ligature2: "TertiaryLigature subtable" ellipses.vert a adieresis scaron
EndChar

StartChar: ithk_aspect.TNS
Encoding: 217 -1 211
Width: 320
Flags: HW
AnchorPoint: "Tertiary_mkmk" 165 242 mark 0
LayerCount: 2
Fore
SplineSet
224 222 m 2
 74 222 l 1
 74 172 l 1
 34 132 l 1
 34 192 l 1
 104 262 l 1
 264 262 l 1
 224 222 l 2
EndSplineSet
LCarets2: 3 0 0 0
Ligature2: "TertiaryLigature subtable" ellipses.vert t adieresis a
EndChar

StartChar: ithk_aspect.TRD
Encoding: 218 -1 212
Width: 320
Flags: HW
AnchorPoint: "Tertiary_mkmk" 167 242 mark 0
LayerCount: 2
Fore
SplineSet
24 273 m 2
 71 226 l 1
 107 262 l 1
 267 262 l 1
 227 222 l 1
 76 222 l 1
 48 193 l 1
 -4 245 l 1
 24 273 l 2
EndSplineSet
LCarets2: 3 0 0 0
Ligature2: "TertiaryLigature subtable" ellipses.vert p adieresis a
EndChar

StartChar: ithk_aspect.XPD
Encoding: 219 -1 213
Width: 320
Flags: HW
AnchorPoint: "Tertiary_mkmk" 165 242 mark 0
LayerCount: 2
Fore
SplineSet
308 211 m 2
 261 258 l 1
 225 222 l 1
 65 222 l 1
 105 262 l 1
 256 262 l 1
 284 291 l 1
 336 239 l 1
 308 211 l 2
EndSplineSet
Ligature2: "TertiaryLigature subtable" ellipses.vert a adieresis p
LCarets2: 3 0 0 0
EndChar

StartChar: .notdef
Encoding: 220 -1 214
Width: 320
Flags: W
HStem: 0 40<100 220> 240 40<100 220> 260 20G<80 100>
VStem: 60 40<40 240> 220 40<40 240>
AnchorPoint: "Extension_down" 240 20 basechar 0
AnchorPoint: "Extension_up" 80 260 basechar 0
AnchorPoint: "Diacritic_up" 160 360 basechar 0
AnchorPoint: "Diacritic_down" 160 -60 basechar 0
AnchorPoint: "Diacritic_right" 300 140 basechar 0
AnchorPoint: "Diacritic_left" 20 140 basechar 0
LayerCount: 2
Fore
SplineSet
220 0 m 1xb8
 220 240 l 1
 60 240 l 1
 100 280 l 1xd8
 260 280 l 1
 260 40 l 1
 220 0 l 1xb8
100 280 m 1
 100 40 l 1
 260 40 l 1
 220 0 l 1
 60 0 l 1
 60 240 l 1
 100 280 l 1
EndSplineSet
EndChar

StartChar: glottal.ext.up
Encoding: 222 -1 216
Width: 320
Flags: HW
AnchorPoint: "Extension_mkmk" 140 260 mark 0
LayerCount: 2
Fore
SplineSet
94 285 m 1
 118 274 128 259 123 242 c 1
 160 280 l 1
 160 240 l 1
 147 243 133 227 120 195 c 1
 120 230 l 1
 95 205 l 1
 90 210 l 1
 93 213 l 2
 117 238 107 252 64 255 c 1
 94 285 l 1
EndSplineSet
Substitution2: "Single Substitution lookup 29 subtable" glottal.ext.left
Substitution2: "Single Substitution lookup 28 subtable" glottal.ext.right
Substitution2: "Single Substitution lookup 27 subtable" glottal.ext.diagup
Substitution2: "Single Substitution lookup 23 subtable" glottal.ext.left
Substitution2: "Single Substitution lookup 22 subtable" glottal.ext.right
Substitution2: "Single Substitution lookup 21 subtable" glottal.ext.diagup
EndChar

StartChar: ncaron.ext.up
Encoding: 223 -1 217
Width: 320
Flags: HW
AnchorPoint: "Extension_mkmk" 140 260 mark 0
LayerCount: 2
Fore
SplineSet
160 220 m 1
 144 227 130 221 120 200 c 1
 120 240 l 1
 70 240 l 1
 35 205 l 1
 30 210 l 1
 100 280 l 1
 160 280 l 1
 160 220 l 1
EndSplineSet
Substitution2: "Single Substitution lookup 29 subtable" ncaron.ext.left
Substitution2: "Single Substitution lookup 28 subtable" ncaron.ext.right
Substitution2: "Single Substitution lookup 27 subtable" ncaron.ext.diagup
Substitution2: "Single Substitution lookup 23 subtable" ncaron.ext.left
Substitution2: "Single Substitution lookup 22 subtable" ncaron.ext.right
Substitution2: "Single Substitution lookup 21 subtable" ncaron.ext.diagup
EndChar

StartChar: scaron.ext.up
Encoding: 224 -1 218
Width: 320
Flags: HW
AnchorPoint: "Extension_mkmk" 140 260 mark 0
LayerCount: 2
Fore
SplineSet
160 220 m 1
 147 230 133 226 120 210 c 1
 120 231 l 1
 80 191 l 1
 80 280 l 1
 120 320 l 1
 120 240 l 1
 160 280 l 1
 160 220 l 1
EndSplineSet
Substitution2: "Single Substitution lookup 29 subtable" scaron.ext.left
Substitution2: "Single Substitution lookup 28 subtable" scaron.ext.right
Substitution2: "Single Substitution lookup 27 subtable" scaron.ext.diagup
Substitution2: "Single Substitution lookup 23 subtable" scaron.ext.left
Substitution2: "Single Substitution lookup 22 subtable" scaron.ext.right
Substitution2: "Single Substitution lookup 21 subtable" scaron.ext.diagup
EndChar

StartChar: ddotbelow.ext.up
Encoding: 225 -1 219
Width: 320
Flags: HW
AnchorPoint: "Extension_mkmk" 140 260 mark 0
LayerCount: 2
Fore
SplineSet
244 277 m 1
 222 257 194 255 160 271 c 1
 160 217 l 1
 146 230 133 223 120 198 c 1
 120 240 l 1
 185 305 l 1
 196 284 216 275 244 277 c 1
EndSplineSet
Substitution2: "Single Substitution lookup 29 subtable" ddotbelow.ext.left
Substitution2: "Single Substitution lookup 28 subtable" ddotbelow.ext.right
Substitution2: "Single Substitution lookup 27 subtable" ddotbelow.ext.diagup
Substitution2: "Single Substitution lookup 23 subtable" ddotbelow.ext.left
Substitution2: "Single Substitution lookup 22 subtable" ddotbelow.ext.right
Substitution2: "Single Substitution lookup 21 subtable" ddotbelow.ext.diagup
EndChar

StartChar: tcedilla.ext.up
Encoding: 226 -1 220
Width: 320
Flags: HW
AnchorPoint: "Extension_mkmk" 140 260 mark 0
LayerCount: 2
Fore
SplineSet
160 271 m 1
 160 217 l 1
 146 230 133 223 120 198 c 1
 120 240 l 1
 185 305 l 1
 215 296 232 280 235 255 c 0
 235 253 235 250 235 248 c 0
 235 246 235 246 235 244 c 1
 226 262 201 271 160 271 c 1
EndSplineSet
Substitution2: "Single Substitution lookup 29 subtable" tcedilla.ext.left
Substitution2: "Single Substitution lookup 28 subtable" tcedilla.ext.right
Substitution2: "Single Substitution lookup 27 subtable" tcedilla.ext.diagup
Substitution2: "Single Substitution lookup 23 subtable" tcedilla.ext.left
Substitution2: "Single Substitution lookup 22 subtable" tcedilla.ext.right
Substitution2: "Single Substitution lookup 21 subtable" tcedilla.ext.diagup
EndChar

StartChar: ccedilla.ext.up
Encoding: 227 -1 221
Width: 320
Flags: HW
AnchorPoint: "Extension_mkmk" 140 260 mark 0
LayerCount: 2
Fore
SplineSet
265 282 m 1
 207 224 l 1
 160 270 l 1
 160 240 l 1
 150 251 137 244 120 220 c 1
 120 240 l 1
 183 303 l 1
 230 256 l 1
 260 286 l 1
 265 282 l 1
EndSplineSet
Substitution2: "Single Substitution lookup 29 subtable" ccedilla.ext.left
Substitution2: "Single Substitution lookup 28 subtable" ccedilla.ext.right
Substitution2: "Single Substitution lookup 27 subtable" ccedilla.ext.diagup
Substitution2: "Single Substitution lookup 23 subtable" ccedilla.ext.left
Substitution2: "Single Substitution lookup 22 subtable" ccedilla.ext.right
Substitution2: "Single Substitution lookup 21 subtable" ccedilla.ext.diagup
EndChar

StartChar: ccaron.ext.up
Encoding: 228 -1 222
Width: 320
Flags: HW
AnchorPoint: "Extension_mkmk" 140 260 mark 0
LayerCount: 2
Fore
SplineSet
160 280 m 1
 160 280 l 1
 80 280 l 1
 120 320 l 1
 120 320 l 1
 155 354 l 1
 160 350 l 1
 130 320 l 1
 210 320 l 1
 160 270 l 1
 160 240 l 1
 147 242 133 235 120 220 c 1
 120 240 l 1
 160 280 l 1
 160 280 l 1
 160 280 l 1
EndSplineSet
Substitution2: "Single Substitution lookup 29 subtable" ccaron.ext.left
Substitution2: "Single Substitution lookup 28 subtable" ccaron.ext.right
Substitution2: "Single Substitution lookup 27 subtable" ccaron.ext.diagup
Substitution2: "Single Substitution lookup 23 subtable" ccaron.ext.left
Substitution2: "Single Substitution lookup 22 subtable" ccaron.ext.right
Substitution2: "Single Substitution lookup 21 subtable" ccaron.ext.diagup
EndChar

StartChar: lcedilla.ext.up
Encoding: 229 -1 223
Width: 320
Flags: HW
AnchorPoint: "Extension_mkmk" 140 260 mark 0
LayerCount: 2
Fore
SplineSet
160 280 m 1
 240 280 l 1
 200 240 l 1
 160 240 l 1
 160 220 l 1
 143 227 129 221 120 200 c 1
 120 240 l 1
 160 280 l 1
EndSplineSet
Substitution2: "Single Substitution lookup 29 subtable" lcedilla.ext.left
Substitution2: "Single Substitution lookup 28 subtable" lcedilla.ext.right
Substitution2: "Single Substitution lookup 27 subtable" lcedilla.ext.diagup
Substitution2: "Single Substitution lookup 23 subtable" lcedilla.ext.left
Substitution2: "Single Substitution lookup 22 subtable" lcedilla.ext.right
Substitution2: "Single Substitution lookup 21 subtable" lcedilla.ext.diagup
EndChar

StartChar: zdotaccent.ext.up
Encoding: 230 -1 224
Width: 320
Flags: HW
AnchorPoint: "Extension_mkmk" 140 260 mark 0
LayerCount: 2
Fore
SplineSet
-10 170 m 1
 60 240 l 1
 120 240 l 1
 160 280 l 1
 160 226 l 1
 146 232 132 227 120 210 c 1
 120 230 l 1
 90 200 l 1
 30 200 l 1
 -5 165 l 1
 -10 170 l 1
EndSplineSet
Substitution2: "Single Substitution lookup 29 subtable" zdotaccent.ext.left
Substitution2: "Single Substitution lookup 28 subtable" zdotaccent.ext.right
Substitution2: "Single Substitution lookup 27 subtable" zdotaccent.ext.diagup
Substitution2: "Single Substitution lookup 23 subtable" zdotaccent.ext.left
Substitution2: "Single Substitution lookup 22 subtable" zdotaccent.ext.right
Substitution2: "Single Substitution lookup 21 subtable" zdotaccent.ext.diagup
EndChar

StartChar: zcaron.ext.up
Encoding: 231 -1 225
Width: 320
Flags: HW
AnchorPoint: "Extension_mkmk" 140 260 mark 0
LayerCount: 2
Fore
SplineSet
120 320 m 1
 120 240 l 1
 160 280 l 1
 160 220 l 1
 147 230 133 226 120 210 c 1
 120 231 l 1
 80 191 l 1
 80 270 l 1
 55 245 l 1
 50 250 l 1
 80 280 l 1
 80 280 l 1
 120 320 l 1
EndSplineSet
Substitution2: "Single Substitution lookup 29 subtable" zcaron.ext.left
Substitution2: "Single Substitution lookup 28 subtable" zcaron.ext.right
Substitution2: "Single Substitution lookup 27 subtable" zcaron.ext.diagup
Substitution2: "Single Substitution lookup 23 subtable" zcaron.ext.left
Substitution2: "Single Substitution lookup 22 subtable" zcaron.ext.right
Substitution2: "Single Substitution lookup 21 subtable" zcaron.ext.diagup
EndChar

StartChar: rcaron.ext.up
Encoding: 232 -1 226
Width: 320
Flags: HW
AnchorPoint: "Extension_mkmk" 140 260 mark 0
LayerCount: 2
Fore
SplineSet
160 270 m 1
 160 226 l 1
 146 234 133 232 120 220 c 1
 120 240 l 1
 155 275 l 1
 117 276 92 301 80 350 c 1
 109 315 145 300 190 301 c 1
 160 270 l 1
EndSplineSet
Substitution2: "Single Substitution lookup 29 subtable" rcaron.ext.left
Substitution2: "Single Substitution lookup 28 subtable" rcaron.ext.right
Substitution2: "Single Substitution lookup 27 subtable" rcaron.ext.diagup
Substitution2: "Single Substitution lookup 23 subtable" rcaron.ext.left
Substitution2: "Single Substitution lookup 22 subtable" rcaron.ext.right
Substitution2: "Single Substitution lookup 21 subtable" rcaron.ext.diagup
EndChar

StartChar: b.ext.up
Encoding: 233 -1 227
Width: 320
Flags: HW
AnchorPoint: "Extension_mkmk" 140 260 mark 0
LayerCount: 2
Fore
SplineSet
120 240 m 1
 120 240 l 1
 160 280 l 1
 160 226 l 1
 146 232 132 227 120 210 c 1
 120 230 l 1
 90 200 l 1
 20 200 l 1
 60 240 l 1
 120 240 l 1
EndSplineSet
Substitution2: "Single Substitution lookup 29 subtable" b.ext.left
Substitution2: "Single Substitution lookup 28 subtable" b.ext.right
Substitution2: "Single Substitution lookup 27 subtable" b.ext.diagup
Substitution2: "Single Substitution lookup 23 subtable" b.ext.left
Substitution2: "Single Substitution lookup 22 subtable" b.ext.right
Substitution2: "Single Substitution lookup 21 subtable" b.ext.diagup
EndChar

StartChar: c.ext.up
Encoding: 234 -1 228
Width: 320
Flags: HW
AnchorPoint: "Extension_mkmk" 140 260 mark 0
LayerCount: 2
Fore
SplineSet
120 230 m 1
 90 200 l 1
 20 200 l 1
 95 275 l 1
 100 270 l 1
 70 240 l 1
 120 240 l 1
 160 280 l 1
 160 226 l 1
 146 232 132 227 120 210 c 1
 120 230 l 1
EndSplineSet
Substitution2: "Single Substitution lookup 29 subtable" c.ext.left
Substitution2: "Single Substitution lookup 28 subtable" c.ext.right
Substitution2: "Single Substitution lookup 27 subtable" c.ext.diagup
Substitution2: "Single Substitution lookup 23 subtable" c.ext.left
Substitution2: "Single Substitution lookup 22 subtable" c.ext.right
Substitution2: "Single Substitution lookup 21 subtable" c.ext.diagup
EndChar

StartChar: equal.ext.up
Encoding: 235 -1 229
Width: 320
Flags: HW
AnchorPoint: "Extension_mkmk" 140 260 mark 0
LayerCount: 2
Fore
SplineSet
160 280 m 1
 160 220 l 1
 144 227 130 221 120 200 c 1
 120 240 l 1
 60 240 l 1
 60 300 l 1
 100 340 l 1
 100 280 l 1
 160 280 l 1
EndSplineSet
Substitution2: "Single Substitution lookup 29 subtable" equal.ext.left
Substitution2: "Single Substitution lookup 28 subtable" equal.ext.right
Substitution2: "Single Substitution lookup 27 subtable" equal.ext.diagup
Substitution2: "Single Substitution lookup 23 subtable" equal.ext.left
Substitution2: "Single Substitution lookup 22 subtable" equal.ext.right
Substitution2: "Single Substitution lookup 21 subtable" equal.ext.diagup
EndChar

StartChar: d.ext.up
Encoding: 236 -1 230
Width: 320
Flags: HW
AnchorPoint: "Extension_mkmk" 140 260 mark 0
LayerCount: 2
Fore
SplineSet
160 271 m 1
 160 271 l 1
 160 222 l 1
 148 226 134 223 120 211 c 1
 120 240 l 1
 191 311 l 1
 260 311 l 1
 220 271 l 1
 160 271 l 1
EndSplineSet
Substitution2: "Single Substitution lookup 29 subtable" d.ext.left
Substitution2: "Single Substitution lookup 28 subtable" d.ext.right
Substitution2: "Single Substitution lookup 27 subtable" d.ext.diagup
Substitution2: "Single Substitution lookup 23 subtable" d.ext.left
Substitution2: "Single Substitution lookup 22 subtable" d.ext.right
Substitution2: "Single Substitution lookup 21 subtable" d.ext.diagup
EndChar

StartChar: D.ext.up
Encoding: 237 -1 231
Width: 320
Flags: HW
AnchorPoint: "Extension_mkmk" 140 260 mark 0
LayerCount: 2
Fore
SplineSet
160 271 m 1
 160 271 l 1
 160 222 l 1
 148 226 134 223 120 211 c 1
 120 240 l 1
 191 311 l 1
 280 311 l 1
 240 271 l 1
 210 241 l 1
 205 246 l 1
 230 271 l 1
 160 271 l 1
EndSplineSet
Substitution2: "Single Substitution lookup 29 subtable" D.ext.left
Substitution2: "Single Substitution lookup 28 subtable" D.ext.right
Substitution2: "Single Substitution lookup 27 subtable" D.ext.diagup
Substitution2: "Single Substitution lookup 23 subtable" D.ext.left
Substitution2: "Single Substitution lookup 22 subtable" D.ext.right
Substitution2: "Single Substitution lookup 21 subtable" D.ext.diagup
EndChar

StartChar: glottal.flip.ext.up
Encoding: 238 -1 232
Width: 320
Flags: HW
AnchorPoint: "Extension_mkmk" 140 260 mark 0
LayerCount: 2
Fore
SplineSet
181 301 m 0
 182 302 l 0
 183 303 184 304 185 305 c 1
 190 300 l 1
 160 270 l 1
 160 234 l 1
 147 238 133 233 120 220 c 1
 120 240 l 1
 146 266 l 1
 125 249 103 250 80 270 c 1
 110 300 l 1
 130 275 154 275 181 301 c 0
EndSplineSet
Substitution2: "Single Substitution lookup 29 subtable" glottal.flip.ext.left
Substitution2: "Single Substitution lookup 28 subtable" glottal.flip.ext.right
Substitution2: "Single Substitution lookup 27 subtable" glottal.flip.ext.diagup
Substitution2: "Single Substitution lookup 23 subtable" glottal.flip.ext.left
Substitution2: "Single Substitution lookup 22 subtable" glottal.flip.ext.right
Substitution2: "Single Substitution lookup 21 subtable" glottal.flip.ext.diagup
EndChar

StartChar: approxequal.ext.up
Encoding: 239 -1 233
Width: 320
Flags: HW
AnchorPoint: "Extension_mkmk" 140 260 mark 0
LayerCount: 2
Fore
SplineSet
200 380 m 1
 200 311 l 1
 160 271 l 1
 160 220 l 1
 147 230 133 226 120 210 c 1
 120 240 l 1
 160 280 l 1
 160 340 l 1
 200 380 l 1
EndSplineSet
Substitution2: "Single Substitution lookup 29 subtable" approxequal.ext.left
Substitution2: "Single Substitution lookup 28 subtable" approxequal.ext.right
Substitution2: "Single Substitution lookup 27 subtable" approxequal.ext.diagup
Substitution2: "Single Substitution lookup 23 subtable" approxequal.ext.left
Substitution2: "Single Substitution lookup 22 subtable" approxequal.ext.right
Substitution2: "Single Substitution lookup 21 subtable" approxequal.ext.diagup
EndChar

StartChar: f.ext.up
Encoding: 240 -1 234
Width: 320
Flags: HW
AnchorPoint: "Extension_mkmk" 140 260 mark 0
LayerCount: 2
Fore
SplineSet
160 217 m 1
 146 230 133 223 120 198 c 1
 120 231 l 1
 95 205 l 1
 68 220 54 257 55 315 c 1
 69 272 91 247 120 240 c 1
 160 280 l 1
 160 217 l 1
EndSplineSet
Substitution2: "Single Substitution lookup 29 subtable" f.ext.left
Substitution2: "Single Substitution lookup 28 subtable" f.ext.right
Substitution2: "Single Substitution lookup 27 subtable" f.ext.diagup
Substitution2: "Single Substitution lookup 23 subtable" f.ext.left
Substitution2: "Single Substitution lookup 22 subtable" f.ext.right
Substitution2: "Single Substitution lookup 21 subtable" f.ext.diagup
EndChar

StartChar: g.ext.up
Encoding: 241 -1 235
Width: 320
Flags: HW
AnchorPoint: "Extension_mkmk" 140 260 mark 0
LayerCount: 2
Fore
SplineSet
113 327 m 1
 141 355 l 1
 193 304 l 1
 160 271 l 1
 160 240 l 1
 147 248 134 241 120 220 c 1
 120 240 l 1
 160 280 l 1
 113 327 l 1
EndSplineSet
Substitution2: "Single Substitution lookup 29 subtable" g.ext.left
Substitution2: "Single Substitution lookup 28 subtable" g.ext.right
Substitution2: "Single Substitution lookup 27 subtable" g.ext.diagup
Substitution2: "Single Substitution lookup 23 subtable" g.ext.left
Substitution2: "Single Substitution lookup 22 subtable" g.ext.right
Substitution2: "Single Substitution lookup 21 subtable" g.ext.diagup
EndChar

StartChar: G.ext.up
Encoding: 242 -1 236
Width: 320
Flags: HW
AnchorPoint: "Extension_mkmk" 140 260 mark 0
LayerCount: 2
Fore
SplineSet
113 327 m 1
 171 385 l 1
 176 380 l 1
 146 350 l 1
 193 304 l 1
 160 271 l 1
 160 240 l 1
 147 248 134 241 120 220 c 1
 120 240 l 1
 160 280 l 1
 113 327 l 1
EndSplineSet
Substitution2: "Single Substitution lookup 29 subtable" G.ext.left
Substitution2: "Single Substitution lookup 28 subtable" G.ext.right
Substitution2: "Single Substitution lookup 27 subtable" G.ext.diagup
Substitution2: "Single Substitution lookup 23 subtable" G.ext.left
Substitution2: "Single Substitution lookup 22 subtable" G.ext.right
Substitution2: "Single Substitution lookup 21 subtable" G.ext.diagup
EndChar

StartChar: h.ext.up
Encoding: 243 -1 237
Width: 320
Flags: HW
AnchorPoint: "Extension_mkmk" 140 260 mark 0
LayerCount: 2
Fore
SplineSet
120 240 m 1
 191 311 l 1
 251 311 l 1
 285 346 l 1
 290 341 l 1
 220 271 l 1
 160 271 l 1
 160 223 l 1
 145 231 132 227 120 211 c 1
 120 240 l 1
EndSplineSet
Substitution2: "Single Substitution lookup 29 subtable" h.ext.left
Substitution2: "Single Substitution lookup 28 subtable" h.ext.right
Substitution2: "Single Substitution lookup 27 subtable" h.ext.diagup
Substitution2: "Single Substitution lookup 23 subtable" h.ext.left
Substitution2: "Single Substitution lookup 22 subtable" h.ext.right
Substitution2: "Single Substitution lookup 21 subtable" h.ext.diagup
EndChar

StartChar: j.ext.up
Encoding: 244 -1 238
Width: 320
Flags: HW
AnchorPoint: "Extension_mkmk" 140 260 mark 0
LayerCount: 2
Fore
SplineSet
160 280 m 1
 160 280 l 1
 89 280 l 1
 55 245 l 1
 50 250 l 1
 120 320 l 1
 210 320 l 1
 160 270 l 1
 160 240 l 1
 147 242 133 235 120 220 c 1
 120 240 l 1
 160 280 l 1
 160 280 l 1
 160 280 l 1
EndSplineSet
Substitution2: "Single Substitution lookup 29 subtable" j.ext.left
Substitution2: "Single Substitution lookup 28 subtable" j.ext.right
Substitution2: "Single Substitution lookup 27 subtable" j.ext.diagup
Substitution2: "Single Substitution lookup 23 subtable" j.ext.left
Substitution2: "Single Substitution lookup 22 subtable" j.ext.right
Substitution2: "Single Substitution lookup 21 subtable" j.ext.diagup
EndChar

StartChar: k.ext.up
Encoding: 245 -1 239
Width: 320
Flags: HW
AnchorPoint: "Extension_mkmk" 140 260 mark 0
LayerCount: 2
Fore
SplineSet
210 320 m 1
 210 320 l 1
 160 270 l 1
 160 240 l 1
 147 242 133 235 120 220 c 1
 120 240 l 1
 160 280 l 1
 160 280 l 1
 160 280 l 1
 160 280 l 1
 80 280 l 1
 120 320 l 1
 210 320 l 1
EndSplineSet
Substitution2: "Single Substitution lookup 29 subtable" k.ext.left
Substitution2: "Single Substitution lookup 28 subtable" k.ext.right
Substitution2: "Single Substitution lookup 27 subtable" k.ext.diagup
Substitution2: "Single Substitution lookup 23 subtable" k.ext.left
Substitution2: "Single Substitution lookup 22 subtable" k.ext.right
Substitution2: "Single Substitution lookup 21 subtable" k.ext.diagup
EndChar

StartChar: l.ext.up
Encoding: 246 -1 240
Width: 320
Flags: HW
AnchorPoint: "Extension_mkmk" 140 260 mark 0
LayerCount: 2
Fore
SplineSet
160 360 m 1
 160 280 l 2
 153 240 139 227 120 240 c 1
 120 320 l 1
 160 360 l 1
EndSplineSet
Substitution2: "Single Substitution lookup 29 subtable" l.ext.left
Substitution2: "Single Substitution lookup 28 subtable" l.ext.right
Substitution2: "Single Substitution lookup 27 subtable" l.ext.diagup
Substitution2: "Single Substitution lookup 23 subtable" l.ext.left
Substitution2: "Single Substitution lookup 22 subtable" l.ext.right
Substitution2: "Single Substitution lookup 21 subtable" l.ext.diagup
EndChar

StartChar: m.ext.up
Encoding: 247 -1 241
Width: 320
Flags: HW
AnchorPoint: "Extension_mkmk" 140 260 mark 0
LayerCount: 2
Fore
SplineSet
160 220 m 1
 144 227 130 221 120 200 c 1
 120 240 l 1
 60 240 l 1
 100 280 l 1
 160 280 l 1
 160 220 l 1
EndSplineSet
Substitution2: "Single Substitution lookup 29 subtable" m.ext.left
Substitution2: "Single Substitution lookup 28 subtable" m.ext.right
Substitution2: "Single Substitution lookup 27 subtable" m.ext.diagup
Substitution2: "Single Substitution lookup 23 subtable" m.ext.left
Substitution2: "Single Substitution lookup 22 subtable" m.ext.right
Substitution2: "Single Substitution lookup 21 subtable" m.ext.diagup
EndChar

StartChar: n.ext.up
Encoding: 248 -1 242
Width: 320
Flags: HW
AnchorPoint: "Extension_mkmk" 140 260 mark 0
LayerCount: 2
Fore
SplineSet
160 220 m 1
 144 227 130 221 120 200 c 1
 120 240 l 1
 60 240 l 1
 135 315 l 1
 140 310 l 1
 110 280 l 1
 160 280 l 1
 160 220 l 1
EndSplineSet
Substitution2: "Single Substitution lookup 29 subtable" n.ext.left
Substitution2: "Single Substitution lookup 28 subtable" n.ext.right
Substitution2: "Single Substitution lookup 27 subtable" n.ext.diagup
Substitution2: "Single Substitution lookup 23 subtable" n.ext.left
Substitution2: "Single Substitution lookup 22 subtable" n.ext.right
Substitution2: "Single Substitution lookup 21 subtable" n.ext.diagup
EndChar

StartChar: p.ext.up
Encoding: 249 -1 243
Width: 320
Flags: HW
AnchorPoint: "Extension_mkmk" 140 260 mark 0
LayerCount: 2
Fore
SplineSet
121 232 m 0
 120 231 120 230 120 230 c 2
 97 207 l 1
 51 251 l 1
 80 280 l 1
 120 240 l 1
 160 280 l 1
 160 221 l 1
 154 234 143 239 126 236 c 0
 124 234 122 233 121 232 c 0
EndSplineSet
Substitution2: "Single Substitution lookup 29 subtable" p.ext.left
Substitution2: "Single Substitution lookup 28 subtable" p.ext.right
Substitution2: "Single Substitution lookup 27 subtable" p.ext.diagup
Substitution2: "Single Substitution lookup 23 subtable" p.ext.left
Substitution2: "Single Substitution lookup 22 subtable" p.ext.right
Substitution2: "Single Substitution lookup 21 subtable" p.ext.diagup
EndChar

StartChar: P.ext.up
Encoding: 250 -1 244
Width: 320
Flags: HW
AnchorPoint: "Extension_mkmk" 140 260 mark 0
LayerCount: 2
Fore
SplineSet
121 232 m 0
 120 231 120 230 120 230 c 2
 97 207 l 1
 51 251 l 1
 80 280 l 1
 110 310 l 1
 115 305 l 1
 85 275 l 1
 120 240 l 1
 160 280 l 1
 160 221 l 1
 154 234 143 239 126 236 c 0
 124 234 122 233 121 232 c 0
EndSplineSet
Substitution2: "Single Substitution lookup 29 subtable" P.ext.left
Substitution2: "Single Substitution lookup 28 subtable" P.ext.right
Substitution2: "Single Substitution lookup 27 subtable" P.ext.diagup
Substitution2: "Single Substitution lookup 23 subtable" P.ext.left
Substitution2: "Single Substitution lookup 22 subtable" P.ext.right
Substitution2: "Single Substitution lookup 21 subtable" P.ext.diagup
EndChar

StartChar: r.upsidedown.ext.up
Encoding: 251 -1 245
Width: 320
Flags: HW
AnchorPoint: "Extension_mkmk" 140 260 mark 0
LayerCount: 2
Fore
SplineSet
120 320 m 1
 185 385 l 1
 190 380 l 1
 160 350 l 1
 160 280 l 2
 153 240 139 227 120 240 c 1
 120 320 l 1
EndSplineSet
Substitution2: "Single Substitution lookup 29 subtable" r.upsidedown.ext.left
Substitution2: "Single Substitution lookup 28 subtable" r.upsidedown.ext.right
Substitution2: "Single Substitution lookup 27 subtable" r.upsidedown.ext.diagup
Substitution2: "Single Substitution lookup 23 subtable" r.upsidedown.ext.left
Substitution2: "Single Substitution lookup 22 subtable" r.upsidedown.ext.right
Substitution2: "Single Substitution lookup 21 subtable" r.upsidedown.ext.diagup
EndChar

StartChar: r.ext.up
Encoding: 252 -1 246
Width: 320
Flags: HW
AnchorPoint: "Extension_mkmk" 140 260 mark 0
LayerCount: 2
Fore
SplineSet
120 310 m 1
 95 285 l 1
 90 290 l 1
 160 360 l 1
 160 280 l 2
 153 240 139 227 120 240 c 1
 120 310 l 1
EndSplineSet
Substitution2: "Single Substitution lookup 29 subtable" r.ext.left
Substitution2: "Single Substitution lookup 28 subtable" r.ext.right
Substitution2: "Single Substitution lookup 27 subtable" r.ext.diagup
Substitution2: "Single Substitution lookup 23 subtable" r.ext.left
Substitution2: "Single Substitution lookup 22 subtable" r.ext.right
Substitution2: "Single Substitution lookup 21 subtable" r.ext.diagup
EndChar

StartChar: s.ext.up
Encoding: 253 -1 247
Width: 320
Flags: HW
AnchorPoint: "Extension_mkmk" 140 260 mark 0
LayerCount: 2
Fore
SplineSet
120 195 m 1
 120 230 l 1
 95 205 l 1
 90 210 l 1
 160 280 l 1
 160 240 l 1
 147 243 133 227 120 195 c 1
EndSplineSet
Substitution2: "Single Substitution lookup 29 subtable" s.ext.left
Substitution2: "Single Substitution lookup 28 subtable" s.ext.right
Substitution2: "Single Substitution lookup 27 subtable" s.ext.diagup
Substitution2: "Single Substitution lookup 23 subtable" s.ext.left
Substitution2: "Single Substitution lookup 22 subtable" s.ext.right
Substitution2: "Single Substitution lookup 21 subtable" s.ext.diagup
EndChar

StartChar: t.ext.up
Encoding: 254 -1 248
Width: 320
Flags: HW
AnchorPoint: "Extension_mkmk" 140 260 mark 0
LayerCount: 2
Fore
SplineSet
120 240 m 1
 183 303 l 1
 235 252 l 1
 207 224 l 1
 160 270 l 1
 160 240 l 1
 150 251 137 244 120 220 c 1
 120 240 l 1
EndSplineSet
Substitution2: "Single Substitution lookup 29 subtable" t.ext.left
Substitution2: "Single Substitution lookup 28 subtable" t.ext.right
Substitution2: "Single Substitution lookup 27 subtable" t.ext.diagup
Substitution2: "Single Substitution lookup 23 subtable" t.ext.left
Substitution2: "Single Substitution lookup 22 subtable" t.ext.right
Substitution2: "Single Substitution lookup 21 subtable" t.ext.diagup
EndChar

StartChar: v.ext.up
Encoding: 255 -1 249
Width: 320
Flags: HW
AnchorPoint: "Extension_mkmk" 140 260 mark 0
LayerCount: 2
Fore
SplineSet
160 217 m 1
 146 230 133 223 120 198 c 1
 120 231 l 1
 95 205 l 1
 88 252 68 273 35 267 c 1
 66 296 95 287 120 240 c 1
 160 280 l 1
 160 217 l 1
EndSplineSet
Substitution2: "Single Substitution lookup 29 subtable" v.ext.left
Substitution2: "Single Substitution lookup 28 subtable" v.ext.right
Substitution2: "Single Substitution lookup 27 subtable" v.ext.diagup
Substitution2: "Single Substitution lookup 23 subtable" v.ext.left
Substitution2: "Single Substitution lookup 22 subtable" v.ext.right
Substitution2: "Single Substitution lookup 21 subtable" v.ext.diagup
EndChar

StartChar: velar.ext.up
Encoding: 256 -1 250
Width: 320
Flags: HW
AnchorPoint: "Extension_mkmk" 140 260 mark 0
LayerCount: 2
Fore
SplineSet
123 243 m 2
 123 243 l 1
 160 280 l 1
 160 228 l 1
 120 210 l 1
 120 231 l 1
 108 220 96 215 85 214 c 0
 71 213 58 220 45 234 c 1
 75 264 l 1
 81 254 88 246 98 242 c 0
 108 238 116 238 123 243 c 2
EndSplineSet
Substitution2: "Single Substitution lookup 29 subtable" velar.ext.left
Substitution2: "Single Substitution lookup 28 subtable" velar.ext.right
Substitution2: "Single Substitution lookup 27 subtable" velar.ext.diagup
Substitution2: "Single Substitution lookup 23 subtable" velar.ext.left
Substitution2: "Single Substitution lookup 22 subtable" velar.ext.right
Substitution2: "Single Substitution lookup 21 subtable" velar.ext.diagup
EndChar

StartChar: w.ext.up
Encoding: 257 -1 251
Width: 320
Flags: HW
AnchorPoint: "Extension_mkmk" 140 260 mark 0
LayerCount: 2
Fore
SplineSet
145 346 m 1
 150 341 l 1
 120 311 l 1
 120 240 l 1
 160 280 l 1
 160 220 l 1
 147 230 133 226 120 210 c 1
 120 231 l 1
 80 191 l 1
 80 280 l 1
 145 346 l 1
EndSplineSet
Substitution2: "Single Substitution lookup 29 subtable" w.ext.left
Substitution2: "Single Substitution lookup 28 subtable" w.ext.right
Substitution2: "Single Substitution lookup 27 subtable" w.ext.diagup
Substitution2: "Single Substitution lookup 23 subtable" w.ext.left
Substitution2: "Single Substitution lookup 22 subtable" w.ext.right
Substitution2: "Single Substitution lookup 21 subtable" w.ext.diagup
EndChar

StartChar: x.ext.up
Encoding: 258 -1 252
Width: 320
Flags: HW
AnchorPoint: "Extension_mkmk" 140 260 mark 0
LayerCount: 2
Fore
SplineSet
80 271 m 1
 106 314 143 324 190 301 c 1
 160 270 l 1
 160 226 l 1
 146 234 133 232 120 220 c 1
 120 240 l 1
 155 275 l 1
 136 291 111 290 80 271 c 1
EndSplineSet
Substitution2: "Single Substitution lookup 29 subtable" x.ext.left
Substitution2: "Single Substitution lookup 28 subtable" x.ext.right
Substitution2: "Single Substitution lookup 27 subtable" x.ext.diagup
Substitution2: "Single Substitution lookup 23 subtable" x.ext.left
Substitution2: "Single Substitution lookup 22 subtable" x.ext.right
Substitution2: "Single Substitution lookup 21 subtable" x.ext.diagup
EndChar

StartChar: y.ext.up
Encoding: 259 -1 253
Width: 320
Flags: HW
AnchorPoint: "Extension_mkmk" 140 260 mark 0
LayerCount: 2
Fore
SplineSet
40 280 m 1
 80 320 l 1
 150 320 l 1
 110 280 l 1
 160 280 l 1
 160 220 l 1
 144 227 130 221 120 200 c 1
 120 240 l 1
 60 240 l 1
 100 280 l 1
 40 280 l 1
EndSplineSet
Substitution2: "Single Substitution lookup 29 subtable" y.ext.left
Substitution2: "Single Substitution lookup 28 subtable" y.ext.right
Substitution2: "Single Substitution lookup 27 subtable" y.ext.diagup
Substitution2: "Single Substitution lookup 23 subtable" y.ext.left
Substitution2: "Single Substitution lookup 22 subtable" y.ext.right
Substitution2: "Single Substitution lookup 21 subtable" y.ext.diagup
EndChar

StartChar: z.ext.up
Encoding: 260 -1 254
Width: 320
Flags: HW
AnchorPoint: "Extension_mkmk" 140 260 mark 0
LayerCount: 2
Fore
SplineSet
190 300 m 1
 160 270 l 1
 160 235 l 1
 147 243 133 234 120 209 c 1
 120 240 l 1
 185 305 l 1
 190 300 l 1
EndSplineSet
Substitution2: "Single Substitution lookup 29 subtable" z.ext.left
Substitution2: "Single Substitution lookup 28 subtable" z.ext.right
Substitution2: "Single Substitution lookup 27 subtable" z.ext.diagup
Substitution2: "Single Substitution lookup 23 subtable" z.ext.left
Substitution2: "Single Substitution lookup 22 subtable" z.ext.right
Substitution2: "Single Substitution lookup 21 subtable" z.ext.diagup
EndChar

StartChar: glottal.ext.diagup
Encoding: 262 -1 256
Width: 320
Flags: HW
AnchorPoint: "Extension_mkmk" 140 260 mark 0
LayerCount: 2
Fore
SplineSet
137 257 m 1
 160 280 l 1
 176 249 168 237 135 245 c 1
 110 220 l 1
 105 225 l 1
 108 228 l 2
 132 253 122 266 79 269 c 1
 109 299 l 1
 133 288 142 274 137 257 c 1
EndSplineSet
EndChar

StartChar: ncaron.ext.diagup
Encoding: 263 -1 257
Width: 320
Flags: HW
AnchorPoint: "Extension_mkmk" 140 260 mark 0
LayerCount: 2
Fore
SplineSet
170 240 m 0
 168 232 159 232 140 240 c 2
 70 240 l 1
 35 205 l 1
 30 210 l 1
 100 280 l 1
 160 280 l 1
 171 261 174 247 170 240 c 0
EndSplineSet
EndChar

StartChar: scaron.ext.diagup
Encoding: 264 -1 258
Width: 320
Flags: HW
AnchorPoint: "Extension_mkmk" 140 260 mark 0
LayerCount: 2
Fore
SplineSet
135 245 m 2
 95 205 l 1
 95 294 l 1
 135 335 l 1
 135 255 l 1
 160 280 l 1
 162 267 162 259 160 256 c 0
 154 247 146 243 135 245 c 2
EndSplineSet
EndChar

StartChar: ddotbelow.ext.diagup
Encoding: 265 -1 259
Width: 320
Flags: HW
AnchorPoint: "Extension_mkmk" 140 260 mark 0
LayerCount: 2
Fore
SplineSet
165 250 m 0
 154 246 142 246 130 250 c 1
 190 310 l 1
 216 278 239 275 259 300 c 1
 247 259 216 251 165 275 c 2
 161 277 l 1
 167 270 169 261 165 250 c 0
EndSplineSet
EndChar

StartChar: tcedilla.ext.diagup
Encoding: 266 -1 260
Width: 320
Flags: HW
AnchorPoint: "Extension_mkmk" 140 260 mark 0
LayerCount: 2
Fore
SplineSet
130 250 m 1
 190 310 l 1
 249 308 262 288 229 250 c 1
 241 275 219 284 164 275 c 2
 159 275 l 1
 163 264 165 255 164 250 c 0
 161 241 150 241 130 250 c 1
EndSplineSet
EndChar

StartChar: ccedilla.ext.diagup
Encoding: 267 -1 261
Width: 320
Flags: HW
AnchorPoint: "Extension_mkmk" 140 260 mark 0
LayerCount: 2
Fore
SplineSet
295 345 m 1
 225 275 l 1
 165 275 l 1
 164 258 156 250 141 251 c 1
 149 262 155 271 160 280 c 2
 195 315 l 1
 255 315 l 1
 290 350 l 1
 295 345 l 1
EndSplineSet
EndChar

StartChar: ccaron.ext.diagup
Encoding: 268 -1 262
Width: 320
Flags: HW
AnchorPoint: "Extension_mkmk" 140 260 mark 0
LayerCount: 2
Fore
SplineSet
119 319 m 1
 119 319 l 1
 154 353 l 1
 158 348 l 1
 129 319 l 1
 208 319 l 1
 164 274 l 1
 169 255 158 247 130 250 c 1
 158 278 l 1
 79 278 l 1
 119 319 l 1
EndSplineSet
EndChar

StartChar: lcedilla.ext.diagup
Encoding: 269 -1 263
Width: 320
Flags: HW
AnchorPoint: "Extension_mkmk" 140 260 mark 0
LayerCount: 2
Fore
SplineSet
180 300 m 1
 260 300 l 1
 220 260 l 1
 170 260 l 1
 151 242 148 249 160 280 c 1
 180 300 l 1
EndSplineSet
EndChar

StartChar: zdotaccent.ext.diagup
Encoding: 270 -1 264
Width: 320
Flags: HW
AnchorPoint: "Extension_mkmk" 140 260 mark 0
LayerCount: 2
Fore
SplineSet
130 250 m 1
 150 270 l 1
 158 253 153 244 135 245 c 1
 100 210 l 1
 39 210 l 1
 5 175 l 1
 0 180 l 1
 70 250 l 1
 130 250 l 1
EndSplineSet
EndChar

StartChar: zcaron.ext.diagup
Encoding: 271 -1 265
Width: 320
Flags: HW
AnchorPoint: "Extension_mkmk" 140 260 mark 0
LayerCount: 2
Fore
SplineSet
160 256 m 0
 154 247 146 243 135 245 c 2
 95 205 l 1
 95 285 l 1
 70 260 l 1
 65 265 l 1
 135 335 l 1
 135 255 l 1
 160 280 l 1
 162 267 162 259 160 256 c 0
EndSplineSet
EndChar

StartChar: rcaron.ext.diagup
Encoding: 272 -1 266
Width: 320
Flags: HW
AnchorPoint: "Extension_mkmk" 140 260 mark 0
LayerCount: 2
Fore
SplineSet
160 280 m 1
 122 281 97 306 85 355 c 1
 114 320 150 304 195 305 c 1
 165 275 l 2
 167 270 166 263 163 255 c 0
 153 248 143 248 132 252 c 1
 160 280 l 1
EndSplineSet
EndChar

StartChar: b.ext.diagup
Encoding: 273 -1 267
Width: 320
Flags: HW
AnchorPoint: "Extension_mkmk" 140 260 mark 0
LayerCount: 2
Fore
SplineSet
130 250 m 1
 150 270 l 1
 158 253 153 244 135 245 c 1
 100 210 l 1
 30 210 l 1
 70 250 l 1
 130 250 l 1
EndSplineSet
EndChar

StartChar: c.ext.diagup
Encoding: 274 -1 268
Width: 320
Flags: HW
AnchorPoint: "Extension_mkmk" 140 260 mark 0
LayerCount: 2
Fore
SplineSet
130 250 m 1
 150 270 l 1
 158 253 153 244 135 245 c 1
 100 210 l 1
 30 210 l 1
 105 285 l 1
 109 280 l 1
 79 250 l 1
 130 250 l 1
EndSplineSet
EndChar

StartChar: equal.ext.diagup
Encoding: 275 -1 269
Width: 320
Flags: HW
AnchorPoint: "Extension_mkmk" 140 260 mark 0
LayerCount: 2
Fore
SplineSet
80 240 m 1
 80 300 l 1
 120 340 l 1
 120 280 l 1
 160 280 l 1
 171 261 174 247 170 240 c 0
 168 232 159 232 140 240 c 2
 80 240 l 1
EndSplineSet
EndChar

StartChar: d.ext.diagup
Encoding: 276 -1 270
Width: 320
Flags: HW
AnchorPoint: "Extension_mkmk" 140 260 mark 0
LayerCount: 2
Fore
SplineSet
165 275 m 1
 164 258 156 250 141 251 c 1
 149 262 155 271 160 280 c 2
 195 315 l 1
 265 315 l 1
 225 275 l 1
 165 275 l 1
EndSplineSet
EndChar

StartChar: D.ext.diagup
Encoding: 277 -1 271
Width: 320
Flags: HW
AnchorPoint: "Extension_mkmk" 140 260 mark 0
LayerCount: 2
Fore
SplineSet
165 275 m 1
 164 258 156 250 141 251 c 1
 149 262 155 271 160 280 c 2
 195 315 l 1
 284 315 l 1
 244 275 l 1
 214 245 l 1
 210 250 l 1
 235 275 l 1
 165 275 l 1
EndSplineSet
EndChar

StartChar: glottal.flip.ext.diagup
Encoding: 278 -1 272
Width: 320
Flags: HW
AnchorPoint: "Extension_mkmk" 140 260 mark 0
LayerCount: 2
Fore
SplineSet
115 305 m 1
 135 280 159 280 186 306 c 0
 187 307 l 0
 188 308 189 309 190 310 c 1
 195 305 l 1
 165 275 l 1
 176 246 165 238 130 250 c 1
 151 271 l 1
 130 254 108 255 85 275 c 1
 115 305 l 1
EndSplineSet
EndChar

StartChar: approxequal.ext.diagup
Encoding: 279 -1 273
Width: 320
Flags: HW
AnchorPoint: "Extension_mkmk" 140 260 mark 0
LayerCount: 2
Fore
SplineSet
160 280 m 1
 160 340 l 1
 200 380 l 1
 200 311 l 1
 165 275 l 1
 172 245 161 237 130 250 c 1
 160 280 l 1
EndSplineSet
EndChar

StartChar: f.ext.diagup
Encoding: 280 -1 274
Width: 320
Flags: HW
AnchorPoint: "Extension_mkmk" 140 260 mark 0
LayerCount: 2
Fore
SplineSet
65 325 m 1
 79 282 101 257 130 250 c 1
 155 275 l 1
 165 250 159 241 138 249 c 1
 130 241 l 1
 105 215 l 1
 78 230 64 267 65 325 c 1
EndSplineSet
EndChar

StartChar: g.ext.diagup
Encoding: 281 -1 275
Width: 320
Flags: HW
AnchorPoint: "Extension_mkmk" 140 260 mark 0
LayerCount: 2
Fore
SplineSet
113 327 m 1
 141 355 l 1
 193 304 l 1
 165 275 l 1
 168 262 l 2
 170 256 160 256 140 260 c 1
 160 280 l 1
 113 327 l 1
EndSplineSet
EndChar

StartChar: G.ext.diagup
Encoding: 282 -1 276
Width: 320
Flags: HW
AnchorPoint: "Extension_mkmk" 140 260 mark 0
LayerCount: 2
Fore
SplineSet
113 327 m 1
 171 385 l 1
 176 380 l 1
 146 350 l 1
 193 304 l 1
 165 275 l 1
 168 262 l 2
 170 256 160 256 140 260 c 1
 160 280 l 1
 113 327 l 1
EndSplineSet
EndChar

StartChar: h.ext.diagup
Encoding: 283 -1 277
Width: 320
Flags: HW
AnchorPoint: "Extension_mkmk" 140 260 mark 0
LayerCount: 2
Fore
SplineSet
230 401 m 1
 200 371 l 1
 200 311 l 1
 165 275 l 1
 172 245 161 237 130 250 c 1
 160 280 l 1
 160 340 l 1
 225 405 l 1
 230 401 l 1
EndSplineSet
EndChar

StartChar: j.ext.diagup
Encoding: 284 -1 278
Width: 320
Flags: HW
AnchorPoint: "Extension_mkmk" 140 260 mark 0
LayerCount: 2
Fore
SplineSet
88 278 m 1
 54 244 l 1
 49 249 l 1
 119 319 l 1
 208 319 l 1
 164 274 l 1
 169 255 158 247 130 250 c 1
 158 278 l 1
 88 278 l 1
EndSplineSet
EndChar

StartChar: k.ext.diagup
Encoding: 285 -1 279
Width: 320
Flags: HW
AnchorPoint: "Extension_mkmk" 140 260 mark 0
LayerCount: 2
Fore
SplineSet
164 274 m 1
 169 255 158 247 130 250 c 1
 158 278 l 1
 79 278 l 1
 119 319 l 1
 208 319 l 1
 164 274 l 1
EndSplineSet
EndChar

StartChar: l.ext.diagup
Encoding: 286 -1 280
Width: 320
Flags: HW
AnchorPoint: "Extension_mkmk" 140 260 mark 0
LayerCount: 2
Fore
SplineSet
100 340 m 1
 160 280 l 1
 158 261 148 251 130 250 c 1
 70 310 l 1
 100 340 l 1
EndSplineSet
EndChar

StartChar: m.ext.diagup
Encoding: 287 -1 281
Width: 320
Flags: HW
AnchorPoint: "Extension_mkmk" 140 260 mark 0
LayerCount: 2
Fore
SplineSet
170 240 m 0
 168 232 159 232 140 240 c 2
 60 240 l 1
 100 280 l 1
 160 280 l 1
 171 261 174 247 170 240 c 0
EndSplineSet
EndChar

StartChar: n.ext.diagup
Encoding: 288 -1 282
Width: 320
Flags: HW
AnchorPoint: "Extension_mkmk" 140 260 mark 0
LayerCount: 2
Fore
SplineSet
170 240 m 0
 168 232 159 232 140 240 c 2
 60 240 l 1
 135 315 l 1
 140 310 l 1
 110 280 l 1
 160 280 l 1
 171 261 174 247 170 240 c 0
EndSplineSet
EndChar

StartChar: p.ext.diagup
Encoding: 289 -1 283
Width: 320
Flags: HW
AnchorPoint: "Extension_mkmk" 140 260 mark 0
LayerCount: 2
Fore
SplineSet
150 270 m 1
 154 274 l 1
 156 261 156 252 154 249 c 0
 152 244 147 244 139 249 c 2
 135 245 l 1
 107 217 l 1
 61 261 l 1
 90 290 l 1
 130 250 l 1
 150 270 l 1
EndSplineSet
EndChar

StartChar: P.ext.diagup
Encoding: 290 -1 284
Width: 320
Flags: HW
AnchorPoint: "Extension_mkmk" 140 260 mark 0
LayerCount: 2
Fore
SplineSet
150 270 m 1
 154 274 l 1
 156 261 156 252 154 249 c 0
 152 244 147 244 139 249 c 2
 135 245 l 1
 107 217 l 1
 61 261 l 1
 90 290 l 1
 120 320 l 1
 125 315 l 1
 95 285 l 1
 130 250 l 1
 150 270 l 1
EndSplineSet
EndChar

StartChar: r.upsidedown.ext.diagup
Encoding: 291 -1 285
Width: 320
Flags: HW
AnchorPoint: "Extension_mkmk" 140 260 mark 0
LayerCount: 2
Fore
SplineSet
130 250 m 1
 70 310 l 1
 130 370 l 1
 135 365 l 1
 105 335 l 1
 160 280 l 1
 158 261 148 251 130 250 c 1
EndSplineSet
EndChar

StartChar: r.ext.diagup
Encoding: 292 -1 286
Width: 320
Flags: HW
AnchorPoint: "Extension_mkmk" 140 260 mark 0
LayerCount: 2
Fore
SplineSet
130 250 m 1
 75 305 l 1
 45 275 l 1
 40 280 l 1
 100 340 l 1
 160 280 l 1
 158 261 148 251 130 250 c 1
EndSplineSet
EndChar

StartChar: s.ext.diagup
Encoding: 293 -1 287
Width: 320
Flags: HW
AnchorPoint: "Extension_mkmk" 140 260 mark 0
LayerCount: 2
Fore
SplineSet
156 268 m 1
 156 256 155 248 153 244 c 0
 152 240 146 241 135 245 c 1
 105 215 l 1
 100 220 l 1
 130 250 l 2
 138 257 147 263 156 268 c 1
EndSplineSet
EndChar

StartChar: t.ext.diagup
Encoding: 294 -1 288
Width: 320
Flags: HW
AnchorPoint: "Extension_mkmk" 140 260 mark 0
LayerCount: 2
Fore
SplineSet
135 245 m 1
 135 195 l 1
 95 155 l 1
 95 215 l 1
 130 250 l 2
 138 250 146 255 154 265 c 1
 159 248 152 242 135 245 c 1
EndSplineSet
EndChar

StartChar: v.ext.diagup
Encoding: 295 -1 289
Width: 320
Flags: HW
AnchorPoint: "Extension_mkmk" 140 260 mark 0
LayerCount: 2
Fore
SplineSet
135 245 m 1
 109 220 l 1
 102 267 83 288 50 282 c 1
 81 311 110 302 135 255 c 1
 160 280 l 1
 165 249 157 238 135 245 c 1
 135 245 l 1
EndSplineSet
EndChar

StartChar: velar.ext.diagup
Encoding: 296 -1 290
Width: 320
Flags: HW
AnchorPoint: "Extension_mkmk" 140 260 mark 0
LayerCount: 2
Fore
SplineSet
56 244 m 1
 86 275 l 1
 93 263 102 254 113 251 c 0
 122 248 129 250 134 254 c 2
 160 280 l 1
 176 249 167 238 135 246 c 1
 122 233 109 226 96 225 c 0
 82 224 69 230 56 244 c 1
EndSplineSet
EndChar

StartChar: w.ext.diagup
Encoding: 297 -1 291
Width: 320
Flags: HW
AnchorPoint: "Extension_mkmk" 140 260 mark 0
LayerCount: 2
Fore
SplineSet
135 325 m 1
 135 255 l 1
 160 280 l 1
 162 267 162 259 160 256 c 0
 154 247 146 243 135 245 c 2
 95 205 l 1
 95 294 l 1
 160 359 l 1
 165 355 l 1
 135 325 l 1
EndSplineSet
EndChar

StartChar: x.ext.diagup
Encoding: 298 -1 292
Width: 320
Flags: HW
AnchorPoint: "Extension_mkmk" 140 260 mark 0
LayerCount: 2
Fore
SplineSet
165 275 m 1
 169 262 168 256 163 257 c 0
 156 259 150 262 145 265 c 1
 160 280 l 1
 141 296 116 294 85 275 c 1
 111 318 148 328 195 305 c 1
 165 275 l 1
EndSplineSet
EndChar

StartChar: y.ext.diagup
Encoding: 299 -1 293
Width: 320
Flags: HW
AnchorPoint: "Extension_mkmk" 140 260 mark 0
LayerCount: 2
Fore
SplineSet
150 320 m 1
 110 280 l 1
 160 280 l 1
 171 261 174 247 170 240 c 0
 168 232 159 232 140 240 c 2
 60 240 l 1
 100 280 l 1
 40 280 l 1
 80 320 l 1
 150 320 l 1
EndSplineSet
EndChar

StartChar: z.ext.diagup
Encoding: 300 -1 294
Width: 320
Flags: HW
AnchorPoint: "Extension_mkmk" 140 260 mark 0
LayerCount: 2
Fore
SplineSet
142 254 m 1
 147 263 153 272 160 280 c 2
 190 310 l 1
 195 305 l 1
 165 275 l 1
 169 264 170 258 166 257 c 0
 162 255 154 254 142 254 c 1
EndSplineSet
EndChar

StartChar: glottal.ext.right
Encoding: 301 -1 295
Width: 320
Flags: HW
AnchorPoint: "Extension_mkmk" 140 260 mark 0
LayerCount: 2
Fore
SplineSet
187 307 m 2
 163 282 173 268 216 265 c 1
 186 235 l 1
 162 246 152 260 157 277 c 1
 120 240 l 1
 100 240 l 1
 120 250 127 264 120 280 c 1
 150 280 l 1
 185 315 l 1
 190 310 l 1
 187 307 l 2
EndSplineSet
EndChar

StartChar: ncaron.ext.right
Encoding: 302 -1 296
Width: 320
Flags: HW
AnchorPoint: "Extension_mkmk" 140 260 mark 0
LayerCount: 2
Fore
SplineSet
185 255 m 1
 190 250 l 1
 120 180 l 1
 120 240 l 1
 80 240 l 1
 101 250 107 264 100 280 c 1
 160 280 l 1
 160 230 l 1
 185 255 l 1
EndSplineSet
EndChar

StartChar: scaron.ext.right
Encoding: 303 -1 297
Width: 320
Flags: HW
AnchorPoint: "Extension_mkmk" 140 260 mark 0
LayerCount: 2
Fore
SplineSet
100 240 m 1
 109 256 109 269 100 280 c 1
 150 280 l 1
 190 320 l 1
 190 230 l 1
 150 191 l 1
 150 270 l 1
 120 240 l 1
 100 240 l 1
EndSplineSet
EndChar

StartChar: ddotbelow.ext.right
Encoding: 304 -1 298
Width: 320
Flags: HW
AnchorPoint: "Extension_mkmk" 140 260 mark 0
LayerCount: 2
Fore
SplineSet
78 240 m 1
 103 253 110 266 97 280 c 1
 151 280 l 1
 131 313 132 342 154 365 c 1
 151 337 161 316 185 305 c 1
 120 240 l 1
 78 240 l 1
EndSplineSet
EndChar

StartChar: tcedilla.ext.right
Encoding: 305 -1 299
Width: 320
Flags: HW
AnchorPoint: "Extension_mkmk" 140 260 mark 0
LayerCount: 2
Fore
SplineSet
151 280 m 1
 151 321 142 346 124 355 c 1
 126 355 126 355 128 355 c 0
 130 355 133 355 135 355 c 0
 160 352 176 335 185 305 c 1
 120 240 l 1
 78 240 l 1
 103 253 110 266 97 280 c 1
 151 280 l 1
EndSplineSet
EndChar

StartChar: ccedilla.ext.right
Encoding: 306 -1 300
Width: 320
Flags: HW
AnchorPoint: "Extension_mkmk" 140 260 mark 0
LayerCount: 2
Fore
SplineSet
150 280 m 1
 103 327 l 1
 161 385 l 1
 166 380 l 1
 136 350 l 1
 183 304 l 1
 119 240 l 1
 99 240 l 1
 119 255 126 268 119 280 c 1
 150 280 l 1
EndSplineSet
EndChar

StartChar: ccaron.ext.right
Encoding: 307 -1 301
Width: 320
Flags: HW
AnchorPoint: "Extension_mkmk" 140 260 mark 0
LayerCount: 2
Fore
SplineSet
160 200 m 1
 125 165 l 1
 120 170 l 1
 150 200 l 1
 71 200 l 1
 111 240 l 1
 89 240 l 1
 118 257 125 271 110 280 c 1
 160 280 l 1
 120 240 l 1
 200 240 l 1
 160 200 l 1
 160 200 l 1
EndSplineSet
EndChar

StartChar: lcedilla.ext.right
Encoding: 308 -1 302
Width: 320
Flags: HW
AnchorPoint: "Extension_mkmk" 140 260 mark 0
LayerCount: 2
Fore
SplineSet
120 280 m 1
 120 320 l 1
 160 360 l 1
 230 290 l 1
 200 260 l 1
 160 300 l 1
 160 280 l 1
 120 240 l 1
 90 240 l 1
 108 254 111 268 100 280 c 1
 120 280 l 1
EndSplineSet
EndChar

StartChar: zdotaccent.ext.right
Encoding: 309 -1 303
Width: 320
Flags: HW
AnchorPoint: "Extension_mkmk" 140 260 mark 0
LayerCount: 2
Fore
SplineSet
125 296 m 1
 120 300 l 1
 190 370 l 1
 190 310 l 1
 120 240 l 1
 98 240 l 1
 113 254 111 267 96 280 c 1
 150 280 l 1
 150 321 l 1
 125 296 l 1
EndSplineSet
EndChar

StartChar: zcaron.ext.right
Encoding: 310 -1 304
Width: 320
Flags: HW
AnchorPoint: "Extension_mkmk" 140 260 mark 0
LayerCount: 2
Fore
SplineSet
100 240 m 1
 109 256 109 269 100 280 c 1
 150 280 l 1
 190 320 l 1
 190 240 l 1
 216 265 l 1
 220 261 l 1
 190 231 l 1
 190 230 l 1
 150 191 l 1
 150 271 l 1
 120 240 l 1
 100 240 l 1
EndSplineSet
EndChar

StartChar: rcaron.ext.right
Encoding: 311 -1 305
Width: 320
Flags: HW
AnchorPoint: "Extension_mkmk" 140 260 mark 0
LayerCount: 2
Fore
SplineSet
97 280 m 1
 160 280 l 1
 120 240 l 1
 167 215 176 186 147 155 c 1
 153 188 132 208 85 215 c 1
 111 240 l 1
 78 240 l 1
 103 253 110 266 97 280 c 1
EndSplineSet
EndChar

StartChar: b.ext.right
Encoding: 312 -1 306
Width: 320
Flags: HW
AnchorPoint: "Extension_mkmk" 140 260 mark 0
LayerCount: 2
Fore
SplineSet
160 280 m 1
 120 240 l 1
 95 240 l 1
 125 255 133 269 120 280 c 1
 151 280 l 1
 190 320 l 1
 260 320 l 1
 220 280 l 1
 160 280 l 1
EndSplineSet
EndChar

StartChar: c.ext.right
Encoding: 313 -1 307
Width: 320
Flags: HW
AnchorPoint: "Extension_mkmk" 140 260 mark 0
LayerCount: 2
Fore
SplineSet
160 280 m 1
 120 240 l 1
 95 240 l 1
 125 255 133 269 120 280 c 1
 151 280 l 1
 190 320 l 1
 260 320 l 1
 185 245 l 1
 181 250 l 1
 211 280 l 1
 160 280 l 1
EndSplineSet
EndChar

StartChar: equal.ext.right
Encoding: 314 -1 308
Width: 320
Flags: HW
AnchorPoint: "Extension_mkmk" 140 260 mark 0
LayerCount: 2
Fore
SplineSet
100 280 m 1
 160 280 l 1
 160 220 l 1
 120 180 l 1
 120 240 l 1
 80 240 l 1
 101 250 107 264 100 280 c 1
EndSplineSet
EndChar

StartChar: d.ext.right
Encoding: 315 -1 309
Width: 320
Flags: HW
AnchorPoint: "Extension_mkmk" 140 260 mark 0
LayerCount: 2
Fore
SplineSet
120 280 m 1
 151 280 l 1
 103 327 l 1
 131 355 l 1
 183 304 l 1
 120 240 l 1
 100 240 l 1
 120 255 127 268 120 280 c 1
EndSplineSet
EndChar

StartChar: D.ext.right
Encoding: 316 -1 310
Width: 320
Flags: HW
AnchorPoint: "Extension_mkmk" 140 260 mark 0
LayerCount: 2
Fore
SplineSet
120 280 m 1
 151 280 l 1
 108 322 l 1
 83 297 l 1
 78 302 l 1
 103 327 l 1
 131 355 l 1
 183 304 l 1
 120 240 l 1
 100 240 l 1
 120 255 127 268 120 280 c 1
EndSplineSet
EndChar

StartChar: glottal.flip.ext.right
Encoding: 317 -1 311
Width: 320
Flags: HW
AnchorPoint: "Extension_mkmk" 140 260 mark 0
LayerCount: 2
Fore
SplineSet
160 280 m 1
 125 244 l 1
 146 261 168 260 191 240 c 1
 161 210 l 1
 141 235 117 235 90 209 c 0
 89 208 l 0
 88 207 87 206 86 205 c 1
 81 210 l 1
 111 240 l 1
 71 240 l 1
 96 250 102 263 91 280 c 1
 160 280 l 1
EndSplineSet
EndChar

StartChar: approxequal.ext.right
Encoding: 318 -1 312
Width: 320
Flags: HW
AnchorPoint: "Extension_mkmk" 140 260 mark 0
LayerCount: 2
Fore
SplineSet
80 140 m 1
 80 209 l 1
 111 241 l 1
 110 240 l 1
 80 240 l 1
 97 261 100 274 87 280 c 1
 160 280 l 1
 120 240 l 1
 120 180 l 1
 80 140 l 1
EndSplineSet
EndChar

StartChar: f.ext.right
Encoding: 319 -1 313
Width: 320
Flags: HW
AnchorPoint: "Extension_mkmk" 140 260 mark 0
LayerCount: 2
Fore
SplineSet
151 200 m 1
 170 231 171 256 155 275 c 1
 120 240 l 1
 100 240 l 1
 112 253 114 266 106 280 c 1
 151 280 l 1
 181 310 l 1
 204 263 194 226 151 200 c 1
EndSplineSet
EndChar

StartChar: g.ext.right
Encoding: 320 -1 314
Width: 320
Flags: HW
AnchorPoint: "Extension_mkmk" 140 260 mark 0
LayerCount: 2
Fore
SplineSet
167 193 m 1
 139 165 l 1
 87 216 l 1
 111 240 l 1
 92 240 l 1
 117 253 125 266 115 280 c 1
 160 280 l 1
 120 240 l 1
 167 193 l 1
EndSplineSet
EndChar

StartChar: G.ext.right
Encoding: 321 -1 315
Width: 320
Flags: HW
AnchorPoint: "Extension_mkmk" 140 260 mark 0
LayerCount: 2
Fore
SplineSet
167 193 m 1
 109 135 l 1
 104 140 l 1
 134 170 l 1
 87 216 l 1
 111 240 l 1
 92 240 l 1
 117 253 125 266 115 280 c 1
 160 280 l 1
 120 240 l 1
 167 193 l 1
EndSplineSet
EndChar

StartChar: h.ext.right
Encoding: 322 -1 316
Width: 320
Flags: HW
AnchorPoint: "Extension_mkmk" 140 260 mark 0
LayerCount: 2
Fore
SplineSet
50 119 m 1
 80 149 l 1
 80 209 l 1
 111 241 l 1
 110 240 l 1
 80 240 l 1
 97 261 100 274 87 280 c 1
 160 280 l 1
 120 240 l 1
 120 180 l 1
 55 114 l 1
 50 119 l 1
EndSplineSet
EndChar

StartChar: j.ext.right
Encoding: 323 -1 317
Width: 320
Flags: HW
AnchorPoint: "Extension_mkmk" 140 260 mark 0
LayerCount: 2
Fore
SplineSet
70 200 m 1
 110 240 l 1
 88 240 l 1
 117 257 124 271 109 280 c 1
 160 280 l 1
 120 240 l 1
 190 240 l 1
 225 275 l 1
 230 270 l 1
 160 200 l 1
 70 200 l 1
EndSplineSet
EndChar

StartChar: k.ext.right
Encoding: 324 -1 318
Width: 320
Flags: HW
AnchorPoint: "Extension_mkmk" 140 260 mark 0
LayerCount: 2
Fore
SplineSet
70 200 m 1
 110 240 l 1
 88 240 l 1
 117 257 124 271 109 280 c 1
 160 280 l 1
 120 240 l 1
 200 240 l 1
 160 200 l 1
 70 200 l 1
EndSplineSet
EndChar

StartChar: l.ext.right
Encoding: 325 -1 319
Width: 320
Flags: HW
AnchorPoint: "Extension_mkmk" 140 260 mark 0
LayerCount: 2
Fore
SplineSet
140 240 m 1
 120 240 l 1
 124 259 137 273 160 280 c 1
 220 220 l 1
 190 190 l 1
 140 240 l 1
EndSplineSet
EndChar

StartChar: m.ext.right
Encoding: 326 -1 320
Width: 320
Flags: HW
AnchorPoint: "Extension_mkmk" 140 260 mark 0
LayerCount: 2
Fore
SplineSet
80 280 m 1
 120 280 l 1
 120 300 l 1
 160 340 l 1
 160 280 l 1
 120 240 l 1
 80 240 l 1
 97 258 97 271 80 280 c 1
EndSplineSet
EndChar

StartChar: n.ext.right
Encoding: 327 -1 321
Width: 320
Flags: HW
AnchorPoint: "Extension_mkmk" 140 260 mark 0
LayerCount: 2
Fore
SplineSet
160 280 m 1
 160 220 l 1
 95 155 l 1
 90 160 l 1
 120 190 l 1
 120 240 l 1
 80 240 l 1
 101 250 107 264 100 280 c 1
 160 280 l 1
EndSplineSet
EndChar

StartChar: p.ext.right
Encoding: 328 -1 322
Width: 320
Flags: HW
AnchorPoint: "Extension_mkmk" 140 260 mark 0
LayerCount: 2
Fore
SplineSet
102 240 m 1
 127 253 135 267 125 280 c 1
 150 280 l 1
 179 309 l 1
 224 264 l 1
 195 235 l 1
 155 275 l 1
 120 240 l 1
 102 240 l 1
EndSplineSet
EndChar

StartChar: P.ext.right
Encoding: 329 -1 323
Width: 320
Flags: HW
AnchorPoint: "Extension_mkmk" 140 260 mark 0
LayerCount: 2
Fore
SplineSet
102 240 m 1
 127 253 135 267 125 280 c 1
 150 280 l 1
 179 309 l 1
 224 264 l 1
 195 235 l 1
 165 205 l 1
 160 210 l 1
 190 240 l 1
 155 275 l 1
 120 240 l 1
 102 240 l 1
EndSplineSet
EndChar

StartChar: r.upsidedown.ext.right
Encoding: 330 -1 324
Width: 320
Flags: HW
AnchorPoint: "Extension_mkmk" 140 260 mark 0
LayerCount: 2
Fore
SplineSet
220 220 m 1
 160 160 l 1
 155 165 l 1
 185 195 l 1
 140 240 l 1
 120 240 l 1
 124 259 137 273 160 280 c 1
 220 220 l 1
EndSplineSet
EndChar

StartChar: r.ext.right
Encoding: 331 -1 325
Width: 320
Flags: HW
AnchorPoint: "Extension_mkmk" 140 260 mark 0
LayerCount: 2
Fore
SplineSet
250 250 m 1
 190 190 l 1
 140 240 l 1
 120 240 l 1
 124 259 137 273 160 280 c 1
 215 225 l 1
 245 255 l 1
 250 250 l 1
EndSplineSet
EndChar

StartChar: s.ext.right
Encoding: 332 -1 326
Width: 320
Flags: HW
AnchorPoint: "Extension_mkmk" 140 260 mark 0
LayerCount: 2
Fore
SplineSet
80 240 m 1
 109 252 122 266 120 280 c 1
 150 280 l 1
 185 315 l 1
 190 310 l 1
 120 240 l 1
 80 240 l 1
EndSplineSet
EndChar

StartChar: t.ext.right
Encoding: 333 -1 327
Width: 320
Flags: HW
AnchorPoint: "Extension_mkmk" 140 260 mark 0
LayerCount: 2
Fore
SplineSet
129 280 m 1
 150 280 l 1
 150 330 l 1
 190 370 l 1
 190 310 l 1
 120 240 l 1
 98 240 l 1
 120 254 130 267 129 280 c 1
EndSplineSet
EndChar

StartChar: v.ext.right
Encoding: 334 -1 328
Width: 320
Flags: HW
AnchorPoint: "Extension_mkmk" 140 260 mark 0
LayerCount: 2
Fore
SplineSet
181 310 m 1
 181 310 l 1
 180 265 196 229 231 200 c 1
 182 212 156 237 155 275 c 1
 120 240 l 1
 100 240 l 1
 112 253 114 266 106 280 c 1
 151 280 l 1
 181 310 l 1
EndSplineSet
EndChar

StartChar: velar.ext.right
Encoding: 335 -1 329
Width: 320
Flags: HW
AnchorPoint: "Extension_mkmk" 140 260 mark 0
LayerCount: 2
Fore
SplineSet
157 277 m 2
 120 240 l 1
 100 240 l 1
 115 250 117 263 103 280 c 1
 151 280 l 1
 156 285 l 2
 169 298 182 305 195 306 c 0
 209 307 222 300 235 286 c 1
 205 256 l 1
 199 266 192 274 182 278 c 0
 172 282 164 282 157 277 c 2
EndSplineSet
EndChar

StartChar: w.ext.right
Encoding: 336 -1 330
Width: 320
Flags: HW
AnchorPoint: "Extension_mkmk" 140 260 mark 0
LayerCount: 2
Fore
SplineSet
125 165 m 1
 120 170 l 1
 150 200 l 1
 150 271 l 1
 120 240 l 1
 100 240 l 1
 109 256 109 269 100 280 c 1
 150 280 l 1
 190 320 l 1
 190 230 l 1
 125 165 l 1
EndSplineSet
EndChar

StartChar: x.ext.right
Encoding: 337 -1 331
Width: 320
Flags: HW
AnchorPoint: "Extension_mkmk" 140 260 mark 0
LayerCount: 2
Fore
SplineSet
105 280 m 1
 160 280 l 1
 120 240 l 1
 127 211 152 189 195 175 c 1
 137 174 100 188 85 215 c 1
 111 240 l 1
 80 240 l 1
 104 256 112 270 105 280 c 1
EndSplineSet
EndChar

StartChar: y.ext.right
Encoding: 338 -1 332
Width: 320
Flags: HW
AnchorPoint: "Extension_mkmk" 140 260 mark 0
LayerCount: 2
Fore
SplineSet
120 240 m 1
 80 240 l 1
 101 250 107 264 100 280 c 1
 160 280 l 1
 160 220 l 1
 120 180 l 1
 180 180 l 1
 140 140 l 1
 70 140 l 1
 120 190 l 1
 120 240 l 1
EndSplineSet
EndChar

StartChar: z.ext.right
Encoding: 339 -1 333
Width: 320
Flags: HW
AnchorPoint: "Extension_mkmk" 140 260 mark 0
LayerCount: 2
Fore
SplineSet
80 210 m 1
 110 240 l 1
 80 240 l 1
 109 252 122 266 120 280 c 1
 160 280 l 1
 85 205 l 1
 80 210 l 1
EndSplineSet
EndChar

StartChar: glottal.ext.down
Encoding: 340 -1 334
Width: 320
Flags: HW
AnchorPoint: "Extension_mkmk" 100 20 mark 0
LayerCount: 2
Fore
SplineSet
146 -5 m 1
 122 6 112 21 117 38 c 1
 80 0 l 1
 80 40 l 1
 93 37 107 53 120 85 c 1
 120 50 l 1
 145 75 l 1
 150 70 l 1
 147 67 l 2
 123 42 133 28 176 25 c 1
 146 -5 l 1
EndSplineSet
Substitution2: "Single Substitution lookup 32 subtable" glottal.ext.left
Substitution2: "Single Substitution lookup 31 subtable" glottal.ext.right
Substitution2: "Single Substitution lookup 30 subtable" glottal.ext.diagdown
Substitution2: "Single Substitution lookup 26 subtable" glottal.ext.left
Substitution2: "Single Substitution lookup 25 subtable" glottal.ext.right
Substitution2: "Single Substitution lookup 24 subtable" glottal.ext.diagdown
EndChar

StartChar: ncaron.ext.down
Encoding: 341 -1 335
Width: 320
Flags: HW
AnchorPoint: "Extension_mkmk" 100 20 mark 0
LayerCount: 2
Fore
SplineSet
80 60 m 1
 96 53 110 59 120 80 c 1
 120 40 l 1
 170 40 l 1
 205 75 l 1
 210 70 l 1
 140 0 l 1
 80 0 l 1
 80 60 l 1
EndSplineSet
Substitution2: "Single Substitution lookup 32 subtable" ncaron.ext.left
Substitution2: "Single Substitution lookup 31 subtable" ncaron.ext.right
Substitution2: "Single Substitution lookup 30 subtable" ncaron.ext.diagdown
Substitution2: "Single Substitution lookup 26 subtable" ncaron.ext.left
Substitution2: "Single Substitution lookup 25 subtable" ncaron.ext.right
Substitution2: "Single Substitution lookup 24 subtable" ncaron.ext.diagdown
EndChar

StartChar: scaron.ext.down
Encoding: 342 -1 336
Width: 320
Flags: HW
AnchorPoint: "Extension_mkmk" 100 20 mark 0
LayerCount: 2
Fore
SplineSet
80 60 m 1
 93 50 107 54 120 70 c 1
 120 49 l 1
 160 89 l 1
 160 0 l 1
 120 -40 l 1
 120 40 l 1
 80 0 l 1
 80 60 l 1
EndSplineSet
Substitution2: "Single Substitution lookup 32 subtable" scaron.ext.left
Substitution2: "Single Substitution lookup 31 subtable" scaron.ext.right
Substitution2: "Single Substitution lookup 30 subtable" scaron.ext.diagdown
Substitution2: "Single Substitution lookup 26 subtable" scaron.ext.left
Substitution2: "Single Substitution lookup 25 subtable" scaron.ext.right
Substitution2: "Single Substitution lookup 24 subtable" scaron.ext.diagdown
EndChar

StartChar: ddotbelow.ext.down
Encoding: 343 -1 337
Width: 320
Flags: HW
AnchorPoint: "Extension_mkmk" 100 20 mark 0
LayerCount: 2
Fore
SplineSet
-4 3 m 1
 18 23 46 25 80 9 c 1
 80 63 l 1
 94 50 107 57 120 82 c 1
 120 40 l 1
 55 -25 l 1
 44 -4 24 5 -4 3 c 1
EndSplineSet
Substitution2: "Single Substitution lookup 32 subtable" ddotbelow.ext.left
Substitution2: "Single Substitution lookup 31 subtable" ddotbelow.ext.right
Substitution2: "Single Substitution lookup 30 subtable" ddotbelow.ext.diagdown
Substitution2: "Single Substitution lookup 26 subtable" ddotbelow.ext.left
Substitution2: "Single Substitution lookup 25 subtable" ddotbelow.ext.right
Substitution2: "Single Substitution lookup 24 subtable" ddotbelow.ext.diagdown
EndChar

StartChar: tcedilla.ext.down
Encoding: 344 -1 338
Width: 320
Flags: HW
AnchorPoint: "Extension_mkmk" 100 20 mark 0
LayerCount: 2
Fore
SplineSet
80 9 m 1
 80 63 l 1
 94 50 107 57 120 82 c 1
 120 40 l 1
 55 -25 l 1
 25 -16 8 0 5 25 c 0
 5 27 5 30 5 32 c 0
 5 34 5 34 5 36 c 1
 14 18 39 9 80 9 c 1
EndSplineSet
Substitution2: "Single Substitution lookup 32 subtable" tcedilla.ext.left
Substitution2: "Single Substitution lookup 31 subtable" tcedilla.ext.right
Substitution2: "Single Substitution lookup 30 subtable" tcedilla.ext.diagdown
Substitution2: "Single Substitution lookup 26 subtable" tcedilla.ext.left
Substitution2: "Single Substitution lookup 25 subtable" tcedilla.ext.right
Substitution2: "Single Substitution lookup 24 subtable" tcedilla.ext.diagdown
EndChar

StartChar: ccedilla.ext.down
Encoding: 345 -1 339
Width: 320
Flags: HW
AnchorPoint: "Extension_mkmk" 100 20 mark 0
LayerCount: 2
Fore
SplineSet
-25 -2 m 1
 33 56 l 1
 80 10 l 1
 80 40 l 1
 90 29 103 36 120 60 c 1
 120 40 l 1
 57 -23 l 1
 10 24 l 1
 -20 -6 l 1
 -25 -2 l 1
EndSplineSet
Substitution2: "Single Substitution lookup 32 subtable" ccedilla.ext.left
Substitution2: "Single Substitution lookup 31 subtable" ccedilla.ext.right
Substitution2: "Single Substitution lookup 30 subtable" ccedilla.ext.diagdown
Substitution2: "Single Substitution lookup 26 subtable" ccedilla.ext.left
Substitution2: "Single Substitution lookup 25 subtable" ccedilla.ext.right
Substitution2: "Single Substitution lookup 24 subtable" ccedilla.ext.diagdown
EndChar

StartChar: ccaron.ext.down
Encoding: 346 -1 340
Width: 320
Flags: HW
AnchorPoint: "Extension_mkmk" 100 20 mark 0
LayerCount: 2
Fore
SplineSet
80 0 m 1
 80 0 l 1
 160 0 l 1
 120 -40 l 1
 120 -40 l 1
 85 -74 l 1
 80 -70 l 1
 110 -40 l 1
 30 -40 l 1
 80 10 l 1
 80 40 l 1
 93 38 107 45 120 60 c 1
 120 40 l 1
 80 0 l 1
 80 0 l 1
 80 0 l 1
EndSplineSet
Substitution2: "Single Substitution lookup 32 subtable" ccaron.ext.left
Substitution2: "Single Substitution lookup 31 subtable" ccaron.ext.right
Substitution2: "Single Substitution lookup 30 subtable" ccaron.ext.diagdown
Substitution2: "Single Substitution lookup 26 subtable" ccaron.ext.left
Substitution2: "Single Substitution lookup 25 subtable" ccaron.ext.right
Substitution2: "Single Substitution lookup 24 subtable" ccaron.ext.diagdown
EndChar

StartChar: lcedilla.ext.down
Encoding: 347 -1 341
Width: 320
Flags: HW
AnchorPoint: "Extension_mkmk" 100 20 mark 0
LayerCount: 2
Fore
SplineSet
80 0 m 1
 0 0 l 1
 40 40 l 1
 80 40 l 1
 80 60 l 1
 97 53 111 59 120 80 c 1
 120 40 l 1
 80 0 l 1
EndSplineSet
Substitution2: "Single Substitution lookup 32 subtable" lcedilla.ext.left
Substitution2: "Single Substitution lookup 31 subtable" lcedilla.ext.right
Substitution2: "Single Substitution lookup 30 subtable" lcedilla.ext.diagdown
Substitution2: "Single Substitution lookup 26 subtable" lcedilla.ext.left
Substitution2: "Single Substitution lookup 25 subtable" lcedilla.ext.right
Substitution2: "Single Substitution lookup 24 subtable" lcedilla.ext.diagdown
EndChar

StartChar: zdotaccent.ext.down
Encoding: 348 -1 342
Width: 320
Flags: HW
AnchorPoint: "Extension_mkmk" 100 20 mark 0
LayerCount: 2
Fore
SplineSet
250 110 m 1
 180 40 l 1
 120 40 l 1
 80 0 l 1
 80 54 l 1
 94 48 108 53 120 70 c 1
 120 50 l 1
 150 80 l 1
 210 80 l 1
 245 115 l 1
 250 110 l 1
EndSplineSet
Substitution2: "Single Substitution lookup 32 subtable" zdotaccent.ext.left
Substitution2: "Single Substitution lookup 31 subtable" zdotaccent.ext.right
Substitution2: "Single Substitution lookup 30 subtable" zdotaccent.ext.diagdown
Substitution2: "Single Substitution lookup 26 subtable" zdotaccent.ext.left
Substitution2: "Single Substitution lookup 25 subtable" zdotaccent.ext.right
Substitution2: "Single Substitution lookup 24 subtable" zdotaccent.ext.diagdown
EndChar

StartChar: zcaron.ext.down
Encoding: 349 -1 343
Width: 320
Flags: HW
AnchorPoint: "Extension_mkmk" 100 20 mark 0
LayerCount: 2
Fore
SplineSet
120 -40 m 1
 120 40 l 1
 80 0 l 1
 80 60 l 1
 93 50 107 54 120 70 c 1
 120 49 l 1
 160 89 l 1
 160 10 l 1
 185 35 l 1
 190 30 l 1
 160 0 l 1
 160 0 l 1
 120 -40 l 1
EndSplineSet
Substitution2: "Single Substitution lookup 32 subtable" zcaron.ext.left
Substitution2: "Single Substitution lookup 31 subtable" zcaron.ext.right
Substitution2: "Single Substitution lookup 30 subtable" zcaron.ext.diagdown
Substitution2: "Single Substitution lookup 26 subtable" zcaron.ext.left
Substitution2: "Single Substitution lookup 25 subtable" zcaron.ext.right
Substitution2: "Single Substitution lookup 24 subtable" zcaron.ext.diagdown
EndChar

StartChar: rcaron.ext.down
Encoding: 350 -1 344
Width: 320
Flags: HW
AnchorPoint: "Extension_mkmk" 100 20 mark 0
LayerCount: 2
Fore
SplineSet
80 10 m 1
 80 54 l 1
 94 46 107 48 120 60 c 1
 120 40 l 1
 85 5 l 1
 123 4 148 -21 160 -70 c 1
 131 -35 95 -20 50 -21 c 1
 80 10 l 1
EndSplineSet
Substitution2: "Single Substitution lookup 32 subtable" rcaron.ext.left
Substitution2: "Single Substitution lookup 31 subtable" rcaron.ext.right
Substitution2: "Single Substitution lookup 30 subtable" rcaron.ext.diagdown
Substitution2: "Single Substitution lookup 26 subtable" rcaron.ext.left
Substitution2: "Single Substitution lookup 25 subtable" rcaron.ext.right
Substitution2: "Single Substitution lookup 24 subtable" rcaron.ext.diagdown
EndChar

StartChar: b.ext.down
Encoding: 351 -1 345
Width: 320
Flags: HW
AnchorPoint: "Extension_mkmk" 100 20 mark 0
LayerCount: 2
Fore
SplineSet
120 40 m 1
 120 40 l 1
 80 0 l 1
 80 54 l 1
 94 48 108 53 120 70 c 1
 120 50 l 1
 150 80 l 1
 220 80 l 1
 180 40 l 1
 120 40 l 1
EndSplineSet
Substitution2: "Single Substitution lookup 32 subtable" b.ext.left
Substitution2: "Single Substitution lookup 31 subtable" b.ext.right
Substitution2: "Single Substitution lookup 30 subtable" b.ext.diagdown
Substitution2: "Single Substitution lookup 26 subtable" b.ext.left
Substitution2: "Single Substitution lookup 25 subtable" b.ext.right
Substitution2: "Single Substitution lookup 24 subtable" b.ext.diagdown
EndChar

StartChar: c.ext.down
Encoding: 352 -1 346
Width: 320
Flags: HW
AnchorPoint: "Extension_mkmk" 100 20 mark 0
LayerCount: 2
Fore
SplineSet
120 50 m 1
 150 80 l 1
 220 80 l 1
 145 5 l 1
 140 10 l 1
 170 40 l 1
 120 40 l 1
 80 0 l 1
 80 54 l 1
 94 48 108 53 120 70 c 1
 120 50 l 1
EndSplineSet
Substitution2: "Single Substitution lookup 32 subtable" c.ext.left
Substitution2: "Single Substitution lookup 31 subtable" c.ext.right
Substitution2: "Single Substitution lookup 30 subtable" c.ext.diagdown
Substitution2: "Single Substitution lookup 26 subtable" c.ext.left
Substitution2: "Single Substitution lookup 25 subtable" c.ext.right
Substitution2: "Single Substitution lookup 24 subtable" c.ext.diagdown
EndChar

StartChar: equal.ext.down
Encoding: 353 -1 347
Width: 320
Flags: HW
AnchorPoint: "Extension_mkmk" 100 20 mark 0
LayerCount: 2
Fore
SplineSet
80 0 m 1
 80 60 l 1
 96 53 110 59 120 80 c 1
 120 40 l 1
 180 40 l 1
 180 -20 l 1
 140 -60 l 1
 140 0 l 1
 80 0 l 1
EndSplineSet
Substitution2: "Single Substitution lookup 32 subtable" equal.ext.left
Substitution2: "Single Substitution lookup 31 subtable" equal.ext.right
Substitution2: "Single Substitution lookup 30 subtable" equal.ext.diagdown
Substitution2: "Single Substitution lookup 26 subtable" equal.ext.left
Substitution2: "Single Substitution lookup 25 subtable" equal.ext.right
Substitution2: "Single Substitution lookup 24 subtable" equal.ext.diagdown
EndChar

StartChar: d.ext.down
Encoding: 354 -1 348
Width: 320
Flags: HW
AnchorPoint: "Extension_mkmk" 100 20 mark 0
LayerCount: 2
Fore
SplineSet
80 9 m 1
 80 9 l 1
 80 58 l 1
 92 54 106 57 120 69 c 1
 120 40 l 1
 49 -31 l 1
 -20 -31 l 1
 20 9 l 1
 80 9 l 1
EndSplineSet
Substitution2: "Single Substitution lookup 32 subtable" d.ext.left
Substitution2: "Single Substitution lookup 31 subtable" d.ext.right
Substitution2: "Single Substitution lookup 30 subtable" d.ext.diagdown
Substitution2: "Single Substitution lookup 26 subtable" d.ext.left
Substitution2: "Single Substitution lookup 25 subtable" d.ext.right
Substitution2: "Single Substitution lookup 24 subtable" d.ext.diagdown
EndChar

StartChar: D.ext.down
Encoding: 355 -1 349
Width: 320
Flags: HW
AnchorPoint: "Extension_mkmk" 100 20 mark 0
LayerCount: 2
Fore
SplineSet
80 9 m 1
 80 9 l 1
 80 58 l 1
 92 54 106 57 120 69 c 1
 120 40 l 1
 49 -31 l 1
 -40 -31 l 1
 0 9 l 1
 30 39 l 1
 35 34 l 1
 10 9 l 1
 80 9 l 1
EndSplineSet
Substitution2: "Single Substitution lookup 32 subtable" D.ext.left
Substitution2: "Single Substitution lookup 31 subtable" D.ext.right
Substitution2: "Single Substitution lookup 30 subtable" D.ext.diagdown
Substitution2: "Single Substitution lookup 26 subtable" D.ext.left
Substitution2: "Single Substitution lookup 25 subtable" D.ext.right
Substitution2: "Single Substitution lookup 24 subtable" D.ext.diagdown
EndChar

StartChar: glottal.flip.ext.down
Encoding: 356 -1 350
Width: 320
Flags: HW
AnchorPoint: "Extension_mkmk" 100 20 mark 0
LayerCount: 2
Fore
SplineSet
59 -21 m 0
 58 -22 l 0
 57 -23 56 -24 55 -25 c 1
 50 -20 l 1
 80 10 l 1
 80 46 l 1
 93 42 107 47 120 60 c 1
 120 40 l 1
 94 14 l 1
 115 31 137 30 160 10 c 1
 130 -20 l 1
 110 5 86 5 59 -21 c 0
EndSplineSet
Substitution2: "Single Substitution lookup 32 subtable" glottal.flip.ext.left
Substitution2: "Single Substitution lookup 31 subtable" glottal.flip.ext.right
Substitution2: "Single Substitution lookup 30 subtable" glottal.flip.ext.diagdown
Substitution2: "Single Substitution lookup 26 subtable" glottal.flip.ext.left
Substitution2: "Single Substitution lookup 25 subtable" glottal.flip.ext.right
Substitution2: "Single Substitution lookup 24 subtable" glottal.flip.ext.diagdown
EndChar

StartChar: approxequal.ext.down
Encoding: 357 -1 351
Width: 320
Flags: HW
AnchorPoint: "Extension_mkmk" 100 20 mark 0
LayerCount: 2
Fore
SplineSet
40 -100 m 1
 40 -31 l 1
 80 9 l 1
 80 60 l 1
 93 50 107 54 120 70 c 1
 120 40 l 1
 80 0 l 1
 80 -60 l 1
 40 -100 l 1
EndSplineSet
Substitution2: "Single Substitution lookup 32 subtable" approxequal.ext.left
Substitution2: "Single Substitution lookup 31 subtable" approxequal.ext.right
Substitution2: "Single Substitution lookup 30 subtable" approxequal.ext.diagdown
Substitution2: "Single Substitution lookup 26 subtable" approxequal.ext.left
Substitution2: "Single Substitution lookup 25 subtable" approxequal.ext.right
Substitution2: "Single Substitution lookup 24 subtable" approxequal.ext.diagdown
EndChar

StartChar: f.ext.down
Encoding: 358 -1 352
Width: 320
Flags: HW
AnchorPoint: "Extension_mkmk" 100 20 mark 0
LayerCount: 2
Fore
SplineSet
80 63 m 1
 94 50 107 57 120 82 c 1
 120 49 l 1
 145 75 l 1
 172 60 186 23 185 -35 c 1
 171 8 149 33 120 40 c 1
 80 0 l 1
 80 63 l 1
EndSplineSet
Substitution2: "Single Substitution lookup 32 subtable" f.ext.left
Substitution2: "Single Substitution lookup 31 subtable" f.ext.right
Substitution2: "Single Substitution lookup 30 subtable" f.ext.diagdown
Substitution2: "Single Substitution lookup 26 subtable" f.ext.left
Substitution2: "Single Substitution lookup 25 subtable" f.ext.right
Substitution2: "Single Substitution lookup 24 subtable" f.ext.diagdown
EndChar

StartChar: g.ext.down
Encoding: 359 -1 353
Width: 320
Flags: HW
AnchorPoint: "Extension_mkmk" 100 20 mark 0
LayerCount: 2
Fore
SplineSet
127 -47 m 1
 99 -75 l 1
 47 -24 l 1
 80 9 l 1
 80 40 l 1
 93 32 106 39 120 60 c 1
 120 40 l 1
 80 0 l 1
 127 -47 l 1
EndSplineSet
Substitution2: "Single Substitution lookup 32 subtable" g.ext.left
Substitution2: "Single Substitution lookup 31 subtable" g.ext.right
Substitution2: "Single Substitution lookup 30 subtable" g.ext.diagdown
Substitution2: "Single Substitution lookup 26 subtable" g.ext.left
Substitution2: "Single Substitution lookup 25 subtable" g.ext.right
Substitution2: "Single Substitution lookup 24 subtable" g.ext.diagdown
EndChar

StartChar: G.ext.down
Encoding: 360 -1 354
Width: 320
Flags: HW
AnchorPoint: "Extension_mkmk" 100 20 mark 0
LayerCount: 2
Fore
SplineSet
127 -47 m 1
 69 -105 l 1
 64 -100 l 1
 94 -70 l 1
 47 -24 l 1
 80 9 l 1
 80 40 l 1
 93 32 106 39 120 60 c 1
 120 40 l 1
 80 0 l 1
 127 -47 l 1
EndSplineSet
Substitution2: "Single Substitution lookup 32 subtable" G.ext.left
Substitution2: "Single Substitution lookup 31 subtable" G.ext.right
Substitution2: "Single Substitution lookup 30 subtable" G.ext.diagdown
Substitution2: "Single Substitution lookup 26 subtable" G.ext.left
Substitution2: "Single Substitution lookup 25 subtable" G.ext.right
Substitution2: "Single Substitution lookup 24 subtable" G.ext.diagdown
EndChar

StartChar: h.ext.down
Encoding: 361 -1 355
Width: 320
Flags: HW
AnchorPoint: "Extension_mkmk" 100 20 mark 0
LayerCount: 2
Fore
SplineSet
120 40 m 1
 49 -31 l 1
 -11 -31 l 1
 -45 -66 l 1
 -50 -61 l 1
 20 9 l 1
 80 9 l 1
 80 57 l 1
 95 49 108 53 120 69 c 1
 120 40 l 1
EndSplineSet
Substitution2: "Single Substitution lookup 32 subtable" h.ext.left
Substitution2: "Single Substitution lookup 31 subtable" h.ext.right
Substitution2: "Single Substitution lookup 30 subtable" h.ext.diagdown
Substitution2: "Single Substitution lookup 26 subtable" h.ext.left
Substitution2: "Single Substitution lookup 25 subtable" h.ext.right
Substitution2: "Single Substitution lookup 24 subtable" h.ext.diagdown
EndChar

StartChar: j.ext.down
Encoding: 362 -1 356
Width: 320
Flags: HW
AnchorPoint: "Extension_mkmk" 100 20 mark 0
LayerCount: 2
Fore
SplineSet
80 0 m 1
 80 0 l 1
 151 0 l 1
 185 35 l 1
 190 30 l 1
 120 -40 l 1
 30 -40 l 1
 80 10 l 1
 80 40 l 1
 93 38 107 45 120 60 c 1
 120 40 l 1
 80 0 l 1
 80 0 l 1
 80 0 l 1
EndSplineSet
Substitution2: "Single Substitution lookup 32 subtable" j.ext.left
Substitution2: "Single Substitution lookup 31 subtable" j.ext.right
Substitution2: "Single Substitution lookup 30 subtable" j.ext.diagdown
Substitution2: "Single Substitution lookup 26 subtable" j.ext.left
Substitution2: "Single Substitution lookup 25 subtable" j.ext.right
Substitution2: "Single Substitution lookup 24 subtable" j.ext.diagdown
EndChar

StartChar: k.ext.down
Encoding: 363 -1 357
Width: 320
Flags: HW
AnchorPoint: "Extension_mkmk" 100 20 mark 0
LayerCount: 2
Fore
SplineSet
30 -40 m 1
 30 -40 l 1
 80 10 l 1
 80 40 l 1
 93 38 107 45 120 60 c 1
 120 40 l 1
 80 0 l 1
 80 0 l 1
 80 0 l 1
 80 0 l 1
 160 0 l 1
 120 -40 l 1
 30 -40 l 1
EndSplineSet
Substitution2: "Single Substitution lookup 32 subtable" k.ext.left
Substitution2: "Single Substitution lookup 31 subtable" k.ext.right
Substitution2: "Single Substitution lookup 30 subtable" k.ext.diagdown
Substitution2: "Single Substitution lookup 26 subtable" k.ext.left
Substitution2: "Single Substitution lookup 25 subtable" k.ext.right
Substitution2: "Single Substitution lookup 24 subtable" k.ext.diagdown
EndChar

StartChar: l.ext.down
Encoding: 364 -1 358
Width: 320
Flags: HW
AnchorPoint: "Extension_mkmk" 100 20 mark 0
LayerCount: 2
Fore
SplineSet
80 -80 m 1
 80 0 l 2
 87 40 101 53 120 40 c 1
 120 -40 l 1
 80 -80 l 1
EndSplineSet
Substitution2: "Single Substitution lookup 32 subtable" l.ext.left
Substitution2: "Single Substitution lookup 31 subtable" l.ext.right
Substitution2: "Single Substitution lookup 30 subtable" l.ext.diagdown
Substitution2: "Single Substitution lookup 26 subtable" l.ext.left
Substitution2: "Single Substitution lookup 25 subtable" l.ext.right
Substitution2: "Single Substitution lookup 24 subtable" l.ext.diagdown
EndChar

StartChar: m.ext.down
Encoding: 365 -1 359
Width: 320
Flags: HW
AnchorPoint: "Extension_mkmk" 100 20 mark 0
LayerCount: 2
Fore
SplineSet
80 60 m 1
 96 53 110 59 120 80 c 1
 120 40 l 1
 180 40 l 1
 140 0 l 1
 80 0 l 1
 80 60 l 1
EndSplineSet
Substitution2: "Single Substitution lookup 32 subtable" m.ext.left
Substitution2: "Single Substitution lookup 31 subtable" m.ext.right
Substitution2: "Single Substitution lookup 30 subtable" m.ext.diagdown
Substitution2: "Single Substitution lookup 26 subtable" m.ext.left
Substitution2: "Single Substitution lookup 25 subtable" m.ext.right
Substitution2: "Single Substitution lookup 24 subtable" m.ext.diagdown
EndChar

StartChar: n.ext.down
Encoding: 366 -1 360
Width: 320
Flags: HW
AnchorPoint: "Extension_mkmk" 100 20 mark 0
LayerCount: 2
Fore
SplineSet
80 60 m 1
 96 53 110 59 120 80 c 1
 120 40 l 1
 180 40 l 1
 105 -35 l 1
 100 -30 l 1
 130 0 l 1
 80 0 l 1
 80 60 l 1
EndSplineSet
Substitution2: "Single Substitution lookup 32 subtable" n.ext.left
Substitution2: "Single Substitution lookup 31 subtable" n.ext.right
Substitution2: "Single Substitution lookup 30 subtable" n.ext.diagdown
Substitution2: "Single Substitution lookup 26 subtable" n.ext.left
Substitution2: "Single Substitution lookup 25 subtable" n.ext.right
Substitution2: "Single Substitution lookup 24 subtable" n.ext.diagdown
EndChar

StartChar: p.ext.down
Encoding: 367 -1 361
Width: 320
Flags: HW
AnchorPoint: "Extension_mkmk" 100 20 mark 0
LayerCount: 2
Fore
SplineSet
119 48 m 0
 120 49 120 50 120 50 c 2
 143 73 l 1
 189 29 l 1
 160 0 l 1
 120 40 l 1
 80 0 l 1
 80 59 l 1
 86 46 97 41 114 44 c 0
 116 46 118 47 119 48 c 0
EndSplineSet
Substitution2: "Single Substitution lookup 32 subtable" p.ext.left
Substitution2: "Single Substitution lookup 31 subtable" p.ext.right
Substitution2: "Single Substitution lookup 30 subtable" p.ext.diagdown
Substitution2: "Single Substitution lookup 26 subtable" p.ext.left
Substitution2: "Single Substitution lookup 25 subtable" p.ext.right
Substitution2: "Single Substitution lookup 24 subtable" p.ext.diagdown
EndChar

StartChar: P.ext.down
Encoding: 368 -1 362
Width: 320
Flags: HW
AnchorPoint: "Extension_mkmk" 100 20 mark 0
LayerCount: 2
Fore
SplineSet
119 48 m 0
 120 49 120 50 120 50 c 2
 143 73 l 1
 189 29 l 1
 160 0 l 1
 130 -30 l 1
 125 -25 l 1
 155 5 l 1
 120 40 l 1
 80 0 l 1
 80 59 l 1
 86 46 97 41 114 44 c 0
 116 46 118 47 119 48 c 0
EndSplineSet
Substitution2: "Single Substitution lookup 32 subtable" P.ext.left
Substitution2: "Single Substitution lookup 31 subtable" P.ext.right
Substitution2: "Single Substitution lookup 30 subtable" P.ext.diagdown
Substitution2: "Single Substitution lookup 26 subtable" P.ext.left
Substitution2: "Single Substitution lookup 25 subtable" P.ext.right
Substitution2: "Single Substitution lookup 24 subtable" P.ext.diagdown
EndChar

StartChar: r.upsidedown.ext.down
Encoding: 369 -1 363
Width: 320
Flags: HW
AnchorPoint: "Extension_mkmk" 100 20 mark 0
LayerCount: 2
Fore
SplineSet
120 -40 m 1
 55 -105 l 1
 50 -100 l 1
 80 -70 l 1
 80 0 l 2
 87 40 101 53 120 40 c 1
 120 -40 l 1
EndSplineSet
Substitution2: "Single Substitution lookup 32 subtable" r.upsidedown.ext.left
Substitution2: "Single Substitution lookup 31 subtable" r.upsidedown.ext.right
Substitution2: "Single Substitution lookup 30 subtable" r.upsidedown.ext.diagdown
Substitution2: "Single Substitution lookup 26 subtable" r.upsidedown.ext.left
Substitution2: "Single Substitution lookup 25 subtable" r.upsidedown.ext.right
Substitution2: "Single Substitution lookup 24 subtable" r.upsidedown.ext.diagdown
EndChar

StartChar: r.ext.down
Encoding: 370 -1 364
Width: 320
Flags: HW
AnchorPoint: "Extension_mkmk" 100 20 mark 0
LayerCount: 2
Fore
SplineSet
120 -30 m 1
 145 -5 l 1
 150 -10 l 1
 80 -80 l 1
 80 0 l 2
 87 40 101 53 120 40 c 1
 120 -30 l 1
EndSplineSet
Substitution2: "Single Substitution lookup 32 subtable" r.ext.left
Substitution2: "Single Substitution lookup 31 subtable" r.ext.right
Substitution2: "Single Substitution lookup 30 subtable" r.ext.diagdown
Substitution2: "Single Substitution lookup 26 subtable" r.ext.left
Substitution2: "Single Substitution lookup 25 subtable" r.ext.right
Substitution2: "Single Substitution lookup 24 subtable" r.ext.diagdown
EndChar

StartChar: s.ext.down
Encoding: 371 -1 365
Width: 320
Flags: HW
AnchorPoint: "Extension_mkmk" 100 20 mark 0
LayerCount: 2
Fore
SplineSet
120 85 m 1
 120 50 l 1
 145 75 l 1
 150 70 l 1
 80 0 l 1
 80 40 l 1
 93 37 107 53 120 85 c 1
EndSplineSet
Substitution2: "Single Substitution lookup 32 subtable" s.ext.left
Substitution2: "Single Substitution lookup 31 subtable" s.ext.right
Substitution2: "Single Substitution lookup 30 subtable" s.ext.diagdown
Substitution2: "Single Substitution lookup 26 subtable" s.ext.left
Substitution2: "Single Substitution lookup 25 subtable" s.ext.right
Substitution2: "Single Substitution lookup 24 subtable" s.ext.diagdown
EndChar

StartChar: t.ext.down
Encoding: 372 -1 366
Width: 320
Flags: HW
AnchorPoint: "Extension_mkmk" 100 20 mark 0
LayerCount: 2
Fore
SplineSet
120 40 m 1
 57 -23 l 1
 5 28 l 1
 33 56 l 1
 80 10 l 1
 80 40 l 1
 90 29 103 36 120 60 c 1
 120 40 l 1
EndSplineSet
Substitution2: "Single Substitution lookup 32 subtable" t.ext.left
Substitution2: "Single Substitution lookup 31 subtable" t.ext.right
Substitution2: "Single Substitution lookup 30 subtable" t.ext.diagdown
Substitution2: "Single Substitution lookup 26 subtable" t.ext.left
Substitution2: "Single Substitution lookup 25 subtable" t.ext.right
Substitution2: "Single Substitution lookup 24 subtable" t.ext.diagdown
EndChar

StartChar: v.ext.down
Encoding: 373 -1 367
Width: 320
Flags: HW
AnchorPoint: "Extension_mkmk" 100 20 mark 0
LayerCount: 2
Fore
SplineSet
80 63 m 1
 94 50 107 57 120 82 c 1
 120 49 l 1
 145 75 l 1
 152 28 172 7 205 13 c 1
 174 -16 145 -7 120 40 c 1
 80 0 l 1
 80 63 l 1
EndSplineSet
Substitution2: "Single Substitution lookup 32 subtable" v.ext.left
Substitution2: "Single Substitution lookup 31 subtable" v.ext.right
Substitution2: "Single Substitution lookup 30 subtable" v.ext.diagdown
Substitution2: "Single Substitution lookup 26 subtable" v.ext.left
Substitution2: "Single Substitution lookup 25 subtable" v.ext.right
Substitution2: "Single Substitution lookup 24 subtable" v.ext.diagdown
EndChar

StartChar: velar.ext.down
Encoding: 374 -1 368
Width: 320
Flags: HW
AnchorPoint: "Extension_mkmk" 100 20 mark 0
LayerCount: 2
Fore
SplineSet
117 37 m 2
 117 37 l 1
 80 0 l 1
 80 52 l 1
 120 70 l 1
 120 49 l 1
 132 60 144 65 155 66 c 0
 169 67 182 60 195 46 c 1
 165 16 l 1
 159 26 152 34 142 38 c 0
 132 42 124 42 117 37 c 2
EndSplineSet
Substitution2: "Single Substitution lookup 32 subtable" velar.ext.left
Substitution2: "Single Substitution lookup 31 subtable" velar.ext.right
Substitution2: "Single Substitution lookup 30 subtable" velar.ext.diagdown
Substitution2: "Single Substitution lookup 26 subtable" velar.ext.left
Substitution2: "Single Substitution lookup 25 subtable" velar.ext.right
Substitution2: "Single Substitution lookup 24 subtable" velar.ext.diagdown
EndChar

StartChar: w.ext.down
Encoding: 375 -1 369
Width: 320
Flags: HW
AnchorPoint: "Extension_mkmk" 100 20 mark 0
LayerCount: 2
Fore
SplineSet
95 -66 m 1
 90 -61 l 1
 120 -31 l 1
 120 40 l 1
 80 0 l 1
 80 60 l 1
 93 50 107 54 120 70 c 1
 120 49 l 1
 160 89 l 1
 160 0 l 1
 95 -66 l 1
EndSplineSet
Substitution2: "Single Substitution lookup 32 subtable" w.ext.left
Substitution2: "Single Substitution lookup 31 subtable" w.ext.right
Substitution2: "Single Substitution lookup 30 subtable" w.ext.diagdown
Substitution2: "Single Substitution lookup 26 subtable" w.ext.left
Substitution2: "Single Substitution lookup 25 subtable" w.ext.right
Substitution2: "Single Substitution lookup 24 subtable" w.ext.diagdown
EndChar

StartChar: x.ext.down
Encoding: 376 -1 370
Width: 320
Flags: HW
AnchorPoint: "Extension_mkmk" 100 20 mark 0
LayerCount: 2
Fore
SplineSet
160 9 m 1
 134 -34 97 -44 50 -21 c 1
 80 10 l 1
 80 54 l 1
 94 46 107 48 120 60 c 1
 120 40 l 1
 85 5 l 1
 104 -11 129 -10 160 9 c 1
EndSplineSet
Substitution2: "Single Substitution lookup 32 subtable" x.ext.left
Substitution2: "Single Substitution lookup 31 subtable" x.ext.right
Substitution2: "Single Substitution lookup 30 subtable" x.ext.diagdown
Substitution2: "Single Substitution lookup 26 subtable" x.ext.left
Substitution2: "Single Substitution lookup 25 subtable" x.ext.right
Substitution2: "Single Substitution lookup 24 subtable" x.ext.diagdown
EndChar

StartChar: y.ext.down
Encoding: 377 -1 371
Width: 320
Flags: HW
AnchorPoint: "Extension_mkmk" 100 20 mark 0
LayerCount: 2
Fore
SplineSet
200 0 m 1
 160 -40 l 1
 90 -40 l 1
 130 0 l 1
 80 0 l 1
 80 60 l 1
 96 53 110 59 120 80 c 1
 120 40 l 1
 180 40 l 1
 140 0 l 1
 200 0 l 1
EndSplineSet
Substitution2: "Single Substitution lookup 32 subtable" y.ext.left
Substitution2: "Single Substitution lookup 31 subtable" y.ext.right
Substitution2: "Single Substitution lookup 30 subtable" y.ext.diagdown
Substitution2: "Single Substitution lookup 26 subtable" y.ext.left
Substitution2: "Single Substitution lookup 25 subtable" y.ext.right
Substitution2: "Single Substitution lookup 24 subtable" y.ext.diagdown
EndChar

StartChar: z.ext.down
Encoding: 378 -1 372
Width: 320
Flags: HW
AnchorPoint: "Extension_mkmk" 100 20 mark 0
LayerCount: 2
Fore
SplineSet
50 -20 m 1
 80 10 l 1
 80 45 l 1
 93 37 107 46 120 71 c 1
 120 40 l 1
 55 -25 l 1
 50 -20 l 1
EndSplineSet
Substitution2: "Single Substitution lookup 32 subtable" z.ext.left
Substitution2: "Single Substitution lookup 31 subtable" z.ext.right
Substitution2: "Single Substitution lookup 30 subtable" z.ext.diagdown
Substitution2: "Single Substitution lookup 26 subtable" z.ext.left
Substitution2: "Single Substitution lookup 25 subtable" z.ext.right
Substitution2: "Single Substitution lookup 24 subtable" z.ext.diagdown
EndChar

StartChar: glottal.ext.diagdown
Encoding: 380 -1 374
Width: 320
Flags: HW
AnchorPoint: "Extension_mkmk" 100 20 mark 0
LayerCount: 2
Fore
SplineSet
103 23 m 1
 80 0 l 1
 64 31 72 43 105 35 c 1
 130 60 l 1
 135 55 l 1
 132 52 l 2
 108 27 118 14 161 11 c 1
 131 -19 l 1
 107 -8 98 6 103 23 c 1
EndSplineSet
EndChar

StartChar: ncaron.ext.diagdown
Encoding: 381 -1 375
Width: 320
Flags: HW
AnchorPoint: "Extension_mkmk" 100 20 mark 0
LayerCount: 2
Fore
SplineSet
70 40 m 0
 72 48 81 48 100 40 c 2
 170 40 l 1
 205 75 l 1
 210 70 l 1
 140 0 l 1
 80 0 l 1
 69 19 66 33 70 40 c 0
EndSplineSet
EndChar

StartChar: scaron.ext.diagdown
Encoding: 382 -1 376
Width: 320
Flags: HW
AnchorPoint: "Extension_mkmk" 100 20 mark 0
LayerCount: 2
Fore
SplineSet
105 35 m 2
 145 75 l 1
 145 -14 l 1
 105 -55 l 1
 105 25 l 1
 80 0 l 1
 78 13 78 21 80 24 c 0
 86 33 94 37 105 35 c 2
EndSplineSet
EndChar

StartChar: ddotbelow.ext.diagdown
Encoding: 383 -1 377
Width: 320
Flags: HW
AnchorPoint: "Extension_mkmk" 100 20 mark 0
LayerCount: 2
Fore
SplineSet
75 30 m 0
 86 34 98 34 110 30 c 1
 50 -30 l 1
 24 2 1 5 -19 -20 c 1
 -7 21 24 29 75 5 c 2
 79 3 l 1
 73 10 71 19 75 30 c 0
EndSplineSet
EndChar

StartChar: tcedilla.ext.diagdown
Encoding: 384 -1 378
Width: 320
Flags: HW
AnchorPoint: "Extension_mkmk" 100 20 mark 0
LayerCount: 2
Fore
SplineSet
110 30 m 1
 50 -30 l 1
 -9 -28 -22 -8 11 30 c 1
 -1 5 21 -4 76 5 c 2
 81 5 l 1
 77 16 75 25 76 30 c 0
 79 39 90 39 110 30 c 1
EndSplineSet
EndChar

StartChar: ccedilla.ext.diagdown
Encoding: 385 -1 379
Width: 320
Flags: HW
AnchorPoint: "Extension_mkmk" 100 20 mark 0
LayerCount: 2
Fore
SplineSet
-55 -65 m 1
 15 5 l 1
 75 5 l 1
 76 22 84 30 99 29 c 1
 91 18 85 9 80 0 c 2
 45 -35 l 1
 -15 -35 l 1
 -50 -70 l 1
 -55 -65 l 1
EndSplineSet
EndChar

StartChar: ccaron.ext.diagdown
Encoding: 386 -1 380
Width: 320
Flags: HW
AnchorPoint: "Extension_mkmk" 100 20 mark 0
LayerCount: 2
Fore
SplineSet
121 -39 m 1
 121 -39 l 1
 86 -73 l 1
 82 -68 l 1
 111 -39 l 1
 32 -39 l 1
 76 6 l 1
 71 25 82 33 110 30 c 1
 82 2 l 1
 161 2 l 1
 121 -39 l 1
EndSplineSet
EndChar

StartChar: lcedilla.ext.diagdown
Encoding: 387 -1 381
Width: 320
Flags: HW
AnchorPoint: "Extension_mkmk" 100 20 mark 0
LayerCount: 2
Fore
SplineSet
60 -20 m 1
 -20 -20 l 1
 20 20 l 1
 70 20 l 1
 89 38 92 31 80 0 c 1
 60 -20 l 1
EndSplineSet
EndChar

StartChar: zdotaccent.ext.diagdown
Encoding: 388 -1 382
Width: 320
Flags: HW
AnchorPoint: "Extension_mkmk" 100 20 mark 0
LayerCount: 2
Fore
SplineSet
110 30 m 1
 90 10 l 1
 82 27 87 36 105 35 c 1
 140 70 l 1
 201 70 l 1
 235 105 l 1
 240 100 l 1
 170 30 l 1
 110 30 l 1
EndSplineSet
EndChar

StartChar: zcaron.ext.diagdown
Encoding: 389 -1 383
Width: 320
Flags: HW
AnchorPoint: "Extension_mkmk" 100 20 mark 0
LayerCount: 2
Fore
SplineSet
80 24 m 0
 86 33 94 37 105 35 c 2
 145 75 l 1
 145 -5 l 1
 170 20 l 1
 175 15 l 1
 105 -55 l 1
 105 25 l 1
 80 0 l 1
 78 13 78 21 80 24 c 0
EndSplineSet
EndChar

StartChar: rcaron.ext.diagdown
Encoding: 390 -1 384
Width: 320
Flags: HW
AnchorPoint: "Extension_mkmk" 100 20 mark 0
LayerCount: 2
Fore
SplineSet
80 0 m 1
 118 -1 143 -26 155 -75 c 1
 126 -40 90 -24 45 -25 c 1
 75 5 l 2
 73 10 74 17 77 25 c 0
 87 32 97 32 108 28 c 1
 80 0 l 1
EndSplineSet
EndChar

StartChar: b.ext.diagdown
Encoding: 391 -1 385
Width: 320
Flags: HW
AnchorPoint: "Extension_mkmk" 100 20 mark 0
LayerCount: 2
Fore
SplineSet
110 30 m 1
 90 10 l 1
 82 27 87 36 105 35 c 1
 140 70 l 1
 210 70 l 1
 170 30 l 1
 110 30 l 1
EndSplineSet
EndChar

StartChar: c.ext.diagdown
Encoding: 392 -1 386
Width: 320
Flags: HW
AnchorPoint: "Extension_mkmk" 100 20 mark 0
LayerCount: 2
Fore
SplineSet
110 30 m 1
 90 10 l 1
 82 27 87 36 105 35 c 1
 140 70 l 1
 210 70 l 1
 135 -5 l 1
 131 0 l 1
 161 30 l 1
 110 30 l 1
EndSplineSet
EndChar

StartChar: equal.ext.diagdown
Encoding: 393 -1 387
Width: 320
Flags: HW
AnchorPoint: "Extension_mkmk" 100 20 mark 0
LayerCount: 2
Fore
SplineSet
160 40 m 1
 160 -20 l 1
 120 -60 l 1
 120 0 l 1
 80 0 l 1
 69 19 66 33 70 40 c 0
 72 48 81 48 100 40 c 2
 160 40 l 1
EndSplineSet
EndChar

StartChar: d.ext.diagdown
Encoding: 394 -1 388
Width: 320
Flags: HW
AnchorPoint: "Extension_mkmk" 100 20 mark 0
LayerCount: 2
Fore
SplineSet
75 5 m 1
 76 22 84 30 99 29 c 1
 91 18 85 9 80 0 c 2
 45 -35 l 1
 -25 -35 l 1
 15 5 l 1
 75 5 l 1
EndSplineSet
EndChar

StartChar: D.ext.diagdown
Encoding: 395 -1 389
Width: 320
Flags: HW
AnchorPoint: "Extension_mkmk" 100 20 mark 0
LayerCount: 2
Fore
SplineSet
75 5 m 1
 76 22 84 30 99 29 c 1
 91 18 85 9 80 0 c 2
 45 -35 l 1
 -44 -35 l 1
 -4 5 l 1
 26 35 l 1
 30 30 l 1
 5 5 l 1
 75 5 l 1
EndSplineSet
EndChar

StartChar: glottal.flip.ext.diagdown
Encoding: 396 -1 390
Width: 320
Flags: HW
AnchorPoint: "Extension_mkmk" 100 20 mark 0
LayerCount: 2
Fore
SplineSet
125 -25 m 1
 105 0 81 0 54 -26 c 0
 53 -27 l 0
 52 -28 51 -29 50 -30 c 1
 45 -25 l 1
 75 5 l 1
 64 34 75 42 110 30 c 1
 89 9 l 1
 110 26 132 25 155 5 c 1
 125 -25 l 1
EndSplineSet
EndChar

StartChar: approxequal.ext.diagdown
Encoding: 397 -1 391
Width: 320
Flags: HW
AnchorPoint: "Extension_mkmk" 100 20 mark 0
LayerCount: 2
Fore
SplineSet
80 0 m 1
 80 -60 l 1
 40 -100 l 1
 40 -31 l 1
 75 5 l 1
 68 35 79 43 110 30 c 1
 80 0 l 1
EndSplineSet
EndChar

StartChar: f.ext.diagdown
Encoding: 398 -1 392
Width: 320
Flags: HW
AnchorPoint: "Extension_mkmk" 100 20 mark 0
LayerCount: 2
Fore
SplineSet
175 -45 m 1
 161 -2 139 23 110 30 c 1
 85 5 l 1
 75 30 81 39 102 31 c 1
 110 39 l 1
 135 65 l 1
 162 50 176 13 175 -45 c 1
EndSplineSet
EndChar

StartChar: g.ext.diagdown
Encoding: 399 -1 393
Width: 320
Flags: HW
AnchorPoint: "Extension_mkmk" 100 20 mark 0
LayerCount: 2
Fore
SplineSet
127 -47 m 1
 99 -75 l 1
 47 -24 l 1
 75 5 l 1
 72 18 l 2
 70 24 80 24 100 20 c 1
 80 0 l 1
 127 -47 l 1
EndSplineSet
EndChar

StartChar: G.ext.diagdown
Encoding: 400 -1 394
Width: 320
Flags: HW
AnchorPoint: "Extension_mkmk" 100 20 mark 0
LayerCount: 2
Fore
SplineSet
127 -47 m 1
 69 -105 l 1
 64 -100 l 1
 94 -70 l 1
 47 -24 l 1
 75 5 l 1
 72 18 l 2
 70 24 80 24 100 20 c 1
 80 0 l 1
 127 -47 l 1
EndSplineSet
EndChar

StartChar: h.ext.diagdown
Encoding: 401 -1 395
Width: 320
Flags: HW
AnchorPoint: "Extension_mkmk" 100 20 mark 0
LayerCount: 2
Fore
SplineSet
10 -121 m 1
 40 -91 l 1
 40 -31 l 1
 75 5 l 1
 68 35 79 43 110 30 c 1
 80 0 l 1
 80 -60 l 1
 15 -125 l 1
 10 -121 l 1
EndSplineSet
EndChar

StartChar: j.ext.diagdown
Encoding: 402 -1 396
Width: 320
Flags: HW
AnchorPoint: "Extension_mkmk" 100 20 mark 0
LayerCount: 2
Fore
SplineSet
152 2 m 1
 186 36 l 1
 191 31 l 1
 121 -39 l 1
 32 -39 l 1
 76 6 l 1
 71 25 82 33 110 30 c 1
 82 2 l 1
 152 2 l 1
EndSplineSet
EndChar

StartChar: k.ext.diagdown
Encoding: 403 -1 397
Width: 320
Flags: HW
AnchorPoint: "Extension_mkmk" 100 20 mark 0
LayerCount: 2
Fore
SplineSet
76 6 m 1
 71 25 82 33 110 30 c 1
 82 2 l 1
 161 2 l 1
 121 -39 l 1
 32 -39 l 1
 76 6 l 1
EndSplineSet
EndChar

StartChar: l.ext.diagdown
Encoding: 404 -1 398
Width: 320
Flags: HW
AnchorPoint: "Extension_mkmk" 100 20 mark 0
LayerCount: 2
Fore
SplineSet
140 -60 m 1
 80 0 l 1
 82 19 92 29 110 30 c 1
 170 -30 l 1
 140 -60 l 1
EndSplineSet
EndChar

StartChar: m.ext.diagdown
Encoding: 405 -1 399
Width: 320
Flags: HW
AnchorPoint: "Extension_mkmk" 100 20 mark 0
LayerCount: 2
Fore
SplineSet
70 40 m 0
 72 48 81 48 100 40 c 2
 180 40 l 1
 140 0 l 1
 80 0 l 1
 69 19 66 33 70 40 c 0
EndSplineSet
EndChar

StartChar: n.ext.diagdown
Encoding: 406 -1 400
Width: 320
Flags: HW
AnchorPoint: "Extension_mkmk" 100 20 mark 0
LayerCount: 2
Fore
SplineSet
70 40 m 0
 72 48 81 48 100 40 c 2
 180 40 l 1
 105 -35 l 1
 100 -30 l 1
 130 0 l 1
 80 0 l 1
 69 19 66 33 70 40 c 0
EndSplineSet
EndChar

StartChar: p.ext.diagdown
Encoding: 407 -1 401
Width: 320
Flags: HW
AnchorPoint: "Extension_mkmk" 100 20 mark 0
LayerCount: 2
Fore
SplineSet
90 10 m 1
 86 6 l 1
 84 19 84 28 86 31 c 0
 88 36 93 36 101 31 c 2
 105 35 l 1
 133 63 l 1
 179 19 l 1
 150 -10 l 1
 110 30 l 1
 90 10 l 1
EndSplineSet
EndChar

StartChar: P.ext.diagdown
Encoding: 408 -1 402
Width: 320
Flags: HW
AnchorPoint: "Extension_mkmk" 100 20 mark 0
LayerCount: 2
Fore
SplineSet
90 10 m 1
 86 6 l 1
 84 19 84 28 86 31 c 0
 88 36 93 36 101 31 c 2
 105 35 l 1
 133 63 l 1
 179 19 l 1
 150 -10 l 1
 120 -40 l 1
 115 -35 l 1
 145 -5 l 1
 110 30 l 1
 90 10 l 1
EndSplineSet
EndChar

StartChar: r.upsidedown.ext.diagdown
Encoding: 409 -1 403
Width: 320
Flags: HW
AnchorPoint: "Extension_mkmk" 100 20 mark 0
LayerCount: 2
Fore
SplineSet
110 30 m 1
 170 -30 l 1
 110 -90 l 1
 105 -85 l 1
 135 -55 l 1
 80 0 l 1
 82 19 92 29 110 30 c 1
EndSplineSet
EndChar

StartChar: r.ext.diagdown
Encoding: 410 -1 404
Width: 320
Flags: HW
AnchorPoint: "Extension_mkmk" 100 20 mark 0
LayerCount: 2
Fore
SplineSet
110 30 m 1
 165 -25 l 1
 195 5 l 1
 200 0 l 1
 140 -60 l 1
 80 0 l 1
 82 19 92 29 110 30 c 1
EndSplineSet
EndChar

StartChar: s.ext.diagdown
Encoding: 411 -1 405
Width: 320
Flags: HW
AnchorPoint: "Extension_mkmk" 100 20 mark 0
LayerCount: 2
Fore
SplineSet
84 12 m 1
 84 24 85 32 87 36 c 0
 88 40 94 39 105 35 c 1
 135 65 l 1
 140 60 l 1
 110 30 l 2
 102 23 93 17 84 12 c 1
EndSplineSet
EndChar

StartChar: t.ext.diagdown
Encoding: 412 -1 406
Width: 320
Flags: HW
AnchorPoint: "Extension_mkmk" 100 20 mark 0
LayerCount: 2
Fore
SplineSet
105 35 m 1
 105 85 l 1
 145 125 l 1
 145 65 l 1
 110 30 l 2
 102 30 94 25 86 15 c 1
 81 32 88 38 105 35 c 1
EndSplineSet
EndChar

StartChar: v.ext.diagdown
Encoding: 413 -1 407
Width: 320
Flags: HW
AnchorPoint: "Extension_mkmk" 100 20 mark 0
LayerCount: 2
Fore
SplineSet
105 35 m 1
 131 60 l 1
 138 13 157 -8 190 -2 c 1
 159 -31 130 -22 105 25 c 1
 80 0 l 1
 75 31 83 42 105 35 c 1
 105 35 l 1
EndSplineSet
EndChar

StartChar: velar.ext.diagdown
Encoding: 414 -1 408
Width: 320
Flags: HW
AnchorPoint: "Extension_mkmk" 100 20 mark 0
LayerCount: 2
Fore
SplineSet
184 36 m 1
 154 5 l 1
 147 17 138 26 127 29 c 0
 118 32 111 30 106 26 c 2
 80 0 l 1
 64 31 73 42 105 34 c 1
 118 47 131 54 144 55 c 0
 158 56 171 50 184 36 c 1
EndSplineSet
EndChar

StartChar: w.ext.diagdown
Encoding: 415 -1 409
Width: 320
Flags: HW
AnchorPoint: "Extension_mkmk" 100 20 mark 0
LayerCount: 2
Fore
SplineSet
105 -45 m 1
 105 25 l 1
 80 0 l 1
 78 13 78 21 80 24 c 0
 86 33 94 37 105 35 c 2
 145 75 l 1
 145 -14 l 1
 80 -79 l 1
 75 -75 l 1
 105 -45 l 1
EndSplineSet
EndChar

StartChar: x.ext.diagdown
Encoding: 416 -1 410
Width: 320
Flags: HW
AnchorPoint: "Extension_mkmk" 100 20 mark 0
LayerCount: 2
Fore
SplineSet
75 5 m 1
 71 18 72 24 77 23 c 0
 84 21 90 18 95 15 c 1
 80 0 l 1
 99 -16 124 -14 155 5 c 1
 129 -38 92 -48 45 -25 c 1
 75 5 l 1
EndSplineSet
EndChar

StartChar: y.ext.diagdown
Encoding: 417 -1 411
Width: 320
Flags: HW
AnchorPoint: "Extension_mkmk" 100 20 mark 0
LayerCount: 2
Fore
SplineSet
90 -40 m 1
 130 0 l 1
 80 0 l 1
 69 19 66 33 70 40 c 0
 72 48 81 48 100 40 c 2
 180 40 l 1
 140 0 l 1
 200 0 l 1
 160 -40 l 1
 90 -40 l 1
EndSplineSet
EndChar

StartChar: z.ext.diagdown
Encoding: 418 -1 412
Width: 320
Flags: HW
AnchorPoint: "Extension_mkmk" 100 20 mark 0
LayerCount: 2
Fore
SplineSet
98 26 m 1
 93 17 87 8 80 0 c 2
 50 -30 l 1
 45 -25 l 1
 75 5 l 1
 71 16 70 22 74 23 c 0
 78 25 86 26 98 26 c 1
EndSplineSet
EndChar

StartChar: glottal.ext.left
Encoding: 419 -1 413
Width: 320
Flags: HW
AnchorPoint: "Extension_mkmk" 100 20 mark 0
LayerCount: 2
Fore
SplineSet
53 -27 m 2
 77 -2 67 12 24 15 c 1
 54 45 l 1
 78 34 88 20 83 3 c 1
 120 40 l 1
 140 40 l 1
 120 30 113 16 120 0 c 1
 90 0 l 1
 55 -35 l 1
 50 -30 l 1
 53 -27 l 2
EndSplineSet
EndChar

StartChar: ncaron.ext.left
Encoding: 420 -1 414
Width: 320
Flags: HW
AnchorPoint: "Extension_mkmk" 100 20 mark 0
LayerCount: 2
Fore
SplineSet
55 25 m 1
 50 30 l 1
 120 100 l 1
 120 40 l 1
 160 40 l 1
 139 30 133 16 140 0 c 1
 80 0 l 1
 80 50 l 1
 55 25 l 1
EndSplineSet
EndChar

StartChar: scaron.ext.left
Encoding: 421 -1 415
Width: 320
Flags: HW
AnchorPoint: "Extension_mkmk" 100 20 mark 0
LayerCount: 2
Fore
SplineSet
140 40 m 1
 131 24 131 11 140 0 c 1
 90 0 l 1
 50 -40 l 1
 50 50 l 1
 90 89 l 1
 90 10 l 1
 120 40 l 1
 140 40 l 1
EndSplineSet
EndChar

StartChar: ddotbelow.ext.left
Encoding: 422 -1 416
Width: 320
Flags: HW
AnchorPoint: "Extension_mkmk" 100 20 mark 0
LayerCount: 2
Fore
SplineSet
162 40 m 1
 137 27 130 14 143 0 c 1
 89 0 l 1
 109 -33 108 -62 86 -85 c 1
 89 -57 79 -36 55 -25 c 1
 120 40 l 1
 162 40 l 1
EndSplineSet
EndChar

StartChar: tcedilla.ext.left
Encoding: 423 -1 417
Width: 320
Flags: HW
AnchorPoint: "Extension_mkmk" 100 20 mark 0
LayerCount: 2
Fore
SplineSet
89 0 m 1
 89 -41 98 -66 116 -75 c 1
 114 -75 114 -75 112 -75 c 0
 110 -75 107 -75 105 -75 c 0
 80 -72 64 -55 55 -25 c 1
 120 40 l 1
 162 40 l 1
 137 27 130 14 143 0 c 1
 89 0 l 1
EndSplineSet
EndChar

StartChar: ccedilla.ext.left
Encoding: 424 -1 418
Width: 320
Flags: HW
AnchorPoint: "Extension_mkmk" 100 20 mark 0
LayerCount: 2
Fore
SplineSet
90 0 m 1
 137 -47 l 1
 79 -105 l 1
 74 -100 l 1
 104 -70 l 1
 57 -24 l 1
 121 40 l 1
 141 40 l 1
 121 25 114 12 121 0 c 1
 90 0 l 1
EndSplineSet
EndChar

StartChar: ccaron.ext.left
Encoding: 425 -1 419
Width: 320
Flags: HW
AnchorPoint: "Extension_mkmk" 100 20 mark 0
LayerCount: 2
Fore
SplineSet
80 80 m 1
 115 115 l 1
 120 110 l 1
 90 80 l 1
 169 80 l 1
 129 40 l 1
 151 40 l 1
 122 23 115 9 130 0 c 1
 80 0 l 1
 120 40 l 1
 40 40 l 1
 80 80 l 1
 80 80 l 1
EndSplineSet
EndChar

StartChar: lcedilla.ext.left
Encoding: 426 -1 420
Width: 320
Flags: HW
AnchorPoint: "Extension_mkmk" 100 20 mark 0
LayerCount: 2
Fore
SplineSet
120 0 m 1
 120 -40 l 1
 80 -80 l 1
 10 -10 l 1
 40 20 l 1
 80 -20 l 1
 80 0 l 1
 120 40 l 1
 150 40 l 1
 132 26 129 12 140 0 c 1
 120 0 l 1
EndSplineSet
EndChar

StartChar: zdotaccent.ext.left
Encoding: 427 -1 421
Width: 320
Flags: HW
AnchorPoint: "Extension_mkmk" 100 20 mark 0
LayerCount: 2
Fore
SplineSet
115 -16 m 1
 120 -20 l 1
 50 -90 l 1
 50 -30 l 1
 120 40 l 1
 142 40 l 1
 127 26 129 13 144 0 c 1
 90 0 l 1
 90 -41 l 1
 115 -16 l 1
EndSplineSet
EndChar

StartChar: zcaron.ext.left
Encoding: 428 -1 422
Width: 320
Flags: HW
AnchorPoint: "Extension_mkmk" 100 20 mark 0
LayerCount: 2
Fore
SplineSet
140 40 m 1
 131 24 131 11 140 0 c 1
 90 0 l 1
 50 -40 l 1
 50 40 l 1
 24 15 l 1
 20 19 l 1
 50 49 l 1
 50 50 l 1
 90 89 l 1
 90 9 l 1
 120 40 l 1
 140 40 l 1
EndSplineSet
EndChar

StartChar: rcaron.ext.left
Encoding: 429 -1 423
Width: 320
Flags: HW
AnchorPoint: "Extension_mkmk" 100 20 mark 0
LayerCount: 2
Fore
SplineSet
143 0 m 1
 80 0 l 1
 120 40 l 1
 73 65 64 94 93 125 c 1
 87 92 108 72 155 65 c 1
 129 40 l 1
 162 40 l 1
 137 27 130 14 143 0 c 1
EndSplineSet
EndChar

StartChar: b.ext.left
Encoding: 430 -1 424
Width: 320
Flags: HW
AnchorPoint: "Extension_mkmk" 100 20 mark 0
LayerCount: 2
Fore
SplineSet
80 0 m 1
 120 40 l 1
 145 40 l 1
 115 25 107 11 120 0 c 1
 89 0 l 1
 50 -40 l 1
 -20 -40 l 1
 20 0 l 1
 80 0 l 1
EndSplineSet
EndChar

StartChar: c.ext.left
Encoding: 431 -1 425
Width: 320
Flags: HW
AnchorPoint: "Extension_mkmk" 100 20 mark 0
LayerCount: 2
Fore
SplineSet
80 0 m 1
 120 40 l 1
 145 40 l 1
 115 25 107 11 120 0 c 1
 89 0 l 1
 50 -40 l 1
 -20 -40 l 1
 55 35 l 1
 59 30 l 1
 29 0 l 1
 80 0 l 1
EndSplineSet
EndChar

StartChar: equal.ext.left
Encoding: 432 -1 426
Width: 320
Flags: HW
AnchorPoint: "Extension_mkmk" 100 20 mark 0
LayerCount: 2
Fore
SplineSet
140 0 m 1
 80 0 l 1
 80 60 l 1
 120 100 l 1
 120 40 l 1
 160 40 l 1
 139 30 133 16 140 0 c 1
EndSplineSet
EndChar

StartChar: d.ext.left
Encoding: 433 -1 427
Width: 320
Flags: HW
AnchorPoint: "Extension_mkmk" 100 20 mark 0
LayerCount: 2
Fore
SplineSet
120 0 m 1
 89 0 l 1
 137 -47 l 1
 109 -75 l 1
 57 -24 l 1
 120 40 l 1
 140 40 l 1
 120 25 113 12 120 0 c 1
EndSplineSet
EndChar

StartChar: D.ext.left
Encoding: 434 -1 428
Width: 320
Flags: HW
AnchorPoint: "Extension_mkmk" 100 20 mark 0
LayerCount: 2
Fore
SplineSet
120 0 m 1
 89 0 l 1
 132 -42 l 1
 157 -17 l 1
 162 -22 l 1
 137 -47 l 1
 109 -75 l 1
 57 -24 l 1
 120 40 l 1
 140 40 l 1
 120 25 113 12 120 0 c 1
EndSplineSet
EndChar

StartChar: glottal.flip.ext.left
Encoding: 435 -1 429
Width: 320
Flags: HW
AnchorPoint: "Extension_mkmk" 100 20 mark 0
LayerCount: 2
Fore
SplineSet
80 0 m 1
 115 36 l 1
 94 19 72 20 49 40 c 1
 79 70 l 1
 99 45 123 45 150 71 c 0
 151 72 l 0
 152 73 153 74 154 75 c 1
 159 70 l 1
 129 40 l 1
 169 40 l 1
 144 30 138 17 149 0 c 1
 80 0 l 1
EndSplineSet
EndChar

StartChar: approxequal.ext.left
Encoding: 436 -1 430
Width: 320
Flags: HW
AnchorPoint: "Extension_mkmk" 100 20 mark 0
LayerCount: 2
Fore
SplineSet
160 140 m 1
 160 71 l 1
 129 39 l 1
 130 40 l 1
 160 40 l 1
 143 19 140 6 153 0 c 1
 80 0 l 1
 120 40 l 1
 120 100 l 1
 160 140 l 1
EndSplineSet
EndChar

StartChar: f.ext.left
Encoding: 437 -1 431
Width: 320
Flags: HW
AnchorPoint: "Extension_mkmk" 100 20 mark 0
LayerCount: 2
Fore
SplineSet
89 80 m 1
 70 49 69 24 85 5 c 1
 120 40 l 1
 140 40 l 1
 128 27 126 14 134 0 c 1
 89 0 l 1
 59 -30 l 1
 36 17 46 54 89 80 c 1
EndSplineSet
EndChar

StartChar: g.ext.left
Encoding: 438 -1 432
Width: 320
Flags: HW
AnchorPoint: "Extension_mkmk" 100 20 mark 0
LayerCount: 2
Fore
SplineSet
73 87 m 1
 101 115 l 1
 153 64 l 1
 129 40 l 1
 148 40 l 1
 123 27 115 14 125 0 c 1
 80 0 l 1
 120 40 l 1
 73 87 l 1
EndSplineSet
EndChar

StartChar: G.ext.left
Encoding: 439 -1 433
Width: 320
Flags: HW
AnchorPoint: "Extension_mkmk" 100 20 mark 0
LayerCount: 2
Fore
SplineSet
73 87 m 1
 131 145 l 1
 136 140 l 1
 106 110 l 1
 153 64 l 1
 129 40 l 1
 148 40 l 1
 123 27 115 14 125 0 c 1
 80 0 l 1
 120 40 l 1
 73 87 l 1
EndSplineSet
EndChar

StartChar: h.ext.left
Encoding: 440 -1 434
Width: 320
Flags: HW
AnchorPoint: "Extension_mkmk" 100 20 mark 0
LayerCount: 2
Fore
SplineSet
190 161 m 1
 160 131 l 1
 160 71 l 1
 129 39 l 1
 130 40 l 1
 160 40 l 1
 143 19 140 6 153 0 c 1
 80 0 l 1
 120 40 l 1
 120 100 l 1
 185 166 l 1
 190 161 l 1
EndSplineSet
EndChar

StartChar: j.ext.left
Encoding: 441 -1 435
Width: 320
Flags: HW
AnchorPoint: "Extension_mkmk" 100 20 mark 0
LayerCount: 2
Fore
SplineSet
170 80 m 1
 130 40 l 1
 152 40 l 1
 123 23 116 9 131 0 c 1
 80 0 l 1
 120 40 l 1
 50 40 l 1
 15 5 l 1
 10 10 l 1
 80 80 l 1
 170 80 l 1
EndSplineSet
EndChar

StartChar: k.ext.left
Encoding: 442 -1 436
Width: 320
Flags: HW
AnchorPoint: "Extension_mkmk" 100 20 mark 0
LayerCount: 2
Fore
SplineSet
170 80 m 1
 130 40 l 1
 152 40 l 1
 123 23 116 9 131 0 c 1
 80 0 l 1
 120 40 l 1
 40 40 l 1
 80 80 l 1
 170 80 l 1
EndSplineSet
EndChar

StartChar: l.ext.left
Encoding: 443 -1 437
Width: 320
Flags: HW
AnchorPoint: "Extension_mkmk" 100 20 mark 0
LayerCount: 2
Fore
SplineSet
100 40 m 1
 120 40 l 1
 116 21 103 7 80 0 c 1
 20 60 l 1
 50 90 l 1
 100 40 l 1
EndSplineSet
EndChar

StartChar: m.ext.left
Encoding: 444 -1 438
Width: 320
Flags: HW
AnchorPoint: "Extension_mkmk" 100 20 mark 0
LayerCount: 2
Fore
SplineSet
160 0 m 1
 120 0 l 1
 120 -20 l 1
 80 -60 l 1
 80 0 l 1
 120 40 l 1
 160 40 l 1
 143 22 143 9 160 0 c 1
EndSplineSet
EndChar

StartChar: n.ext.left
Encoding: 445 -1 439
Width: 320
Flags: HW
AnchorPoint: "Extension_mkmk" 100 20 mark 0
LayerCount: 2
Fore
SplineSet
80 0 m 1
 80 60 l 1
 145 125 l 1
 150 120 l 1
 120 90 l 1
 120 40 l 1
 160 40 l 1
 139 30 133 16 140 0 c 1
 80 0 l 1
EndSplineSet
EndChar

StartChar: p.ext.left
Encoding: 446 -1 440
Width: 320
Flags: HW
AnchorPoint: "Extension_mkmk" 100 20 mark 0
LayerCount: 2
Fore
SplineSet
138 40 m 1
 113 27 105 13 115 0 c 1
 90 0 l 1
 61 -29 l 1
 16 16 l 1
 45 45 l 1
 85 5 l 1
 120 40 l 1
 138 40 l 1
EndSplineSet
EndChar

StartChar: P.ext.left
Encoding: 447 -1 441
Width: 320
Flags: HW
AnchorPoint: "Extension_mkmk" 100 20 mark 0
LayerCount: 2
Fore
SplineSet
138 40 m 1
 113 27 105 13 115 0 c 1
 90 0 l 1
 61 -29 l 1
 16 16 l 1
 45 45 l 1
 75 75 l 1
 80 70 l 1
 50 40 l 1
 85 5 l 1
 120 40 l 1
 138 40 l 1
EndSplineSet
EndChar

StartChar: r.upsidedown.ext.left
Encoding: 448 -1 442
Width: 320
Flags: HW
AnchorPoint: "Extension_mkmk" 100 20 mark 0
LayerCount: 2
Fore
SplineSet
20 60 m 1
 80 120 l 1
 85 115 l 1
 55 85 l 1
 100 40 l 1
 120 40 l 1
 116 21 103 7 80 0 c 1
 20 60 l 1
EndSplineSet
EndChar

StartChar: r.ext.left
Encoding: 449 -1 443
Width: 320
Flags: HW
AnchorPoint: "Extension_mkmk" 100 20 mark 0
LayerCount: 2
Fore
SplineSet
-10 30 m 1
 50 90 l 1
 100 40 l 1
 120 40 l 1
 116 21 103 7 80 0 c 1
 25 55 l 1
 -5 25 l 1
 -10 30 l 1
EndSplineSet
EndChar

StartChar: s.ext.left
Encoding: 450 -1 444
Width: 320
Flags: HW
AnchorPoint: "Extension_mkmk" 100 20 mark 0
LayerCount: 2
Fore
SplineSet
160 40 m 1
 131 28 118 14 120 0 c 1
 90 0 l 1
 55 -35 l 1
 50 -30 l 1
 120 40 l 1
 160 40 l 1
EndSplineSet
EndChar

StartChar: t.ext.left
Encoding: 451 -1 445
Width: 320
Flags: HW
AnchorPoint: "Extension_mkmk" 100 20 mark 0
LayerCount: 2
Fore
SplineSet
111 0 m 1
 90 0 l 1
 90 -50 l 1
 50 -90 l 1
 50 -30 l 1
 120 40 l 1
 142 40 l 1
 120 26 110 13 111 0 c 1
EndSplineSet
EndChar

StartChar: v.ext.left
Encoding: 452 -1 446
Width: 320
Flags: HW
AnchorPoint: "Extension_mkmk" 100 20 mark 0
LayerCount: 2
Fore
SplineSet
59 -30 m 1
 59 -30 l 1
 60 15 44 51 9 80 c 1
 58 68 84 43 85 5 c 1
 120 40 l 1
 140 40 l 1
 128 27 126 14 134 0 c 1
 89 0 l 1
 59 -30 l 1
EndSplineSet
EndChar

StartChar: velar.ext.left
Encoding: 453 -1 447
Width: 320
Flags: HW
AnchorPoint: "Extension_mkmk" 100 20 mark 0
LayerCount: 2
Fore
SplineSet
83 3 m 2
 120 40 l 1
 140 40 l 1
 125 30 123 17 137 0 c 1
 89 0 l 1
 84 -5 l 2
 71 -18 58 -25 45 -26 c 0
 31 -27 18 -20 5 -6 c 1
 35 24 l 1
 41 14 48 6 58 2 c 0
 68 -2 76 -2 83 3 c 2
EndSplineSet
EndChar

StartChar: w.ext.left
Encoding: 454 -1 448
Width: 320
Flags: HW
AnchorPoint: "Extension_mkmk" 100 20 mark 0
LayerCount: 2
Fore
SplineSet
115 115 m 1
 120 110 l 1
 90 80 l 1
 90 9 l 1
 120 40 l 1
 140 40 l 1
 131 24 131 11 140 0 c 1
 90 0 l 1
 50 -40 l 1
 50 50 l 1
 115 115 l 1
EndSplineSet
EndChar

StartChar: x.ext.left
Encoding: 455 -1 449
Width: 320
Flags: HW
AnchorPoint: "Extension_mkmk" 100 20 mark 0
LayerCount: 2
Fore
SplineSet
135 0 m 1
 80 0 l 1
 120 40 l 1
 113 69 88 91 45 105 c 1
 103 106 140 92 155 65 c 1
 129 40 l 1
 160 40 l 1
 136 24 128 10 135 0 c 1
EndSplineSet
EndChar

StartChar: y.ext.left
Encoding: 456 -1 450
Width: 320
Flags: HW
AnchorPoint: "Extension_mkmk" 100 20 mark 0
LayerCount: 2
Fore
SplineSet
120 40 m 1
 160 40 l 1
 139 30 133 16 140 0 c 1
 80 0 l 1
 80 60 l 1
 120 100 l 1
 60 100 l 1
 100 140 l 1
 170 140 l 1
 120 90 l 1
 120 40 l 1
EndSplineSet
EndChar

StartChar: z.ext.left
Encoding: 457 -1 451
Width: 320
Flags: HW
AnchorPoint: "Extension_mkmk" 100 20 mark 0
LayerCount: 2
Fore
SplineSet
160 70 m 1
 130 40 l 1
 160 40 l 1
 131 28 118 14 120 0 c 1
 80 0 l 1
 155 75 l 1
 160 70 l 1
EndSplineSet
EndChar

StartChar: register.standard.CGT
Encoding: 460 -1 454
Width: 160
Flags: HW
LayerCount: 2
Fore
SplineSet
75 135 m 1
 50 160 l 1
 110 220 l 1
 115 215 l 1
 85 185 l 1
 110 160 l 1
 50 100 l 1
 45 105 l 1
 75 135 l 1
EndSplineSet
Ligature2: "RegisterLigature subtable" periodcentered zero three
EndChar

StartChar: register.standard.DSV
Encoding: 461 -1 455
Width: 160
Flags: HW
LayerCount: 2
Fore
SplineSet
49 160 m 5
 79 190 l 5
 109 160 l 5
 79 130 l 5
 49 160 l 5
EndSplineSet
LCarets2: 2 0 0
Ligature2: "RegisterLigature subtable" periodcentered zero one
EndChar

StartChar: register.standard.EXM
Encoding: 462 -1 456
Width: 160
Flags: HW
LayerCount: 2
Fore
SplineSet
105 165 m 1
 135 195 l 1
 140 190 l 1
 80 130 l 1
 55 155 l 1
 25 125 l 1
 20 130 l 1
 80 190 l 1
 105 165 l 1
EndSplineSet
Ligature2: "RegisterLigature subtable" periodcentered zero four
EndChar

StartChar: register.standard.PNT
Encoding: 464 -1 458
Width: 160
Flags: HW
LayerCount: 2
Fore
SplineSet
123 207 m 1
 155 175 l 1
 125 145 l 1
 98 172 l 1
 37 113 l 1
 5 145 l 1
 35 175 l 1
 62 148 l 1
 123 207 l 1
EndSplineSet
Ligature2: "RegisterLigature subtable" periodcentered zero two
EndChar

StartChar: register.standard.SPF
Encoding: 465 -1 459
Width: 160
Flags: HW
LayerCount: 2
Fore
SplineSet
50 190 m 2
 78 162 l 1
 108 192 l 1
 135 165 l 1
 165 195 l 1
 170 190 l 1
 110 130 l 1
 83 157 l 1
 52 128 l 1
 25 155 l 1
 -5 125 l 1
 -10 130 l 1
 50 190 l 2
EndSplineSet
Ligature2: "RegisterLigature subtable" periodcentered zero five
EndChar

StartChar: register.alphabet.CGT
Encoding: 466 -1 460
Width: 160
Flags: HW
LayerCount: 2
Fore
SplineSet
49 175 m 1
 109 235 l 1
 114 230 l 1
 84 200 l 1
 111 173 l 1
 81 142 l 1
 109 115 l 1
 79 85 l 1
 46 117 l 1
 76 147 l 1
 49 175 l 1
EndSplineSet
Ligature2: "RegisterLigature subtable" periodcentered one three
EndChar

StartChar: register.alphabet.DSV
Encoding: 467 -1 461
Width: 160
Flags: HW
LayerCount: 2
Fore
SplineSet
82 158 m 2
 52 128 l 1
 20 160 l 1
 50 190 l 1
 78 162 l 1
 108 192 l 1
 140 160 l 1
 110 130 l 1
 82 158 l 2
EndSplineSet
Ligature2: "RegisterLigature subtable" periodcentered one one
EndChar

